<?xml version="1.0" encoding="UTF-8" standalone="no"?>
<!DOCTYPE svg PUBLIC "-//W3C//DTD SVG 1.1//EN" "http://www.w3.org/Graphics/SVG/1.1/DTD/svg11.dtd">
<svg xmlns="http://www.w3.org/2000/svg">
<metadata/>
<defs>
<font id="kari_proitalic" horiz-adv-x="1501">
<font-face units-per-em="2048" ascent="1638" descent="-410"/>
<missing-glyph horiz-adv-x="512"/>
<glyph unicode="ﬃ" horiz-adv-x="1994" d="M-37 -215q2 17 4 35l154 887h-51q-13 0 -13 12l21 110q0 6 5 10.5t11 4.5h51l25 145q15 87 67 164.5t123.5 132.5t160.5 86t176.5 32.5t173 -35.5t147.5 -112q69 50 166 72q115 29 255.5 12t215.5 -77q2 0 2 -7l-17 -90q-3 -10 -10 -10q-1 0 -4 1t-4 1q-41 9 -72 14 t-69 6t-66 -5.5t-58 -22.5t-51.5 -42.5t-39 -68.5t-27.5 -98l-16 -98q249 -2 325 0q81 2 185 -19t131 -63q8 -17 0 -51l-68 -383q-18 -111 53 -111q35 0 92.5 29.5t106.5 66.5q2 2 6 2q10 0 10 -10l-16 -90q0 -2 -4 -6q-108 -108 -230.5 -164.5t-238.5 -56.5q-58 0 -99.5 20 t-63 51.5t-31 74.5t-8.5 84.5t9 86.5l70 402h-254l-143 -813q-6 -39 -19 -52q-43 -43 -159 -72.5t-189 -27.5q-11 0 -20 2t-15.5 3.5t-11 6t-8 6.5t-4.5 9t-2 9t-0.5 10.5t0.5 9.5t2 12l2 10l155 887h-251l-144 -813q-7 -41 -20 -52q-43 -43 -157.5 -72.5t-188.5 -27.5 q-34 1 -49 13.5t-13 29.5zM559 844h252l14 88q24 141 103 244l2 2q-27 19 -63.5 31t-80.5 9t-83 -22.5t-71.5 -70t-45.5 -126.5z"/>
<glyph unicode="ﬄ" horiz-adv-x="1992" d="M-37 -215q2 17 4 35l154 887h-51q-13 0 -13 12l21 110q4 15 16 15h51l27 145q15 86 65 163t120.5 131.5t157.5 87t173 35.5t171.5 -30.5t148.5 -103.5q99 68 239.5 96t272.5 15t247 -63t168 -128q8 -13 2 -51l-143 -813q-21 -111 51 -111q35 0 92.5 29.5t104.5 66.5 q4 2 10 2q8 0 8 -10l-16 -90q0 -2 -4 -6q-111 -109 -232.5 -165t-238.5 -56q-58 0 -99 20t-62.5 51.5t-31 74.5t-8 84.5t9.5 86.5l162 922q-29 8 -58 10.5t-67.5 -6t-69 -31t-58 -72.5t-40.5 -122l-28 -162h120q6 0 9.5 -4.5t1.5 -10.5l-21 -110q0 -12 -14 -12h-121 l-143 -813q-6 -39 -19 -52q-45 -43 -161 -72.5t-189 -27.5q-11 0 -19.5 2t-15 3.5t-11 6t-7.5 6.5t-4.5 9t-2.5 9t0 10.5t1 10t2 11t2 10.5l155 887h-247l-144 -813q-7 -41 -20 -52q-43 -43 -157.5 -72.5t-188.5 -27.5q-34 1 -49 13.5t-13 29.5zM559 844h248l20 121 q27 151 88 221q-38 23 -84.5 29.5t-96.5 -6.5t-91 -66.5t-57 -143.5z"/>
<glyph horiz-adv-x="0"/>
<glyph horiz-adv-x="0"/>
<glyph horiz-adv-x="682"/>
<glyph unicode="" horiz-adv-x="512"/>
<glyph unicode=" " horiz-adv-x="512"/>
<glyph unicode="	" horiz-adv-x="512"/>
<glyph unicode=" " horiz-adv-x="512"/>
<glyph unicode="!" horiz-adv-x="538" d="M100 166q12 75 79.5 127.5t150.5 52.5t131.5 -52.5t36.5 -127.5q-14 -75 -81.5 -128.5t-150.5 -53.5t-131.5 53.5t-34.5 128.5zM188 543l68 553q3 19 5.5 27t11 22t25.5 20.5t44 8.5q50 3 113 5.5t126 -11t81 -42.5q10 -10 4 -51l-129 -551q-3 -19 -5.5 -27.5t-11 -22.5 t-25.5 -21t-44 -9q-213 -19 -258 48q-11 16 -5 51z"/>
<glyph unicode="&quot;" horiz-adv-x="798" d="M260 1126q0 57 55.5 101.5t118.5 44.5t102.5 -44.5t18.5 -101.5l-149 -346q-9 -14 -23 -14h-78q-14 0 -14 14zM637 1126q0 57 55.5 101.5t118.5 44.5t102.5 -44.5t18.5 -101.5l-150 -346q-9 -14 -22 -14h-78q-14 0 -14 14z"/>
<glyph unicode="#" horiz-adv-x="1191" d="M117 307l45 137q3 8 9.5 14.5t12.5 6.5h176l70 229h-178q-17 0 -10 21l45 137q7 20 24 20h178l56 183q8 16 26 16h140q9 0 13 -4t1 -10l-55 -185h231l55 179q6 16 25 16l141 2q9 0 13.5 -5t1.5 -11l-56 -181h187q17 0 10 -20l-45 -137q-7 -21 -25 -21h-184l-72 -229h191 q14 0 10 -21l-45 -137q-7 -20 -25 -20h-188l-59 -183q0 -16 -25 -16l-139 -2q-7 0 -12 5t-5 11l60 185h-232l-57 -181q-2 -6 -10 -11t-17 -5h-139q-17 0 -14 16l57 181h-178q-15 0 -8 20zM541 465h231l72 229h-234z"/>
<glyph unicode="$" horiz-adv-x="983" d="M104 252l21 117q3 10 12 10q6 0 8 -2q42 -50 118 -79.5t147 -29.5q90 0 129 31q15 13 17.5 30t-14.5 43t-57 54q-8 6 -50.5 34.5t-68 47t-64.5 55t-60.5 67.5t-34.5 73.5t-6 84.5q13 68 50 121t90.5 85t113.5 49.5t127 23.5l14 78q2 8 9 14t16 6h122q8 0 13 -6.5t4 -13.5 l-15 -82q40 -4 54 -8q122 -27 217 -99q6 -2 6 -12l-21 -108q0 -11 -10 -11q-6 0 -8 2q-92 62 -219 62q-111 0 -143 -39q-54 -64 77 -135q7 -4 25 -13q20 -10 32 -16.5t36.5 -20t40.5 -24.5t39 -27.5t38 -32t32.5 -35.5t27 -40.5t16.5 -43t6.5 -48.5t-8.5 -52 q-33 -115 -149 -184t-261 -86l-12 -80q-1 -7 -9 -13.5t-15 -6.5h-123q-9 0 -14 6t-3 14l13 80q-30 4 -43 8q-84 21 -152 60t-109 84q0 1 -1 4t-1 4z"/>
<glyph unicode="%" horiz-adv-x="1726" d="M211 856q25 136 132 221.5t290 85.5t259.5 -85.5t51.5 -221.5q-23 -136 -130 -221.5t-290 -85.5t-259.5 85.5t-53.5 221.5zM416 49l997 1141q10 13 21 6l82 -45q12 -8 2 -21l-998 -1140q-9 -12 -22 -6l-80 45q-9 6 -2 20zM457 707q8 -74 82 -74q22 0 40 7t30.5 15.5 t23.5 28.5t17 31.5t12.5 40.5t8.5 39.5t8 43.5q1 4 1 6t1 5t1 6q1 6 3 17q5 28 7.5 43t5 40.5t1 39t-6 31.5t-14 27.5t-25 16t-37.5 6.5q-30 0 -53.5 -13.5t-36.5 -28t-24.5 -50.5t-14.5 -51.5t-11 -61.5q-2 -11 -3 -16q-19 -112 -16 -149zM981 289q25 136 132 221.5 t290 85.5q184 0 260 -85.5t51 -221.5q-23 -136 -129.5 -221.5t-290.5 -85.5q-183 0 -259.5 85.5t-53.5 221.5zM1229 136q11 -69 80 -70q31 0 54.5 13.5t37 31t24.5 50t15.5 55t11.5 61.5q1 8 2 12q19 110 16 145q-6 78 -81 78q-23 0 -41.5 -7.5t-31.5 -17.5t-24.5 -31 t-17.5 -35t-13 -43t-9.5 -43t-8.5 -46q-20 -114 -14 -153z"/>
<glyph unicode="&amp;" d="M111 285q18 104 105.5 192.5t225.5 151.5q-48 148 -22 278q27 123 130 204t267 77q69 -2 119.5 -18t79 -42t45 -60t16.5 -72t-6 -78q-16 -96 -85.5 -196.5t-160.5 -182.5q-11 -11 -16 -2q-30 35 -47 73q-4 11 4 21q103 118 129 241q24 111 -34 149q-28 18 -73 13 q-80 -9 -120 -91t-11 -177q34 -104 93 -200t124 -163q60 -56 82 -73q69 58 126.5 121.5t86.5 105.5q11 18 25 18h63q8 0 12.5 -5.5t0.5 -12.5q-85 -172 -213 -303q88 -53 164 -53q129 0 256 112q2 2 8 2q8 0 8 -10l-16 -90q0 -2 -4 -6q-25 -36 -37.5 -53t-50 -59 t-69.5 -66.5t-81.5 -49t-101.5 -32.5q-182 -27 -338 112q-175 -88 -340 -88q-199 0 -284 87t-60 225zM407 280q3 -37 20 -65t42.5 -42t52.5 -17q78 -8 168 18q-110 137 -192 307q-49 -58 -71.5 -111t-19.5 -90z"/>
<glyph unicode="'" horiz-adv-x="421" d="M260 1126q0 57 55.5 101.5t118.5 44.5t102.5 -44.5t18.5 -101.5l-149 -346q-9 -14 -23 -14h-78q-14 0 -14 14z"/>
<glyph unicode="(" horiz-adv-x="634" d="M140.5 194q-16.5 148 15.5 349q27 155 80 286.5t119 222.5t142.5 155t151.5 94t146 30q5 0 8 -4t2 -10l-17 -90q-4 -15 -14 -15q-94 0 -183 -178.5t-145 -490.5q-54 -317 -27.5 -493.5t120.5 -176.5q10 0 10 -12l-17 -92q-4 -13 -14 -13q-89 0 -167 47.5t-136 145 t-74.5 245.5z"/>
<glyph unicode=")" horiz-adv-x="634" d="M20 -231l17 92q0 4 4.5 8t9.5 4q94 0 182.5 179t143.5 491q55 317 29.5 493t-119.5 176q-5 0 -8.5 4.5t-2.5 10.5l17 90q3 14 14 14q89 0 167 -48t135.5 -145.5t74 -245.5t-15.5 -349q-27 -155 -80 -286.5t-118.5 -222t-141.5 -154.5t-151 -94t-146 -30q-5 0 -8.5 4.5 t-2.5 8.5z"/>
<glyph unicode="*" horiz-adv-x="1099" d="M204.5 701q-21.5 52 12.5 126q23 46 61.5 74t74.5 31t67 -12q29 -18 104 -89.5t123 -121.5q-63 276 -63 317q0 55 49.5 101.5t122.5 46.5q74 0 107.5 -46.5t13.5 -101.5q-17 -48 -175 -317q62 49 163.5 121t138.5 90q35 14 70 11.5t63.5 -30.5t36.5 -74q9 -70 -32 -124 t-98 -62q-60 -6 -335 16q213 -146 249 -186q21 -25 22.5 -61.5t-21.5 -76.5t-68 -69q-71 -41 -128 -28t-73 63q-5 18 -10.5 65t-9 87.5t-8 102t-5.5 71.5q-112 -278 -145 -326q-33 -50 -94.5 -63t-118.5 28q-50 48 -45 108t51 99q36 30 316 186q-280 -23 -340 -16 q-55 8 -76.5 60z"/>
<glyph unicode="+" horiz-adv-x="995" d="M139 440l62 191q7 18 22 18h273l49 275q4 15 24 18l195 27q7 1 12.5 -3t3.5 -10l-55 -307h307q6 0 9.5 -5.5t0.5 -12.5l-61 -191q-1 -8 -7.5 -14t-12.5 -6h-275l-49 -273q-4 -17 -23 -20l-194 -27q-9 -2 -14.5 3t-4.5 12l56 305h-305q-7 0 -11 6t-2 14z"/>
<glyph unicode="," horiz-adv-x="585" d="M111 -225q-7 10 2 22q41 46 60.5 70t38.5 63.5t13 71.5q-44 22 -64.5 66t-10.5 98q12 75 73.5 127.5t136.5 52.5t119.5 -52.5t32.5 -127.5q-37 -204 -319 -463q-15 -12 -23 0z"/>
<glyph unicode="-" horiz-adv-x="808" d="M130.5 375.5q-2.5 6.5 0.5 13.5l59 191q8 20 25 20h621q7 0 10 -6t0 -14l-60 -191q-3 -7 -10.5 -13.5t-13.5 -6.5h-623q-6 0 -8.5 6.5z"/>
<glyph unicode="." horiz-adv-x="593" d="M158 166q12 75 74 127.5t137 52.5t119 -52.5t32 -127.5q-13 -75 -76.5 -128.5t-138.5 -53.5t-118 53.5t-29 128.5z"/>
<glyph unicode="/" horiz-adv-x="933" d="M66 0l790 1290q14 21 33 15q4 -2 49 -19t91.5 -34.5t49.5 -18.5q14 -7 2 -27l-790 -1290q-13 -23 -33 -16q-75 25 -190 71q-16 5 -2 29z"/>
<glyph unicode="0" horiz-adv-x="1243" d="M148 423q1 74 16 159q18 102 50 188t86.5 162.5t127 129.5t174.5 83.5t225 30.5q103 0 184 -21t135 -60.5t89 -92.5t49.5 -120.5t14.5 -141t-15 -158.5q-18 -103 -51 -189.5t-88 -162.5t-128 -129.5t-175.5 -84t-225.5 -30.5q-103 0 -184 21t-134 60.5t-88 92.5t-49 121 t-13 142zM535 260q10 -102 112 -102q104 0 142.5 86t84.5 338q47 218 37 320t-114 102q-22 0 -40.5 -3.5t-34.5 -13t-28.5 -19t-24 -29.5t-20 -36.5t-18 -47t-15.5 -53.5t-14.5 -65t-14 -72t-14.5 -83q-48 -220 -38 -322z"/>
<glyph unicode="1" horiz-adv-x="755" d="M170 962.5q2 7.5 8 12.5l285 164q33 23 98.5 32.5t119 8.5t105.5 -6q33 -3 48 -15t13.5 -28.5t-3.5 -34.5l-178 -1014q-5 -31 -23 -49q-28 -29 -95.5 -42.5t-130 -11.5t-112.5 5q-33 4 -48 16.5t-13 28.5t4 34l151 865l-98 -47q-15 -11 -33 -2q-31 16 -96 73 q-4 3 -2 10.5z"/>
<glyph unicode="2" horiz-adv-x="1079" d="M45 31q-25 20 4 106q105 123 225 229t205 165t165 120.5t116 106.5q19 25 33 59t18 72t-5 70.5t-42.5 53.5t-89.5 21q-52 0 -99 -30q3 -32 0 -58q-12 -69 -67 -115.5t-123 -46.5q-64 0 -98.5 47.5t-22.5 108.5q11 42 36.5 79t73 74t129.5 63t191 34q76 5 138.5 1 t112 -18.5t87 -34t63.5 -46.5t42.5 -56.5t24 -63.5t7 -67.5t-7.5 -68.5q-17 -85 -67 -154.5t-115 -115t-154.5 -92t-173.5 -82.5t-183.5 -90.5t-174.5 -111.5q50 2 92 5t69.5 5t64.5 6.5t55.5 7t66 9t74.5 10.5q266 33 315 -43q9 -14 10.5 -35t-5 -44.5t-13 -41.5t-16.5 -40 t-11 -25q-7 -13 -18.5 -20.5t-22.5 -1.5q-72 33 -254 24q-457 -18 -467 -18q-130 0 -188 43z"/>
<glyph unicode="3" horiz-adv-x="1126" d="M100 215v6l15 90q4 11 12 11q5 0 8 -3q96 -73 199 -109t199.5 -24t154.5 80q24 27 36.5 62.5t7.5 73t-27 69t-73 52t-124 20.5q-12 0 -12 14l14 80q4 14 18 14q126 0 207 71.5t94 162.5q9 79 -36.5 116t-151.5 37q-64 0 -88 -12q6 -30 0 -68q-12 -68 -65 -113.5 t-117 -45.5q-65 0 -99 45t-22 114q17 100 137 169t340 69q75 0 138 -8.5t107.5 -24t80.5 -36t57 -44.5t37 -50t20 -52.5t6.5 -52t-4.5 -47.5q-14 -83 -79 -160t-170 -125q105 -24 159.5 -103t38.5 -180.5t-102 -183.5q-79 -75 -201.5 -110t-241.5 -35q-286 0 -473 231z"/>
<glyph unicode="4" horiz-adv-x="1093" d="M90 342l4 129q-1 15 17 33l626 645q23 23 68 25q50 3 112.5 5.5t125.5 -11t81 -42.5q8 -11 2 -51l-106 -600h125q8 0 13.5 -5.5t4.5 -14.5l-33 -123q-2 -8 -8.5 -14.5t-15.5 -6.5h-115l-43 -248q-3 -20 -5 -27t-10.5 -21.5t-25.5 -21t-45 -9.5q-51 -3 -114 -5 t-125.5 11.5t-81.5 42.5q-7 11 0 49l39 229h-469q-24 0 -21 31zM270 475h338l76 420z"/>
<glyph unicode="5" horiz-adv-x="1126" d="M102 229v7l17 90q0 4 3.5 8t8.5 4l4 -4q192 -156 350 -148q96 5 166 55t88 144q7 41 -1.5 77t-43 69t-94 51t-163 18t-240.5 -25l92 527q3 18 6 27t11 22t25.5 20t43.5 9q75 6 86 6l389 -8q186 0 264 30q12 7 21.5 -0.5t11.5 -19.5q0 -4 3 -26.5t3.5 -40t-1 -41.5 t-10 -45t-22.5 -36q-77 -77 -334 -47q-17 1 -71 7t-90 8l-45 -248q97 9 174 7.5t135 -18t100 -38.5t69.5 -54t44 -63.5t22.5 -69t5.5 -70t-6.5 -65.5q-19 -111 -105.5 -198t-204 -131t-241.5 -44q-86 0 -166.5 24t-139.5 62t-101 81.5t-64 86.5z"/>
<glyph unicode="6" horiz-adv-x="1167" d="M125 296.5q-5 55.5 8 115.5q20 111 75 223t145.5 223.5t227 216t304.5 187.5q13 9 24 0q17 -9 55.5 -38t47.5 -40q3 -1 1.5 -9t-7.5 -12q-100 -66 -171.5 -127.5t-141 -149.5t-117 -205.5t-74.5 -266.5q-9 -52 -11 -94t1.5 -70t12.5 -48.5t20 -32t26 -18t28 -8.5t29 -2 q23 0 41.5 4t43.5 20.5t45 44.5t39.5 80t31.5 124q11 60 14 100t-4 78.5t-29.5 59t-65 31.5t-106.5 7q-8 3 3 21q9 24 30 63.5t33 54.5q4 9 18 9q60 7 114 7t109 -8.5t98 -29t80.5 -53.5t57 -81t27 -112.5t-9.5 -148.5q-17 -92 -60.5 -169t-115.5 -136.5t-180 -93 t-242 -33.5q-91 0 -165 15.5t-125.5 43.5t-88.5 67t-54 87t-22 103.5z"/>
<glyph unicode="7" horiz-adv-x="995" d="M140.5 16q-5.5 18 0 32t19.5 38l547 877h-519q-8 0 -12.5 5.5t-3.5 12.5l33 182q4 19 20 19q527 0 942 -49q23 -3 -2 -54q-50 -102 -100 -188l-526 -852q-24 -35 -39 -41q-58 -22 -131 -31q-137 -19 -199 17q-24 14 -29.5 32z"/>
<glyph unicode="8" horiz-adv-x="1175" d="M119 336q15 85 80 161t159 115q-59 35 -88 101t-18 135q31 167 170 256.5t375 89.5q235 0 344 -90t78 -256q-10 -67 -64 -133.5t-125 -102.5q82 -39 119 -115t22 -161q-11 -62 -36.5 -114t-72.5 -98.5t-112 -79t-158.5 -51t-209.5 -18.5q-144 0 -244 28t-150 78.5 t-66.5 113.5t-2.5 141zM504 332q-14 -85 11.5 -139t94.5 -54t115.5 54.5t60.5 138.5q14 85 -11.5 138.5t-94.5 53.5t-115.5 -54t-60.5 -138zM596 852q-14 -78 13 -129t96 -51t114.5 51t59.5 129q13 80 -13.5 131t-95.5 51t-115 -51.5t-59 -130.5z"/>
<glyph unicode="9" horiz-adv-x="1167" d="M195 760q16 92 59.5 168.5t115 136.5t180 93.5t243.5 33.5q134 0 230.5 -33.5t147 -93.5t67.5 -136.5t1 -168.5q-20 -110 -75.5 -223t-146 -224.5t-226.5 -216t-304 -186.5q-12 -9 -26 -2q-79 55 -105 78q-4 9 9 22q79 51 139 98.5t121.5 114t105.5 141t80.5 175 t58.5 221.5q10 60 11.5 106.5t-5.5 75t-17.5 47t-28 27t-32.5 11.5t-34 3q-24 0 -42.5 -4t-44 -19.5t-44.5 -43t-38.5 -79.5t-31.5 -124q-17 -90 -13 -150.5t49 -96.5t142 -50q9 -3 2 -19q-10 -24 -33.5 -64.5t-35.5 -55.5q-4 -7 -17 -7q-58 2 -113 10.5t-132 37t-128.5 73 t-80 129t-8.5 195.5z"/>
<glyph unicode=":" horiz-adv-x="593" d="M158 166q12 75 74 127.5t137 52.5t119 -52.5t32 -127.5q-13 -75 -76.5 -128.5t-138.5 -53.5t-118 53.5t-29 128.5zM256 731q13 75 75.5 127.5t137.5 52.5t118.5 -52.5t30.5 -127.5q-12 -75 -74.5 -128.5t-137.5 -53.5t-118.5 53.5t-31.5 128.5z"/>
<glyph unicode=";" horiz-adv-x="585" d="M111 -225q-7 10 2 22q41 46 60.5 70t38.5 63.5t13 71.5q-44 22 -64.5 66t-10.5 98q12 75 73.5 127.5t136.5 52.5t119.5 -52.5t32.5 -127.5q-37 -204 -319 -463q-15 -12 -23 0zM248 731q13 75 75.5 127.5t137.5 52.5t118.5 -52.5t30.5 -127.5q-12 -75 -75 -128.5 t-138 -53.5t-118 53.5t-31 128.5z"/>
<glyph unicode="&lt;" horiz-adv-x="696" d="M154 530l34 191q2 13 23 29l508 307q8 4 14 0t8 -13l47 -143q4 -23 -12 -33l-405 -243l319 -244q14 -11 2 -31l-98 -145q-4 -9 -12.5 -12t-14.5 2l-399 307q-16 12 -14 28z"/>
<glyph unicode="=" horiz-adv-x="995" d="M98 209l62 190q8 19 22 19h809q6 0 9.5 -6t0.5 -13l-61 -190q-2 -8 -8.5 -14.5t-13.5 -6.5h-809q-6 0 -9.5 6.5t-1.5 14.5zM179.5 651.5q-2.5 6.5 0.5 14.5l60 190q8 21 24 21h809q6 0 8.5 -6.5t-0.5 -14.5l-59 -190q-3 -8 -10.5 -14.5t-14.5 -6.5h-809q-6 0 -8.5 6.5z "/>
<glyph unicode="&gt;" horiz-adv-x="694" d="M125 350q-4 20 10 31l406 244l-320 243q-11 11 0 33l96 143q4 9 13.5 13.5t13.5 -0.5l401 -307q17 -13 15 -29l-35 -191q-1 -12 -23 -28l-509 -307q-6 -5 -14 -2t-9 12z"/>
<glyph unicode="?" horiz-adv-x="1040" d="M227 940q11 42 36.5 79t72.5 74t129.5 63t191.5 34q85 6 155.5 0.5t121 -21t90 -39t61.5 -53.5t36 -65t14 -73t-5 -77q-8 -43 -38.5 -88t-83.5 -90.5t-96.5 -78.5t-111 -79t-93.5 -65q-37 -29 -58 -29h-194q-11 0 -13.5 11.5t4.5 17.5q44 52 129.5 137.5t145.5 159.5 q25 31 40 76t14.5 90.5t-35 77.5t-103.5 32q-53 0 -100 -30q3 -32 0 -58q-12 -68 -67 -115t-122 -47q-64 0 -99.5 48t-21.5 108zM332 166q12 75 79 127.5t150 52.5t131.5 -52.5t36.5 -127.5q-14 -75 -81 -128.5t-150 -53.5t-131.5 53.5t-34.5 128.5z"/>
<glyph unicode="@" horiz-adv-x="1495" d="M150.5 444.5q0.5 64.5 13.5 137.5q18 102 55 188t102 162.5t154 129.5t216 83.5t282 30.5q444 0 561 -238q46 -92 27 -211q-13 -76 -50 -145.5t-86.5 -120t-107.5 -92t-115.5 -67t-107.5 -39t-86 -13.5q-144 0 -148 153q-5 -5 -30 -35t-40 -43.5t-43.5 -34.5t-62.5 -30.5 t-74 -9.5q-106 0 -152.5 80t-21.5 225q29 164 167.5 260t385.5 96q96 0 225 -22q24 -3 21 -25l-64 -375q-5 -28 3.5 -39.5t21.5 -10t31 9.5q72 33 125 94t75.5 128.5t17 136.5t-43.5 118q-108 143 -447 143q-329 0 -501 -143q-144 -123 -181 -344q-40 -224 60 -346 q123 -144 448 -144q6 0 10 -4t3 -10l-13 -78q-4 -14 -18 -14q-112 0 -203 16t-157.5 44.5t-115.5 70.5t-78.5 92t-43.5 110.5t-13.5 125zM711 600q-28 -154 65 -154q42 0 90 43l56 320q-173 0 -211 -209z"/>
<glyph unicode="A" d="M-57 204q0 2 2 4q3 2 6 3h92q6 0 10 -8q12 -34 35 -37q28 -7 55 12.5t64 59.5l792 901q27 33 50.5 43t78.5 10h9q71 0 163 -28q98 -30 125 -72q11 -11 5 -52l-125 -712q-5 -26 -5 -45q0 -66 54 -66q35 0 91.5 29.5t106.5 66.5q4 2 9 2q8 0 8 -10l-17 -90q0 -4 -4 -6 q-108 -108 -229.5 -164.5t-239.5 -56.5q-54 0 -93.5 17t-61.5 45t-34 64q-12 35 -12 74v3q0 40 5 81h-420l-80 -90q-81 -95 -148.5 -145.5t-130.5 -50.5q-62 0 -102 57q-58 82 -59 161zM594 422h313l78 448z"/>
<glyph unicode="B" horiz-adv-x="1247" d="M86 100l133 758q3 18 6 27t11 22.5t25.5 20.5t43.5 10q61 4 110 4q177 0 212 -53q10 -13 4 -49l-33 -178q147 8 229 68q76 56 76 151v14q-8 122 -257 122q-162 0 -427 -52q-15 -4 -20 10q0 91 2 102q0 15 18 19q403 118 682 118q77 0 138.5 -12.5t101.5 -32.5t69 -48 t43 -56.5t21 -60.5q7 -30 6 -55q0 -26 -4 -54q-15 -81 -80 -149.5t-156 -108.5q122 -33 190 -118q48 -60 49 -136q0 -32 -9 -68q-14 -56 -47 -105.5t-91.5 -97t-155 -82t-222.5 -48.5q-65 -6 -149 -6q-73 0 -161 4q-188 10 -303 36q-40 14 -51 33q-6 9 -6 27q0 10 2 24z M506 135h16q108 1 178 25q75 26 108.5 71.5t45.5 118.5q4 22 4 42q0 80 -60 116q-63 38 -178 38q-20 0 -42 -1z"/>
<glyph unicode="C" horiz-adv-x="1226" d="M128 546q15 110 67 228q26 60 66 117.5t102 116.5t135.5 103.5t173 72.5t209.5 28q72 0 130.5 -10t96 -27.5t67 -39.5t43 -46t23 -48t8 -44.5t-1.5 -35.5q-12 -69 -67.5 -119.5t-122.5 -50.5t-105 50q-29 38 -29 88q0 16 3 32q5 32 28 71q-33 9 -64 9q-35 1 -69 -11 q-63 -22 -108 -71.5t-81.5 -119t-58 -136t-32.5 -130.5q-7 -39 -9 -75q-1 -20 -2 -41q0 -17 1 -33q2 -38 11.5 -69.5t26.5 -62.5t44.5 -51.5t65.5 -36.5q38 -18 89 -20q20 -1 41 -1q34 0 74 3q104 10 211 49.5t186 88.5q1 0 4 1t4 1q8 0 8 -11l-16 -94q-1 -1 -2 -3t-2 -3 q-277 -196 -524 -225q-53 -6 -103 -6q-67 0 -129 11q-108 19 -186.5 65.5t-130.5 120t-71 163.5q-11 51 -11 108q0 45 7 94z"/>
<glyph unicode="D" horiz-adv-x="1288" d="M84 82l135 776q3 18 6 27t11 22.5t25.5 20.5t43.5 10q61 4 110 4q177 0 212 -53q10 -16 4 -49l-125 -701h14q50 1 92 7q48 8 107.5 35.5t104.5 75.5t84.5 135t60.5 206q12 68 14 125v17q1 47 -9 81q-12 41 -24 74.5t-40.5 54.5t-48.5 36.5t-59 21.5q-40 8 -61 12 q-16 3 -44 3q-9 -1 -21 -1q-44 -2 -59 -2.5t-56 -4.5q-24 -2 -35 -3q-105 -9 -307 -47q-15 -4 -20 10q0 91 2 102q0 15 18 19q396 118 686 118q72 0 135 -12.5t124 -41.5t103.5 -77t73 -118.5t33.5 -166.5v-27q0 -86 -16 -193q-18 -103 -54.5 -189t-81.5 -146t-106.5 -107 t-120 -76t-132.5 -48.5t-133.5 -27.5t-132.5 -11q-49 -2 -86 -2q-19 1 -35 1q-48 2 -108.5 3.5t-84.5 1.5v3q-162 0 -197 53q-5 6 -5 21q0 11 3 28z"/>
<glyph unicode="E" horiz-adv-x="1179" d="M82 232q-2 16 -2 32q0 44 16 87q22 58 62 108.5t101.5 85.5t131.5 45q-76 20 -119 62q-43 44 -51 98q-2 16 -2 33q1 39 13 81q18 60 61 119q58 80 156.5 134t196 74.5t198.5 20.5q60 0 110.5 -6.5t87 -18t66 -27.5t48.5 -33t32.5 -36.5t20 -37.5t9.5 -36t3 -30.5 t-2 -23.5q-12 -69 -66 -117.5t-121 -48.5q-66 1 -104 49q-29 37 -30 85q0 15 3 32q6 37 27 67q-21 12 -62 12q-93 0 -158.5 -42.5t-91.5 -120.5q-11 -33 -10 -63q0 -52 31 -98q50 -72 178 -73q6 0 10 -5t4 -11l-14 -78q-3 -14 -18 -14q-63 0 -115.5 -14.5t-86 -38 t-57.5 -53.5t-33 -61t-8 -59.5t13 -50.5q38 -72 176 -78q19 -1 40 0q120 0 248 34q150 40 257 97q4 2 8 2q8 0 8 -10l-16 -90q0 -4 -4 -6q-149 -99 -332 -162t-365 -63q-127 0 -238.5 32t-166.5 107q-35 49 -43 109z"/>
<glyph unicode="F" horiz-adv-x="1021" d="M92 82l156 883h-17q-15 -4 -20 10q0 91 4 137q2 14 21 18q465 56 976 56q7 0 12 -6q4 -4 4 -9q0 -2 -1 -4l-33 -184q-3 -16 -20 -16q-50 0 -216 -1t-296 -1l-52 -285h355q15 0 12 -14l-21 -111q0 -5 -5 -8.5t-11 -3.5h-354l-84 -480q-3 -19 -5.5 -27t-11 -21.5 t-25.5 -20.5t-44 -10q-51 -3 -114 -5h-16l-110 11q-63 14 -82 43q-5 6 -5 21q0 11 3 28z"/>
<glyph unicode="G" horiz-adv-x="1251" d="M122 422q-1 16 -1 32q0 145 74 320q27 60 66.5 117.5t101.5 117t135.5 103.5t173 72t209.5 28q63 0 116 -8t90 -21.5t66.5 -31.5t46.5 -38.5t30 -41.5t15.5 -41t5 -38t-1.5 -31q-12 -68 -68.5 -119t-121.5 -51q-66 0 -105 50q-29 38 -29 88q0 15 3 32q5 37 26 71 q-33 9 -64 9q-36 0 -69 -11q-63 -23 -107.5 -72t-81 -118.5t-57.5 -136t-32 -130.5q-11 -59 -12 -111v-7q0 -48 13 -97q13 -52 42.5 -89.5t85.5 -61.5t135 -25l53 299q1 9 9.5 16t17.5 7h368q9 0 15 -7q4 -5 4 -12v-4l-80 -448q-14 -82 -52.5 -150.5t-89.5 -113.5 t-109.5 -78t-117.5 -49.5t-107 -22.5q-30 -4 -54 -4q-17 0 -31 2q-132 14 -187 87q-38 51 -38 115q0 28 8 60q15 69 57 127q-158 40 -250 149.5t-101 266.5zM584 -59q-6 -17 -6 -32q0 -22 12 -40q17 -26 47 -26q6 0 12 1q38 6 73.5 43.5t49.5 94.5l16 98q-87 -16 -137 -54 t-67 -85z"/>
<glyph unicode="H" horiz-adv-x="1275" d="M115 82l157 903q3 15 -7 17.5t-19 -1.5q-10 -3 -33 -8q-8 -3 -13 1.5t-5 9.5q-2 3 -1.5 44.5t3.5 57.5q0 3 1 5.5t1.5 3.5t2.5 3t3 2.5l4 2t4 1.5q151 56 291 56q163 -4 194 -54q10 -10 4 -51l-75 -432h286l80 453q7 41 19 54q21 20 67 24q51 4 113 6h19q53 0 107 -12 q64 -14 81 -42q5 -6 5 -22q0 -12 -3 -29l-178 -1012q-3 -20 -5 -27t-10.5 -21.5t-25.5 -21t-45 -9.5q-51 -3 -114 -5h-16l-110 11q-63 14 -82 43q-7 11 0 49l72 412h-287l-76 -431q-3 -19 -5.5 -27t-11 -21.5t-25.5 -20.5t-44 -10q-51 -3 -114 -5h-16q-56 -1 -110 11 q-62 14 -81 43q-5 6 -5 21q0 11 3 28z"/>
<glyph unicode="I" horiz-adv-x="620" d="M119 33q-4 6 -3.5 18t3.5 31l178 1014q7 41 19 54q21 20 67 24q51 4 113 6h19q53 0 106 -12q63 -14 81 -42q5 -7 6 -24q0 -11 -3 -27l-179 -1012q-3 -20 -5 -27t-10.5 -21.5t-25.5 -21t-45 -9.5q-51 -3 -114 -5h-16q-56 -1 -110 11q-62 14 -81 43z"/>
<glyph unicode="J" horiz-adv-x="563" d="M-309 -344q28 124 129 200t260 95l182 1034q3 15 -7.5 17.5t-18.5 -1.5q-11 -3 -33 -8q-19 -5 -19 11q-2 4 -2 44.5t2 57.5l2 6t3.5 4.5t4 2.5t5 3t4.5 2q149 56 291 56q164 -4 194 -54q5 -6 5 -22q0 -12 -3 -29l-223 -1263q-14 -82 -52.5 -150.5t-89.5 -113.5 t-109.5 -78.5t-117 -50t-106.5 -23.5q-31 -4 -55 -4q-16 0 -29 2q-131 14 -186 88q-38 52 -38 117q0 27 7 57zM-141 -283q-6 -16 -6 -30q0 -21 13 -39q18 -26 48 -26q6 0 12 1q37 5 72 41.5t49 93.5l16 101q-158 -32 -204 -142z"/>
<glyph unicode="K" horiz-adv-x="1331" d="M115 33q-4 6 -3.5 18t3.5 31l157 903q3 15 -8 17.5t-20 -1.5t-31 -8q-18 -5 -18 11q-1 4 -1 44.5t1 57.5q2 10 15 16q2 1 3 2q149 56 291 56q164 -4 194 -54q8 -11 2 -51l-67 -387q56 13 108.5 32t103 45.5t87.5 57.5t62 70q24 39 26 83q0 3 1 5q0 41 -20 88 q-4 11 -0.5 18.5t9.5 10.5l6 4q184 90 194 94q7 3 13 3q12 0 18 -13q53 -109 54 -200q0 -26 -5 -50q-11 -57 -44.5 -107.5t-79 -87t-106 -67t-117.5 -50t-120 -34.5q1 -4 12 -37t17 -50t20 -54t27 -60t31.5 -55.5t38.5 -53t44 -40.5t53 -29.5t60 -9.5q132 0 256 112q4 2 9 2 q8 0 8 -10l-17 -90q0 -2 -4 -6q-22 -31 -38 -52.5t-52 -60.5t-70 -65t-84 -50t-102 -32q-29 -4 -56 -4q-30 0 -56 5q-52 10 -89 31.5t-68 60.5t-50.5 75.5t-34.5 90.5t-23 91t-13.5 91.5t-6.5 78t-3 63.5v8.5t-0.5 7.5t-0.5 7l2 2q-4 -1 -12.5 -2t-12.5 -2l-2 -10l-84 -480 q-7 -41 -20 -55q-20 -19 -64 -24q-51 -3 -114 -5h-16l-110 11q-63 14 -83 43z"/>
<glyph unicode="L" horiz-adv-x="1040" d="M115 82l157 903q3 15 -7 17.5t-19 -1.5q-10 -3 -33 -8q-8 -3 -13 1.5t-5 9.5q-1 4 -1 44.5t1 57.5q2 10 15 16q2 1 3 2q149 56 291 56q164 -4 194 -54q10 -10 4 -51l-153 -868q238 14 512 14q7 0 11 -5q3 -3 4 -8q0 -2 -1 -5l-33 -183q-4 -18 -20 -18q-56 0 -305.5 -1 t-478.5 -1h-50q-51 0 -71 33q-5 6 -5 21q0 11 3 28z"/>
<glyph unicode="M" horiz-adv-x="1959" d="M115 82l141 809q3 18 6 27t11 23t25.5 21t43.5 9q62 6 115 6q76 0 133 -12q-29 38 -64 59q-35 20 -66 26q-18 3 -38 4q-16 0 -32 -2q-38 -4 -64 -12t-61 -20t-50 -16q-8 -3 -13 1.5t-5 10.5q-2 2 -1.5 44t3.5 56q0 13 16 21q186 71 295 71q66 0 118.5 -11.5t89.5 -30.5 t65 -49t45.5 -61.5t31.5 -74t22 -79.5t17 -85l6 -33l76 -413l481 792q25 33 49 44t80 12h9q70 1 163 -27q99 -30 127 -74q6 -12 0 -51l-129 -739q-5 -25 -5 -44q0 -67 56 -67q35 0 92.5 29.5t106.5 66.5q2 2 8 2q9 0 9 -10l-17 -90q0 -2 -4 -6q-111 -109 -232 -165t-237 -56 q-58 0 -100 20t-63 51t-31 75q-8 38 -8 73v11q2 42 10 87l81 467l-378 -622q-11 -23 -27 -23q-44 -4 -86 -4t-84 4q-7 0 -11 4t-5.5 7.5t-4.5 11.5l-159 634q-4 8 -8 23.5t-5 17.5l-135 -762q-3 -19 -5.5 -27t-11 -21.5t-25.5 -20.5t-44 -10q-51 -3 -114 -5h-16 q-56 -1 -110 11q-62 14 -81 43q-5 6 -5 21q0 11 3 28z"/>
<glyph unicode="N" horiz-adv-x="1280" d="M115 33q-4 6 -3.5 18t3.5 31l157 903q3 15 -8 17.5t-20 -1.5t-31 -8q-18 -5 -18 11q-1 4 -1 44.5t1 57.5q2 10 15 16q2 1 3 2q149 56 289 56q28 0 98 -9q44 -7 47 -38q13 -91 35 -166q65 -252 203 -498l110 627q3 19 5.5 27t11 22t25.5 20.5t44 8.5q50 4 113 6h20 l106 -12q63 -14 81 -42q6 -6 6 -25q0 -11 -2 -26l-178 -1012q-3 -19 -5.5 -27t-11 -21.5t-25.5 -20.5t-44 -10q-66 -4 -129 -4q-56 0 -111 63q-177 205 -297 481l-82 -461q-3 -20 -5 -27t-10.5 -21.5t-25.5 -21t-45 -9.5q-50 -3 -113 -5h-16l-110 11q-63 14 -82 43z"/>
<glyph unicode="O" horiz-adv-x="1294" d="M122 436q-1 15 -1 30q0 64 14 132q23 131 78 240t142.5 194t216.5 132.5t288 47.5q107 0 193 -22t145.5 -62t101 -95.5t59.5 -124t22 -146.5q1 -15 1 -31q0 -65 -14 -133q-18 -103 -56 -193.5t-99.5 -168t-142.5 -132.5t-190 -86.5t-237 -31.5q-107 0 -193 22 t-145.5 61.5t-101 95.5t-59.5 124.5t-22 146.5zM540 269q24 -105 136 -105q111 0 168.5 99.5t99.5 334.5q28 153 28 249q0 93 -34 139t-111 46q-111 0 -168.5 -99t-99.5 -335q-28 -144 -29 -239q1 -52 10 -90z"/>
<glyph unicode="P" horiz-adv-x="1146" d="M84 33q-4 6 -4 18t4 31l135 776q3 19 5.5 27t11 22t25.5 21t44 10q61 4 110 4q177 0 212 -53q8 -14 2 -49l-45 -250q156 37 228.5 94t86.5 139q4 21 4 39q0 29 -9 53q-14 39 -49 60t-78.5 33.5t-103.5 12.5t-111.5 -3t-115.5 -13t-103 -17.5t-85 -16.5q-20 -4 -29 -6 q-15 -4 -20 10v102q2 15 20 19q398 118 668 118q80 0 143.5 -12.5t105 -32.5t71 -48t44 -56.5t21.5 -60.5q7 -30 7 -54q0 -25 -5 -55q-11 -59 -37 -112t-80 -106.5t-131 -95.5t-196 -75.5t-269 -50.5l-69 -392q-3 -20 -5 -27t-10.5 -21.5t-25.5 -21t-45 -9.5q-50 -3 -113 -5 h-16q-55 -1 -111 11q-64 14 -82 43z"/>
<glyph unicode="Q" horiz-adv-x="1302" d="M45 -150q6 36 27 57t54 25q26 4 50 4h16q32 -2 75.5 -14t69 -21t60.5 -22q70 14 132 42t108.5 61t87.5 81t68.5 89.5t52.5 99t39 97t28 96t19.5 83t13.5 70.5q28 153 28 249q0 95 -34 139q-35 46 -111 46q-112 0 -170.5 -99.5t-99.5 -334.5q-28 -141 -28 -236 q0 -42 6 -76q18 -106 110 -120q26 -5 12 -29q-22 -38 -62 -78.5t-56 -48.5q-22 -17 -45 -12q-116 21 -197.5 76t-121.5 134t-53 179q-4 35 -4 72q0 67 15 139q23 131 78 240t143 194t217.5 132.5t288.5 47.5q106 0 192 -22t145.5 -62t101.5 -95.5t60 -124t22 -146.5 q1 -15 1 -31q0 -64 -14 -133q-15 -85 -46 -168t-87.5 -172t-132 -165t-184.5 -144t-240 -111l-2 -2h39h59q8 -1 17 -1q41 0 85 6q54 7 104 19.5t101.5 40.5t94.5 68q11 11 16 6q26 -7 61 -24q8 -6 0 -14q-59 -81 -121.5 -137.5t-117 -87t-116.5 -42.5q-57 -10 -102 -10h-8 q-47 1 -108.5 15.5t-101.5 29t-100 37t-93 33.5l-36 -6q-135 -24 -200 -24q-15 0 -26 1q-82 10 -82 79q0 12 2 25z"/>
<glyph unicode="R" horiz-adv-x="1306" d="M102 82l136 776q3 18 6 27t11 22.5t25.5 20.5t43.5 10q59 4 107 4q179 0 214 -53q10 -13 4 -49l-33 -178q148 8 230 68q76 56 76 151v14q-8 123 -256 123q-162 0 -426 -53q-16 -4 -21 10q0 1 -0.5 15t-1 29.5t0 32.5t1.5 25q3 15 21 19q397 118 654 118h13 q80 0 143.5 -12.5t105 -32.5t71 -48t44 -56.5t21.5 -60.5t6.5 -57.5t-4.5 -51.5q-7 -38 -37 -83t-85 -94.5t-150.5 -91.5t-214.5 -63q1 -3 12 -37t17 -48.5t20 -50.5t25.5 -55.5t30 -50.5t37.5 -48.5t42.5 -36t51.5 -27t59 -8.5q129 0 256 112q4 2 8 2q8 0 8 -10l-16 -90 q0 -2 -4 -6q-22 -31 -38 -52.5t-52 -60.5t-70.5 -65t-85 -50t-102.5 -32q-28 -4 -54 -4q-32 0 -61 6q-53 11 -90.5 33.5t-68.5 63.5t-50 78.5t-34 93.5t-22 93.5t-12 92.5t-6 77t-2 60h-10l-84 -480q-3 -19 -5.5 -27t-11 -21.5t-25.5 -20.5t-44 -10q-51 -3 -114 -5h-16 l-110 11q-63 14 -82 43q-5 8 -5 23q0 11 3 26z"/>
<glyph unicode="S" horiz-adv-x="1097" d="M70 229l16 90q4 11 12 11q6 0 6 -2q87 -70 188.5 -112t199.5 -42q83 0 141.5 26t68.5 83q1 7 1 14q-1 25 -17 47q-22 30 -74 66q-20 14 -83.5 48t-114 67t-104.5 81q-53 46 -78 108q-17 42 -17 87q0 22 4 45q14 79 50.5 142t85 104.5t111 69t126.5 39t133 11.5 q269 0 410 -122q21 -16 37 -48q12 -25 11 -55q0 -10 -1 -20q-4 -20 -14 -42.5t-29 -49t-53 -43.5t-76 -17q-54 0 -82 33q-26 31 -25 71v6q2 44 25 81q-75 32 -140 32h-10q-70 -2 -118.5 -30t-55.5 -68q-3 -21 1.5 -40t11 -31.5t26 -29.5t30.5 -25t40 -27t41 -27 q18 -12 65.5 -40t86.5 -51.5t86.5 -62.5t77.5 -78.5t46 -94.5q10 -34 10 -69q0 -22 -4 -45q-19 -110 -113.5 -192t-216 -120t-247.5 -38q-167 0 -296 79t-177 175q0 1 -1 3t-1 3z"/>
<glyph unicode="T" horiz-adv-x="1187" d="M190 967v16.5v42.5q1 56 3 76q2 14 20 18q223 28 552 42t611 14q7 0 12 -6q4 -4 4 -9q0 -2 -1 -4l-33 -182q0 -7 -6.5 -13t-14.5 -6h-360l-158 -893q-3 -20 -5 -27t-10.5 -21.5t-25.5 -21t-45 -9.5q-51 -3 -114 -5h-16q-55 -1 -109 11q-62 14 -82 43q-7 11 0 49l153 872 h-356q-9 -1 -14 3t-5 10z"/>
<glyph unicode="U" horiz-adv-x="1261" d="M150 422q2 74 16 160l90 514q3 19 5.5 27t11 22t25.5 20.5t44 8.5q50 4 113 6h20l106 -12q63 -14 81 -42q10 -10 4 -51l-86 -493q-11 -62 -18 -103.5t-13 -87.5t-6.5 -76t1.5 -60t10.5 -48t21.5 -33t32.5 -21t46.5 -6q36 0 63 11t49 38t37.5 58t30.5 86t26 107t26 135 l86 493q6 37 20 51q29 28 97 42q57 11 110 12h20q62 -2 113 -6q33 -3 48 -15q14 -11 14 -26q0 -5 -4 -37l-91 -514q-19 -103 -51 -190.5t-87 -166t-128 -133.5t-177.5 -87t-231.5 -32q-107 0 -189.5 22t-136.5 63t-89 96q-34 54 -48 124q-12 63 -13 129q1 8 1 15z"/>
<glyph unicode="V" horiz-adv-x="1247" d="M190 1073q9 26 54 47q42 21 111 39.5t136 24.5q19 2 35 2q42 0 68 -12q14 -5 24 -39l177 -762l329 577q95 168 105 252q1 14 14 22q11 7 19 7h4q3 0 27 -2t40.5 -4.5t39 -8.5t38.5 -17.5t23 -27.5q8 -18 8 -41q0 -93 -129 -278q-8 -10 -53.5 -81.5t-119 -190 t-139.5 -228.5q-178 -291 -194 -323q-10 -13 -23 -17q-21 -4 -86.5 -11t-132.5 -13l-67 -6q-8 0 -13 3t-6 5.5t-2 9.5l-280 1018q-8 27 -8 43q0 7 1 12z"/>
<glyph unicode="W" horiz-adv-x="1900" d="M190 1073q9 26 54 47q42 21 111 39.5t136 24.5q19 2 35 2q42 0 68 -12q14 -5 24 -39l179 -762l252 475q120 229 137 264q29 53 74 53q20 0 38.5 -15.5t24.5 -45.5l129 -731l332 577q94 166 104 252q1 14 14 22q11 7 19 7h4q1 0 16.5 -1t23 -1.5t24.5 -2.5t28 -5.5 t24.5 -8t23.5 -12t16 -16.5q15 -21 15 -53q0 -93 -130 -279q-29 -38 -311 -500q-189 -315 -193 -323q-10 -12 -24 -17q-21 -4 -87 -11t-132.5 -13t-67.5 -6q-3 0 -6 0.5t-4.5 1.5l-3 2t-2.5 3l-1.5 3l-2 4t-1.5 4l-94 414q-6 -9 -12.5 -19.5t-13.5 -23t-11 -19.5 q-167 -273 -192 -323q-9 -11 -23 -17q-21 -4 -88 -11t-131 -13t-67 -6q-8 0 -13 3t-6 5.5t-2 9.5l-280 1018q-8 27 -8 43q0 7 1 12z"/>
<glyph unicode="X" horiz-adv-x="1146" d="M48 14q-10 18 -10 40q0 111 247 313q9 7 33.5 26.5t67 53.5t83.5 67l-272 502q-6 15 -8 24.5t0 24t16.5 28t40.5 25.5q69 34 188 57q58 11 97 11q40 0 59 -12q18 -14 31 -41l172 -320l180 156q60 52 119 120t84 119q6 17 21 22q6 2 11 2q8 0 13 -5q52 -24 63 -31 q45 -31 45 -79q0 -112 -248 -314q-92 -72 -196 -158l268 -498q9 -20 11 -34t-11 -33.5t-47 -34.5q-69 -33 -182 -55q-56 -11 -96 -11q-41 0 -66 11q-20 13 -31 41l-172 315l-166 -143q-59 -50 -117.5 -119t-82.5 -121q-5 -17 -21 -21q-7 -2 -13 -2q-8 0 -14 3q-4 2 -14 6 q-65 30 -83 65z"/>
<glyph unicode="Y" horiz-adv-x="1155" d="M189 1040q-1 5 -1 11t1 13q2 15 15.5 28.5t39.5 25.5q69 34 189 57q59 11 98 11q40 0 59 -12q17 -14 28 -41l207 -381l183 194q55 60 104.5 133.5t65.5 126.5q4 16 20 22q9 5 17 5q5 0 10 -2q57 -18 63 -21q61 -28 61 -86q0 -109 -210 -323q-11 -11 -43.5 -44.5 t-96.5 -98t-125 -126.5l-81 -469q-3 -19 -5.5 -27t-11 -21.5t-25.5 -20.5t-44 -10q-51 -3 -114 -5h-16l-110 11q-63 14 -82 43q-9 11 -2 49l78 444l-264 490q-6 15 -8 24z"/>
<glyph unicode="Z" horiz-adv-x="1097" d="M16 90q6 16 11 23.5t18 23.5l651 817h-415q-9 -1 -14 3t-5 10q-1 4 -0.5 60.5t2.5 74.5q2 13 21 18q443 56 960 56q8 0 13 -6q3 -4 3 -8q0 -2 -1 -5q-6 -14 -13 -28.5t-16 -29.5t-15.5 -26t-18 -28t-17 -25t-19 -26.5t-17.5 -23.5t-19 -24.5t-17 -21.5l-563 -713l262 14 q175 9 264 49q13 7 24 0.5t13 -18.5q0 -4 4.5 -25t6 -38.5t2 -40.5t-6.5 -44.5t-20 -37.5q-66 -76 -268 -76q-30 0 -64 2h-19q-32 0 -118 -1q-129 -2 -260.5 -4.5t-133.5 -2.5q-130 0 -188 43q-18 15 -25 29q-4 8 -4 17q0 6 2 13z"/>
<glyph unicode="[" horiz-adv-x="565" d="M37 -219l8 131l223 1268l37 129q79 -6 205 -6q130 0 209 6q6 0 10 -4t2 -9l-18 -104q0 -4 -5.5 -8t-11.5 -4h-159l-224 -1268h160q12 0 12 -14l-18 -103q-3 -14 -16 -14q-106 8 -209 8q-99 0 -205 -8z"/>
<glyph unicode="\" horiz-adv-x="933" d="M274 1206q-4 21 15 27q5 2 215 72q9 3 17 -1.5t11 -13.5l336 -1290q2 -8 -2 -17t-12 -12q-4 -2 -54.5 -18.5t-104.5 -34t-56 -18.5q-22 -7 -29 16z"/>
<glyph unicode="]" horiz-adv-x="565" d="M25 -205l18 103q0 6 5 10t11 4h160l223 1268h-159q-13 0 -13 12l19 104q4 13 16 13q79 -6 209 -6q126 0 205 6l-8 -129l-224 -1268l-36 -131q-106 8 -205 8q-103 0 -209 -8q-15 0 -12 14z"/>
<glyph unicode="^" horiz-adv-x="878" d="M185.5 698q-2.5 7 2.5 13l338 395q8 16 27 16h166q10 0 22 -16l197 -395q3 -6 -0.5 -13t-11.5 -10l-140 -61q-20 -8 -24 6l-158 313l-266 -313q-13 -13 -31 -6l-112 61q-7 3 -9.5 10z"/>
<glyph unicode="_" horiz-adv-x="716" d="M2 -104h715v-160h-715v160z"/>
<glyph unicode="`" horiz-adv-x="753" d="M280 1147.5q-20 58.5 11 109.5q30 53 92.5 75.5t114.5 -7.5l374 -244q0 -1 3.5 -4t3.5 -5t-2 -7l-41 -76q-6 -8 -19 -4l-459 92q-58 12 -78 70.5z"/>
<glyph unicode="a" horiz-adv-x="1298" d="M98 391q39 220 227 348.5t523 128.5q117 0 309 -30q12 -2 20 -11t7 -22l-84 -477q-5 -25 -5 -44q0 -67 56 -67q35 0 92.5 29.5t106.5 66.5q2 2 8 2q8 0 8 -10l-16 -90q0 -2 -4 -6q-111 -109 -233 -165t-239 -56q-189 0 -198 205q-10 -10 -35 -39.5t-41.5 -46.5 t-47.5 -42.5t-59.5 -40t-70 -25.5t-86.5 -11q-146 0 -209 106q-41 69 -41 173q0 57 12 124zM462 379.5q0 -32.5 5 -53.5t15 -36.5t19.5 -23t22 -12t20.5 -5.5t17 -1q55 0 123 57l74 424q-240 0 -289 -276q-7 -41 -7 -73.5z"/>
<glyph unicode="b" horiz-adv-x="1118" d="M37 203l172 983q6 34 20 51q43 42 161 72q110 28 179 28h9q34 -1 49 -14t12.5 -30.5t-4.5 -35.5l-100 -567q210 199 356 199q116 0 184.5 -57.5t82.5 -155.5q4 -32 4 -66q0 -72 -19 -159q-9 -40 -23.5 -79.5t-41 -87t-60 -88.5t-84.5 -80.5t-111.5 -67.5t-143 -45 t-177.5 -17q-378 0 -463 200q-3 6 -3 11q0 3 1 6zM440 152q9 -3 19.5 -3t23.5 3q47 12 86.5 37.5t65.5 57t47 69t31 74t17 72.5q6 31 6 55v7q-1 27 -3 45q-16 71 -70 71q-56 0 -151 -77z"/>
<glyph unicode="c" horiz-adv-x="1050" d="M37 262q-3 26 -3 53q0 63 18 135q26 103 108 193q100 109 242.5 166t283.5 57q64 0 118 -8.5t89.5 -23t64.5 -34t43.5 -40t26.5 -41.5t13.5 -39.5t4 -33.5t-1.5 -23q-12 -69 -67 -116.5t-121 -47.5q-63 0 -96.5 23.5t-35.5 55.5t9 62.5t29 48.5q28 28 -6 49q-16 13 -51 2 q-61 -15 -108 -51.5t-74.5 -86t-43 -94.5t-24.5 -95q-7 -38 -6 -70q-1 -84 45 -126q40 -37 125 -37q48 0 110 12q84 16 170 55t205 106q2 2 6 2t6.5 -3t1.5 -7l-16 -90q0 -4 -2 -6q-158 -124 -306 -176q-140 -49 -297 -49h-18q-403 13 -442 278z"/>
<glyph unicode="d" horiz-adv-x="1298" d="M98 391q37 209 208 335.5t476 139.5l56 320q6 34 20 51q44 42 160 72q109 28 179 28h9q34 -1 49 -14t13 -30.5t-4 -35.5l-164 -929q-4 -23 -4 -41q0 -70 55 -70q67 0 199 96q2 2 6 2q9 0 9 -6q0 -2 -1 -4l-14 -90q0 -2 -4 -6q-111 -109 -232 -165t-237 -56 q-192 0 -201 205q-10 -11 -35 -39.5t-41 -46.5t-46.5 -43t-59 -39.5t-70.5 -25.5t-88 -11q-144 0 -208 106q-42 69 -41 176q0 55 11 121zM464 380v-6q0 -29 4 -48q5 -21 14.5 -36.5t19 -23t22 -12t20.5 -5.5t17 -1q55 0 123 57l74 424q-238 0 -287 -276q-7 -41 -7 -73z"/>
<glyph unicode="e" horiz-adv-x="1052" d="M37 262q-3 25 -3 52q0 64 18 136q26 104 108 193q100 109 242.5 166t283.5 57q80 0 142.5 -12.5t100 -34t63 -46t36 -53t14 -49t2.5 -40.5q-5 -75 -43.5 -135.5t-96 -98.5t-132 -64t-147 -36.5t-144.5 -11.5q-8 0 -8 10q0 42 8 74q3 6 11 10q103 18 177 53.5t81 77.5 q1 8 1 15q0 31 -21 52.5t-58 21.5q-8 0 -17 -1q-155 -18 -198 -225q-9 -43 -9 -78q0 -78 45 -118q41 -37 127 -37q49 0 111 12q82 16 168 55t205 106q2 2 6 2q5 0 8 -3t2 -7l-16 -90q0 -2 -4 -6q-158 -124 -306 -176q-140 -49 -297 -49h-18q-403 13 -442 278z"/>
<glyph unicode="f" horiz-adv-x="700" d="M-33 -180l197 1112q8 45 25 92.5t56 107.5t92 105.5t140 77t193 31.5q138 0 197 -45t59 -117q0 -78 -77.5 -170t-189.5 -170h123q5 0 8.5 -4.5t2.5 -10.5l-19 -110q-4 -12 -16 -12h-221l-144 -813q-7 -41 -20 -52q-42 -43 -158 -72q-109 -28 -180 -28h-10q-34 1 -49 14 q-13 11 -13 25q0 1 4 39zM528 962q2 -65 31 -118q73 62 146 164q72 102 72 154q0 21 -12 33q-15 15 -48 15q-60 0 -105.5 -37t-65.5 -92q-18 -50 -18 -108v-11z"/>
<glyph unicode="g" horiz-adv-x="1175" d="M104 -256q12 57 45.5 98.5t72 62.5t88 32.5t83.5 13.5q17 1 34 1l34 -1q49 -3 119.5 -13.5t109.5 -15.5q7 -1 14 -1q29 0 47 15q22 17 26.5 47t-1 63t-18.5 63q-94 -23 -185 -23q-143 0 -255.5 52.5t-167.5 143.5q-40 67 -40 143q0 26 5 54q19 107 105.5 197.5t217.5 143 t275 52.5q119 0 227 -41q-1 15 -1 28q0 68 17 112q18 47 62 65q30 11 61 11q16 0 33 -3q48 -9 93.5 -31t68.5 -50q6 -6 6 -11t-4 -10l-41 -43q-3 -4 -9 -5.5t-9 1.5q-31 21 -57.5 19t-50 -24t-40 -50.5t-27.5 -61.5q17 -17 23 -20q111 -95 111 -225q0 -26 -5 -54 q-18 -103 -98 -189.5t-201 -139.5q147 -134 147 -298q0 -30 -5 -61q-8 -59 -56 -111.5t-124 -77.5q-34 -11 -72 -11q-48 0 -103 18q-5 1 -52 16.5t-76.5 24.5t-67.5 18.5t-55 9.5q-37 0 -55 -26q-14 -21 -14 -49q0 -8 1 -17q5 -38 29 -73q42 -55 80 -91q11 -11 -3 -18 l-73 -66q-10 -4 -18 -4h-5q-156 48 -223 205q-31 65 -31 134q0 35 8 71zM514 372q-1 -17 -1 -35q0 -24 3 -48q5 -40 25 -60t55 -20q66 0 102.5 70.5t57.5 199.5q11 62 14 107q2 19 2 37q0 24 -2 47q-5 39 -25 59.5t-55 20.5t-62 -20.5t-45.5 -60t-31 -84t-23.5 -106.5 q-10 -63 -14 -107z"/>
<glyph unicode="h" horiz-adv-x="1337" d="M10 49l201 1137q6 37 18 51q43 42 161 72q110 28 179 28h9q33 -1 48 -12.5t13.5 -27.5t-3.5 -33q-1 -5 -1 -7l-98 -561q129 96 229.5 144.5t200.5 48.5q198 0 199 -233q0 -25 -3 -54l-24 -272q-2 -17 -1 -31q0 -82 52 -82q35 0 92.5 29.5t106.5 66.5q2 2 6 2q10 0 10 -10 l-16 -90q0 -1 -5 -6q-226 -221 -469 -221q-199 0 -199 223q0 29 3 61l26 299q1 6 1 12q0 33 -21 46q-14 9 -33 9q-14 0 -32 -5q-40 -11 -75.5 -27t-70.5 -37l-78 -446q-10 -41 -20 -51q-44 -43 -160 -73q-109 -28 -179 -28h-9q-35 1 -50 13q-13 11 -13 25z"/>
<glyph unicode="i" horiz-adv-x="679" d="M57 218q1 42 9 87l71 406q5 32 21 51q43 42 159 72q109 28 180 28h9q34 -1 49 -13.5t12.5 -30t-4.5 -36.5l-80 -454q-4 -23 -4 -42q0 -69 56 -69q66 0 198 96q2 2 6 2q10 0 10 -6q0 -2 -1 -4l-15 -90q-1 -1 -2 -3t-2 -3q-111 -109 -232 -165t-237 -56q-58 0 -99.5 20 t-63 51.5t-31.5 74.5q-9 39 -9 77v7zM199 1122q0 75 65.5 128t157.5 53t157.5 -53t65.5 -128q0 -74 -65.5 -127t-157.5 -53t-157.5 53t-65.5 127z"/>
<glyph unicode="j" horiz-adv-x="489" d="M-403 -344q29 124 130 200t261 95l135 760q6 37 20 51q42 43 159 72q109 28 180 28h10q34 -1 49 -13.5t12.5 -30t-4.5 -36.5l-172 -970q-15 -82 -53.5 -150.5t-90 -113.5t-110 -78.5t-117.5 -50t-108 -23.5q-30 -4 -55 -4q-15 0 -29 2q-130 14 -185 88q-39 52 -39 117 q0 28 7 57zM-233 -283q-6 -16 -6 -31q0 -21 11 -38q18 -26 48 -26q6 0 12 1q37 5 73 41.5t50 93.5l18 101q-88 -17 -138.5 -56t-67.5 -86zM178 1122q0 75 65.5 128t157.5 53t158 -53t66 -128q0 -74 -66 -127t-158 -53t-157.5 53t-65.5 127z"/>
<glyph unicode="k" horiz-adv-x="1277" d="M10 49l201 1137q6 37 18 51q43 42 161 72q110 28 179 28h9q33 -1 48 -12.5t13.5 -27.5t-3.5 -33q-1 -5 -1 -7l-98 -561q211 193 430 193q62 0 107 -14.5t65 -37t32 -50t10 -53.5t-3 -48q-7 -49 -31.5 -95t-56.5 -77q-111 -108 -259 -119q-24 -2 -47 -2q-66 0 -125 13 q25 -60 99 -106q76 -46 170 -66q47 -10 98 -10q52 0 107 10q111 20 198 83q2 2 6 2q10 0 10 -6q0 -2 -1 -4l-17 -90q0 -4 -2 -6q-110 -108 -239.5 -166.5t-247.5 -58.5q-91 0 -160 43t-106 113q-36 70 -51 150q-10 52 -10 106q0 29 3 57q5 35 8 47q3 14 14.5 23.5t26.5 9.5 q5 0 15 -5q57 -28 95 -28q58 0 70 67q6 36 -8.5 52.5t-44.5 13.5t-62 -13.5t-67 -27.5q-25 -11 -49 -27l-78 -446q-10 -41 -20 -51q-44 -43 -160 -73q-109 -28 -179 -28h-9q-35 1 -50 13q-13 11 -13 25z"/>
<glyph unicode="l" horiz-adv-x="669" d="M46 218q1 42 9 87l156 881q6 37 18 51q43 42 161 72q110 28 179 28h9q33 -1 48 -12.5t13.5 -27.5t-3.5 -33q-1 -5 -1 -7l-164 -929q-4 -24 -4 -42q0 -69 55 -69q35 0 92.5 29.5t106.5 66.5q2 2 8 2q8 0 8 -10l-16 -90q0 -2 -4 -6q-226 -221 -469 -221q-58 0 -99.5 20 t-63 51.5t-31.5 74.5q-9 39 -8 77v7z"/>
<glyph unicode="m" horiz-adv-x="1925" d="M10 49l129 733q3 20 5.5 28.5t11 23.5t25.5 21t44 7h10q71 0 170 -28q106 -30 134 -72q8 -15 2 -51l-4 -15q131 96 231.5 144.5t198.5 48.5q167 0 172 -203q73 54 113 82t97 61t106 46.5t101 13.5q199 0 199 -234q0 -25 -2 -53l-24 -272q-2 -17 -1 -31q0 -82 52 -82 q66 0 198 96q2 2 7 2q9 0 9 -6q0 -2 -1 -4l-15 -90q0 -2 -4 -6q-111 -109 -232 -165t-237 -56q-199 0 -199 223q0 29 3 61l26 299q4 43 -14.5 58.5t-56.5 2.5t-64 -26t-67 -37l-80 -446q-6 -39 -21 -51q-42 -43 -158 -73q-109 -28 -181 -28h-9q-34 0 -49 12.5t-12.5 30 t4.5 35.5l92 520q2 13 2 23q0 42 -41 43q-6 0 -12 -1q-54 -6 -154 -65l-78 -446q-6 -40 -20 -51q-42 -43 -158 -73q-109 -28 -181 -28h-9q-34 1 -49 13q-13 11 -13 25q0 2 4 40z"/>
<glyph unicode="n" horiz-adv-x="1335" d="M10 49l129 733q3 20 5.5 28.5t10.5 23.5t25 21t43 7h10q71 0 170 -28q106 -30 134 -72q8 -15 2 -51l-2 -15q129 96 229 144.5t199 48.5q200 0 201 -234q0 -25 -3 -53l-24 -272q-2 -17 -2 -31q0 -82 53 -82q67 0 199 96q2 2 6 2q9 0 9 -6q0 -2 -1 -4l-14 -90q0 -1 -5 -6 q-111 -109 -232 -165t-237 -56q-46 0 -81 12.5t-56 29.5t-35 46t-20 51t-7.5 55.5t-1 49t2.5 40.5l28 299q1 6 1 12q0 33 -21 46q-14 9 -33 9q-14 0 -32 -5q-40 -11 -75.5 -27t-70.5 -37l-80 -446q-6 -40 -20 -51q-42 -43 -158 -73q-109 -28 -179 -28h-9q-35 1 -50 13 q-13 11 -13 25z"/>
<glyph unicode="o" horiz-adv-x="1093" d="M43 424q34 195 188.5 318.5t417.5 123.5q135 0 232.5 -34.5t148.5 -95.5q52 -62 70 -140q9 -40 8 -83q0 -43 -8 -89q-17 -94 -61.5 -172.5t-117.5 -139.5t-182.5 -95.5t-244.5 -34.5q-134 0 -231.5 34.5t-148.5 95.5q-52 62 -70 140q-9 40 -9 84q0 42 8 88zM432 211 q2 -109 82 -109q28 0 50.5 11.5t39 36.5t28 49t21.5 65t16 68.5t14 74.5q1 5 1.5 9t1.5 8q26 144 26 204v11q-4 104 -83 104q-40 0 -69 -23t-48 -75t-27.5 -88.5t-21.5 -110.5q-3 -15 -4 -22q-27 -149 -27 -206v-7z"/>
<glyph unicode="p" horiz-adv-x="1097" d="M-72 -426l211 1208q3 19 6 28.5t11 23.5t25.5 20.5t43.5 7.5h10q71 0 169 -28q106 -29 133 -72q10 -15 4 -51l-4 -21q206 199 354 199q116 0 184.5 -57.5t82.5 -155.5q4 -31 4 -66q0 -73 -19 -159q-9 -40 -23.5 -79.5t-41 -87t-60 -88.5t-84.5 -80.5t-111.5 -67.5 t-143 -45t-177.5 -17q-30 0 -88 4l-62 -344q-6 -38 -20 -52q-43 -43 -158 -72q-109 -28 -179 -28h-9q-34 1 -49 14q-13 11 -13 25q0 1 4 41zM442 152q8 -3 18.5 -3t24.5 3q47 12 86.5 37.5t65.5 57t47 69t31 74t17 72.5q6 31 6 55v7q-1 27 -3 45q-17 72 -70 72 q-56 0 -151 -78z"/>
<glyph unicode="q" horiz-adv-x="1044" d="M37 391q39 220 226.5 348.5t524.5 128.5q120 0 308 -30q14 -2 21.5 -11t6.5 -22l-204 -1159q-6 -37 -21 -52q-43 -43 -159 -72q-108 -28 -179 -28h-10q-34 1 -49 13.5t-12.5 30t4.5 36.5l104 600q-64 -75 -94 -101q-99 -85 -230 -85q-144 0 -207 106q-41 69 -41 175 q0 56 11 122zM403 379.5q0 -32.5 5 -53.5t15 -36.5t19.5 -23t22 -12t20.5 -5.5t17 -1q53 0 121 57l73 424q-237 0 -286 -276q-7 -41 -7 -73.5z"/>
<glyph unicode="r" horiz-adv-x="765" d="M10 49l129 733q3 20 5.5 28.5t11 23.5t25.5 21t44 7h9q70 0 163 -28q99 -30 127 -72q8 -15 0 -60l-2 -16q81 76 179 130q87 48 160 49q9 0 18 -1q6 0 6 -7v-3q-14 -38 -103 -246q-12 -18 -24 -14q-30 10 -64 10q-14 0 -29 -2q-50 -6 -83 -16t-45 -17q-24 -15 -33 -57 l-68 -389q-6 -37 -20 -51q-44 -43 -160 -73q-109 -28 -179 -28h-9q-34 1 -49 13q-13 11 -13 25q0 2 4 40z"/>
<glyph unicode="s" horiz-adv-x="911" d="M-160 76v1v1q17 100 19 110t14 17q346 185 633 696q8 11 19 11q21 0 53 -38q2 -3 11 -11q301 -316 301 -555q0 -123 -81 -214q-22 -25 -44.5 -43.5t-60 -39t-91.5 -28.5q-29 -4 -61 -4q-28 0 -58 3q-89 8 -175 60.5t-145 152.5q-7 13 6 22q4 4 84 27q18 3 25 -6 q34 -51 75 -77t74 -26q56 0 83 45q20 34 20 93q0 20 -2 42q-7 91 -105 240q-254 -320 -584 -489q-11 -5 -10 10z"/>
<glyph unicode="t" horiz-adv-x="696" d="M37 719l20 110q4 15 17 15h119l45 102q4 8 18 29q50 44 130 73q75 27 136 27h8q35 -1 50 -13.5t12.5 -30t-4.5 -36.5l-27 -151h166q5 0 8 -4.5t2 -10.5l-20 -110q0 -4 -5 -8t-10 -4h-165l-66 -379q-4 -20 -4 -36q0 -31 14 -48q21 -27 54 -27q36 0 101 30.5t109 65.5 q4 2 11 2q8 0 8 -10l-16 -90q0 -1 -5 -6q-110 -108 -237 -164.5t-246 -56.5q-58 0 -101 19.5t-65.5 52t-35.5 74.5q-11 36 -11 73v11q2 44 8 87l70 402h-76q-12 0 -12 12z"/>
<glyph unicode="u" horiz-adv-x="1288" d="M43 214q1 30 6 58l62 344l20 121q6 34 21 49q42 43 158 74q109 29 181 29h9q34 -1 49 -14t12.5 -30.5t-4.5 -35.5l-90 -506q-7 -44 11.5 -59t57.5 -3t69.5 26.5t68.5 37.5l90 502q1 13 12 23t25 12l348 24h2q15 0 23.5 -10t5.5 -25l-88 -503q-5 -25 -5 -44q0 -67 56 -67 q66 0 198 96q2 2 7 2q9 0 9 -6q0 -2 -1 -4l-15 -90q-1 -1 -2 -3t-2 -3q-111 -109 -232 -165t-237 -56q-191 0 -200 205q-2 -2 -13.5 -11.5t-13.5 -11.5q-122 -95 -210 -139.5t-183 -44.5q-63 0 -106.5 23.5t-63.5 56.5q-20 32 -28 75q-8 38 -7 67v6z"/>
<glyph unicode="v" horiz-adv-x="1015" d="M133 744q0 11 4 18q5 8 17.5 19.5t33.5 21.5q68 34 186 56q57 11 99 11t66 -12q14 -7 24 -41l144 -459l163 246q40 61 72.5 131t38.5 117q1 14 13 22q9 7 19 7h5q58 -6 68 -9q66 -18 66 -83q0 -94 -136 -287q-81 -110 -246 -344q-84 -119 -92 -129q-10 -13 -23 -17 q-16 -3 -60.5 -8.5t-87 -9.5t-83 -8t-43.5 -4t-6 0.5t-4.5 1.5l-3 2t-2.5 3l-1.5 3l-2 4t-1.5 4l-219 700q-5 16 -6 20q-2 10 -2 24z"/>
<glyph unicode="w" horiz-adv-x="1579" d="M133 744q0 11 4 18q5 8 17.5 19.5t33.5 21.5q68 34 186 56q57 11 99 11t66 -12q14 -7 24 -41l144 -459q41 60 114 195t107 209q27 61 46.5 78.5t47.5 17.5q89 0 129 -125l117 -375l166 246q97 155 108 248q1 14 13 22q10 7 19 7h5q58 -6 70 -9q64 -18 64 -82 q0 -94 -136 -288q-81 -110 -246 -344q-84 -119 -90 -129q-10 -12 -24 -17q-21 -4 -84.5 -11t-125 -13t-63.5 -6q-8 0 -12.5 3t-5 5l-2.5 10l-80 276q-161 -237 -164 -247q-13 -13 -25 -17q-16 -3 -60.5 -8.5t-87 -9.5t-83 -8t-43.5 -4t-6 0.5t-4.5 1.5l-3 2t-2.5 3l-1.5 3 l-2 4t-1.5 4l-219 700q-5 16 -6 20q-2 10 -2 24z"/>
<glyph unicode="x" horiz-adv-x="880" d="M2 -30q-42 28 -42 72q0 100 220 280q2 2 86 71l-160 307q-10 19 -11.5 33.5t12 34t47.5 35.5q69 33 181 55q55 11 95 11q41 0 66 -11q21 -14 32 -41l115 -209l47 41q54 46 106 107t74 108q6 14 20 18q6 2 11 2q7 0 12 -3q48 -23 52 -26q44 -29 44 -73q0 -100 -221 -280 q-30 -24 -61 -49l160 -306q9 -20 11 -34t-11 -33.5t-47 -34.5q-69 -33 -182 -55q-56 -11 -96 -11q-41 0 -66 11q-20 13 -31 41l-115 207l-74 -64q-55 -49 -107 -109t-73 -106q-6 -14 -19 -18q-5 -2 -10 -2q-7 0 -12 4q-47 23 -53 27z"/>
<glyph unicode="y" horiz-adv-x="1134" d="M74 -256q12 57 45.5 98.5t72 62.5t87.5 32.5t83 13.5q17 1 34 1l34 -1q49 -3 119.5 -13.5t109.5 -15.5q37 -4 59.5 12t28 44.5t2 60.5t-15.5 61q-88 -20 -168 -20q-218 0 -349 115q-106 94 -106 220q0 28 5 58l45 264q6 35 20 49q43 43 160 74q110 29 179 29h9 q34 -1 49 -14t13 -30.5t-4 -35.5l-60 -336q-11 -64 -15 -107q-2 -23 -2 -45q0 -19 1 -38q4 -40 23.5 -60t54.5 -20q28 0 50.5 14.5t37.5 37t28.5 59.5t21.5 72.5t17 86.5l45 264q6 34 21 49q43 43 160 74q110 29 179 29h9q34 -1 49 -14q13 -11 13 -26l-5 -40l-59 -336 q-18 -104 -99 -192.5t-202 -141.5q133 -125 133 -287q0 -30 -4 -61q-8 -59 -56 -111.5t-124 -77.5q-33 -11 -71 -11q-48 0 -103 18q-3 1 -51.5 16.5t-77.5 24.5t-67.5 18.5t-55.5 9.5q-37 0 -55 -26q-14 -21 -14 -49q0 -8 1 -17q5 -38 29 -73q42 -55 80 -91q11 -11 -2 -18 l-74 -66q-10 -4 -18 -4h-5q-156 48 -223 205q-30 64 -30 133q0 35 8 72z"/>
<glyph unicode="z" horiz-adv-x="913" d="M53 137l479 516h-360q-12 0 -12 13l24 163q0 6 4 10.5t9 4.5h753q5 0 9 -4.5t4 -10.5q0 -79 -42.5 -164.5t-97.5 -146.5l-268 -297q32 3 49 6q97 11 158 11q32 0 55 -3q65 -9 101 -45q15 -14 23.5 -34.5t10.5 -45t1.5 -41t-3 -40t-2.5 -25.5q0 -12 -10 -20q-5 -4 -12 -5 q-6 0 -13 3q-63 26 -189 26q-34 0 -73 -2l-334 -18h-26q-135 0 -205 43q-33 18 -33 106z"/>
<glyph unicode="{" horiz-adv-x="643" d="M125 -88q4 55 32.5 158t50 182.5t13.5 163.5t-65 129q60 37 95.5 96.5t48.5 130.5t17.5 138.5t11 144.5t19.5 125q12 45 50.5 85t99.5 40q11 0 41 -1t51 -1q126 0 209 6q5 0 8 -4.5t2 -8.5l-18 -104q0 -4 -5 -8t-10 -4h-166q-11 -40 -27 -120t-30.5 -139.5t-39.5 -131.5 t-67 -134t-100 -110q41 -47 60.5 -109t19.5 -133.5t-6 -131.5t-18 -139t-15 -120h166q10 0 10 -14l-18 -103q-3 -14 -15 -14q-110 8 -208 8q-21 0 -51.5 -2t-41.5 -2q-61 0 -84.5 40t-19.5 87z"/>
<glyph unicode="|" horiz-adv-x="266" d="M0 -352l317 1812q1 9 9.5 16t17.5 7h100q9 0 14 -7t3 -16l-320 -1812q-2 -9 -8.5 -16t-15.5 -7h-101q-9 0 -13.5 7t-2.5 16z"/>
<glyph unicode="}" horiz-adv-x="643" d="M25 -205l18 103q0 6 4.5 10t9.5 4h166q11 40 26.5 119.5t30.5 139t40 131.5t66.5 134t98.5 109q-40 48 -59.5 110t-19 133.5t6.5 132t18 139t15 120.5h-165q-11 0 -11 12l19 104q4 13 14 13q82 -6 209 -6q21 0 51 1t41 1q61 0 85 -40t20 -85q-3 -48 -23.5 -124.5 t-40 -144.5t-31.5 -139t2 -130.5t60 -96.5q-59 -36 -94.5 -95.5t-48.5 -130.5t-17.5 -138.5t-11 -144t-19.5 -124.5q-12 -46 -49.5 -86.5t-99.5 -40.5q-11 0 -41 2t-51 2q-99 0 -209 -8q-5 0 -8 4t-2 10z"/>
<glyph unicode="~" horiz-adv-x="989" d="M201 786q58 104 119 176t139 101q104 41 211 -16q22 -9 53 -31q150 -99 264 57q4 4 12 6t11 0q48 -32 90 -53q9 -9 2 -22q-63 -107 -122.5 -177.5t-135.5 -99.5q-106 -39 -211 16q-27 13 -55 31q-148 102 -265 -55q-3 -6 -9.5 -7.5t-10.5 1.5q-3 1 -45 25.5t-45 25.5 q-10 9 -2 22z"/>
<glyph unicode="¡" horiz-adv-x="538" d="M29 -180l129 551q3 19 5.5 27.5t11 22.5t25.5 21t44 9q215 20 258 -48q10 -15 4 -51l-68 -553q-3 -19 -5.5 -27t-10.5 -22t-25 -20.5t-43 -8.5q-51 -3 -114.5 -5.5t-126 11t-80.5 42.5q-10 10 -4 51zM197 729q14 75 81 128.5t150 53.5t131.5 -53.5t34.5 -128.5 q-12 -75 -79 -127.5t-150 -52.5t-131.5 52.5t-36.5 127.5z"/>
<glyph unicode="¢" horiz-adv-x="899" d="M162 467q-9 64 10.5 142.5t81.5 146.5q95 104 240 145l43 244q2 8 8.5 14t15.5 6h123q8 0 13 -6.5t3 -13.5l-38 -219q62 -1 110 -12t75 -28t46.5 -38t24 -41.5t8 -38.5t-1.5 -29q-9 -50 -50.5 -85t-91.5 -38q-45 -3 -70 14.5t-27.5 43t4.5 50t20 36.5q21 21 -4 39 q-12 9 -39 2q-49 -13 -87 -44.5t-57.5 -69t-33.5 -79t-13.5 -73.5t2.5 -52q17 -82 139 -82q51 0 107.5 17t92.5 35t97 53q2 2 7 2q6 0 6 -8l-13 -68q0 -1 -1 -3t-1 -3q-192 -148 -366 -166l-43 -248q-1 -7 -9 -13.5t-16 -6.5h-123q-9 0 -13.5 6t-2.5 14l45 256 q-90 15 -150 63t-71 136z"/>
<glyph unicode="£" horiz-adv-x="987" d="M133 27q-24 16 2 96q63 114 78 297h-59q-8 0 -13 5.5t-2 14.5l49 123q3 8 12.5 14.5t16.5 6.5h2q3 93 25 180q42 136 160.5 225t291.5 88q188 0 324 -127q17 -10 12 -32q-10 -64 -12 -74q-2 -8 -8.5 -12t-12.5 -1q-36 24 -86 45t-111 32t-114.5 4t-95.5 -46.5t-55 -111.5 q-11 -73 -19 -170h221q9 0 12.5 -6.5t0.5 -14.5l-50 -123q-7 -20 -26 -20h-176q-27 -100 -138 -248q73 4 108.5 8t79.5 13t99 16q240 30 287 -37q9 -14 10 -33t-4.5 -40t-12 -38t-14.5 -35.5t-10 -23.5q-5 -12 -16.5 -19t-22.5 -1q-59 27 -227 22l-311 -16h-25 q-119 0 -170 39z"/>
<glyph unicode="¥" horiz-adv-x="1191" d="M246 1034q0 11 5.5 18.5t18.5 6.5q90 -4 150 -4q62 0 164 4q28 3 41 -27l182 -366l317 366q23 31 54 27q24 -4 55 -4q39 0 55 4q13 2 21 -5t2 -20q-8 -18 -20 -38t-21 -33.5t-27.5 -36t-25.5 -30t-30 -33.5t-26 -29l-256 -299h127q19 0 12 -21l-30 -82q-12 -20 -29 -20 h-145l-15 -80h170q20 0 13 -21l-31 -80q-10 -20 -27 -20h-145l-27 -143q-3 -26 -16 -43q-61 -59 -291 -41q-28 3 -41 13.5t-11.5 24.5t3.5 29l29 160h-172q-8 0 -12.5 6t-0.5 14l31 80q3 9 12 15t17 6h145l14 80h-172q-8 0 -11 6t1 14l31 82q3 9 11.5 15t16.5 6h117 l-155 299q-26 46 -35.5 64.5t-24.5 59.5t-18 76z"/>
<glyph unicode="¦" horiz-adv-x="266" d="M0 -352l135 778q1 9 9.5 16t17.5 7h98q9 0 15 -7t4 -16l-138 -778q-2 -9 -9.5 -16t-16.5 -7h-99q-9 0 -13.5 7t-2.5 16zM180 684l137 776q1 9 9.5 16t17.5 7h98q9 0 15 -7t4 -16l-137 -776q-1 -9 -9.5 -15.5t-17.5 -6.5h-98q-9 0 -14.5 6.5t-4.5 15.5z"/>
<glyph unicode="§" horiz-adv-x="915" d="M152 434q-11 106 42 185.5t148 125.5q-94 53 -94 148q0 74 40 143t102.5 117t137 79.5t144.5 37.5q164 14 270 -45q10 -7 8 -23l-14 -65q-4 -18 -12 -18q-2 0 -4 1q-83 32 -186 14.5t-132 -67.5q-28 -54 84 -88q40 -11 80.5 -29t87 -46t79 -70t38.5 -89 q11 -106 -42.5 -185.5t-148.5 -125.5q92 -54 92 -147q0 -74 -40 -143t-102 -117t-135.5 -79.5t-143.5 -37.5q-81 -7 -152.5 6t-118.5 39q-12 8 -8 22l12 66q1 1 2 4t2 4.5t2.5 4t3 3t4 1.5t5.5 -1q83 -32 185 -14t130 68q28 54 -82 88q-31 9 -62.5 21t-70.5 33t-69.5 45.5 t-53.5 60t-28 73.5zM414 555q3 -38 48 -54t105 -1t100.5 52.5t37.5 74.5q-3 38 -47.5 54t-106.5 1q-61 -15 -100.5 -52.5t-36.5 -74.5z"/>
<glyph unicode="¨" horiz-adv-x="831" d="M264 1161q10 60 61 102t111 42t94 -42t23 -102q-9 -60 -58.5 -102.5t-109.5 -42.5t-95 42.5t-26 102.5zM684 1161q10 60 61 102t111 42t94 -42t23 -102q-9 -60 -58.5 -102.5t-109.5 -42.5t-95 42.5t-26 102.5z"/>
<glyph unicode="©" horiz-adv-x="1529" d="M151.5 423.5q-4.5 76.5 12.5 158.5q22 128 77 232t149.5 187t242.5 129t340 46q129 0 231.5 -21t171 -60t116 -93t67 -120t24.5 -142t-12 -158q-18 -103 -55.5 -189.5t-103 -162.5t-154.5 -129.5t-215.5 -84t-280.5 -30.5q-129 0 -231.5 21t-171 60t-116.5 93.5 t-67.5 120.5t-24 142.5zM272 582q-40 -224 60 -346q126 -144 448 -144q326 0 502 144q141 120 182 346q37 225 -61 344q-125 143 -449 143q-326 0 -501 -143q-144 -123 -181 -344zM465 467q-9 64 10.5 142.5t81.5 146.5q76 84 183 127t216 43q64 0 113.5 -10.5t77.5 -28 t48 -38.5t25 -41.5t8.5 -39t-1.5 -29.5q-9 -50 -49.5 -85t-92.5 -38q-45 -3 -70 14.5t-27.5 43t4.5 50t20 36.5q21 21 -4 39q-9 9 -39 2q-59 -16 -102 -59.5t-61.5 -94t-24.5 -94.5t-1 -70q19 -82 142 -82q50 0 105.5 17t92 35.5t97.5 52.5q2 2 6 2q8 0 8 -8l-12 -68 q0 -1 -2.5 -3t-2.5 -3q-216 -168 -413 -168q-59 0 -111 9.5t-101.5 31.5t-82.5 65t-41 103z"/>
<glyph unicode="ª" horiz-adv-x="1024" d="M209 842q28 155 159.5 245.5t368.5 90.5q84 0 215 -23q24 -3 21 -22l-60 -336q-13 -78 35 -78q47 0 142 67q0 2 4 2q6 0 6 -8l-13 -63v-4q-79 -76 -165 -116t-166 -40q-54 0 -87 23.5t-43 53.5t-10 68q-2 -2 -28.5 -33t-39.5 -42t-41.5 -32t-61 -29.5t-70.5 -8.5 q-101 0 -145.5 75t-20.5 210zM471 885q-26 -144 64 -144q37 0 86 41l51 297q-168 0 -201 -194z"/>
<glyph unicode="«" horiz-adv-x="978" d="M139 451l31 167q2 13 20 25l390 270q16 10 20 -8l45 -102q3 -7 0 -16.5t-10 -12.5l-301 -239l217 -240q12 -6 0 -27l-80 -102q-4 -9 -12.5 -12t-12.5 2l-294 270q-1 2 -4 5t-5 5.5t-3.5 6.5t-0.5 8zM549 451l31 167q2 13 20 25l389 270q17 10 21 -8l45 -102 q3 -8 -0.5 -17t-10.5 -12l-301 -239l218 -240q12 -6 0 -27l-80 -102q-4 -9 -12.5 -12t-12.5 2l-295 270q-1 1 -4 4.5t-4.5 6t-3 6.5t-0.5 8z"/>
<glyph unicode="¬" horiz-adv-x="1591" d="M6 262q-10 88 15 190t106 191q100 109 242.5 166t285.5 57q69 0 125 -10t92.5 -25t64 -37t42 -43t23 -45t11 -41t1.5 -34q-5 -75 -44 -135.5t-97 -98.5t-132.5 -64t-146 -36.5t-143.5 -11.5q-11 0 -11 10q0 30 11 74q4 8 10 10q102 18 175.5 53.5t80.5 77.5 q8 41 -18 67.5t-74 20.5q-162 -19 -199 -225q-10 -62 -7.5 -108t41.5 -72.5t118 -26.5q59 0 129.5 12.5t158.5 40.5t172 79.5t159 121.5t131.5 176t78.5 233q14 72 -1 131.5t-59.5 105.5t-130 69.5t-206.5 19.5q-186 -6 -389 -170q-8 -7 -15.5 -8t-11.5 1l-4 3l-43 43 q-5 4 -2 13.5t10 15.5q107 96 215.5 161.5t198 93.5t167.5 40t138 5t94.5 -15t50.5 -17q133 -62 185 -169.5t28 -240.5q-17 -96 -72.5 -202.5t-138 -209t-194 -196.5t-234.5 -164.5t-265 -112.5t-279 -42q-79 0 -147 12.5t-133 42t-108 86.5t-55 137z"/>
<glyph unicode="­" horiz-adv-x="808" d="M130.5 375.5q-2.5 6.5 0.5 13.5l59 191q8 20 25 20h621q7 0 10 -6t0 -14l-60 -191q-3 -7 -10.5 -13.5t-13.5 -6.5h-623q-6 0 -8.5 6.5z"/>
<glyph unicode="®" horiz-adv-x="1048" d="M201 797q30 177 151 280q139 115 381 115q245 0 340 -115q83 -102 53 -280q-30 -176 -151 -279q-136 -115 -381 -115q-240 0 -340 115q-83 103 -53 279zM299 797q-24 -137 37 -207q73 -88 276 -88q198 0 306 88q84 72 108 207q24 138 -35 209q-76 88 -274 88 q-202 0 -307 -88q-87 -72 -111 -209zM449 633l47 262q1 9 2.5 12.5t7.5 8.5t18 6q95 7 107 -17q5 -5 2 -16l-10 -62q50 3 77.5 24t26.5 56q-2 16 -16 26t-36 13t-46 2.5t-51.5 -4.5t-46 -7t-35.5 -7q-7 0 -7 4q-1 2 -1 15.5t1 19.5q-3 6 5 6q99 29 171 36.5t108 -1t56 -28.5 t23 -38t0 -37q-6 -30 -47.5 -64.5t-118.5 -47.5q37 -123 98 -123q43 0 90 39h3q2 0 2 -2l-7 -31v-2q-51 -79 -118 -88q-31 -4 -54.5 4.5t-37.5 29.5t-23.5 40.5t-13.5 49.5t-5 42.5t-2 33.5h-4l-28 -161q-2 -9 -2.5 -12.5t-7 -8.5t-19.5 -6q-92 -6 -106 16q-4 8 -2 17z"/>
<glyph unicode="¯" horiz-adv-x="735" d="M61 1063v117q0 9 6 15.5t15 6.5h571q9 0 15 -6.5t6 -15.5v-117q0 -9 -6 -15t-15 -6h-571q-9 0 -15 6t-6 15z"/>
<glyph unicode="°" horiz-adv-x="851" d="M209 842q26 151 151.5 257.5t276.5 106.5t239 -106.5t62 -257.5t-151.5 -258t-276.5 -107t-239 107t-62 258zM381 842q-14 -80 32.5 -136.5t125.5 -56.5q80 0 147 57t80 136q14 80 -32.5 136t-125.5 56q-80 0 -147 -56.5t-80 -135.5z"/>
<glyph unicode="±" horiz-adv-x="997" d="M66 20l61 191q7 18 23 18h274l35 191h-305q-7 0 -11 6t-2 14l62 191q7 18 22 18h273l49 275q4 15 24 18l195 27q7 1 12.5 -3t3.5 -10l-55 -307h307q6 0 9.5 -5.5t0.5 -12.5l-61 -191q-1 -8 -7.5 -14t-12.5 -6h-275l-35 -191h305q6 0 10 -5.5t1 -12.5l-62 -191 q-8 -20 -22 -20h-809q-6 0 -9.5 6.5t-0.5 13.5z"/>
<glyph unicode="²" horiz-adv-x="651" d="M174 584q-15 12 2 55q55 65 118.5 121.5t108.5 87.5t87 64t61 57q13 16 21 40t7.5 48t-19 40.5t-54.5 16.5q-29 0 -51 -16q0 -21 -2 -31q-6 -35 -35 -59.5t-64 -24.5q-34 0 -52.5 25t-10.5 57q13 49 65 86.5t160 44.5q63 5 111.5 -4t76 -27t45.5 -43.5t19 -54t-4 -57.5 q-9 -45 -35 -82t-61 -61t-82 -48.5t-91.5 -43.5t-97.5 -48t-92 -59q99 5 223 22q143 19 166 -22q6 -8 7 -19t-2.5 -23.5t-6.5 -22t-8 -21t-6 -13.5q-9 -18 -25 -12q-34 17 -133 12q-242 -8 -246 -8q-74 0 -100 23z"/>
<glyph unicode="³" horiz-adv-x="655" d="M180 680l8 49q0 4 9 4h4q77 -60 158.5 -70.5t134.5 42.5q15 18 20 42t-2.5 47.5t-37 39.5t-77.5 16q-6 0 -6 8l8 43q0 6 9 6q67 0 108.5 38.5t48.5 86.5q6 42 -18 62t-80 20q-33 0 -45 -8q3 -16 0 -35q-7 -36 -35.5 -60t-62.5 -24t-51.5 23.5t-10.5 60.5q8 53 71 89 t179 36q77 0 129.5 -16.5t75 -43.5t29.5 -53t2 -53q-8 -44 -42.5 -85t-91.5 -66q56 -13 85.5 -55t21.5 -95.5t-55 -97.5q-41 -38 -106.5 -57t-127.5 -19q-153 0 -250 123z"/>
<glyph unicode="´" horiz-adv-x="753" d="M250 1065q-2 7 12 16l461 244q60 30 115.5 7.5t66.5 -75.5t-29 -110.5t-104 -69.5l-491 -92q-15 -5 -15 4z"/>
<glyph unicode="µ" horiz-adv-x="1427" d="M0 -369l205 1178q3 19 6 28t11 23.5t25.5 21t43.5 7.5q73 2 178.5 -29t132.5 -74q10 -13 4 -49l-76 -434q-8 -44 10 -59.5t57 -3t69.5 27t70.5 37.5l88 502q3 14 13.5 24t23.5 11l348 24h2q15 0 23.5 -10t5.5 -25l-88 -503q-21 -111 49 -111q36 0 92.5 29t106.5 67 q4 2 10 2q8 0 8 -10l-16 -90q0 -3 -6 -6q-108 -108 -229.5 -164.5t-239.5 -56.5q-190 0 -199 205q-2 -2 -14.5 -11.5t-14.5 -11.5q-134 -105 -219 -145l-73 -412q-3 -19 -5.5 -27.5t-11 -22.5t-25.5 -21t-44 -9q-50 -3 -113 -5t-126.5 11t-82.5 41q-6 12 0 51z"/>
<glyph unicode="¶" horiz-adv-x="978" d="M203 809q28 153 139.5 249.5t298.5 96.5h238l-179 -1010l-168 -26l60 344h-74q-187 0 -264 96t-51 250zM479 631q3 -74 56 -74h73l90 502h-73q-15 0 -28.5 -5t-24 -18t-18.5 -24t-15.5 -34.5t-12 -37t-10.5 -44t-8 -42.5t-8 -45q-23 -136 -21 -178zM776 119l182 1036h162 l-178 -1010z"/>
<glyph unicode="·" horiz-adv-x="485" d="M188 731q13 75 75.5 127.5t137.5 52.5t119 -52.5t31 -127.5q-12 -75 -75 -128.5t-138 -53.5t-118.5 53.5t-31.5 128.5z"/>
<glyph unicode="¸" horiz-adv-x="485" d="M61 -281q93 0 149 21t56 61q0 24 -27.5 41.5t-54.5 23.5l-28 5v129l100 8v-88q7 -1 19 -4t41.5 -15t52 -27t39.5 -42t14 -59q-5 -55 -44 -93.5t-91 -54t-103.5 -23t-87.5 -6.5l-35 1v122z"/>
<glyph unicode="¹" horiz-adv-x="471" d="M254 1071q-8 4 4 12l148 86q45 31 172 19q27 -1 32 -14.5t-2 -26.5l-94 -537q-2 -15 -10 -26q-38 -38 -178 -25q-19 1 -27 7.5t-7 15.5t1 18l80 457l-49 -23q-11 -7 -19 -2q-24 12 -51 39z"/>
<glyph unicode="º" horiz-adv-x="866" d="M209 765.5q-4 46.5 4 98.5q25 138 133 225t293 87q95 0 163.5 -24.5t104 -67t49.5 -99.5t0 -121q-25 -138 -133.5 -224.5t-294.5 -86.5q-76 0 -135.5 16t-96.5 44t-60 67t-27 85.5zM487 700q7 -61 58 -61q29 0 49.5 17.5t33 52t19.5 65t15 77.5q1 9 2 13q22 126 17 166 q-8 60 -58 60q-29 0 -49.5 -18t-32.5 -51t-20 -66.5t-15 -76.5q0 -3 -0.5 -5t-1 -4.5t-0.5 -4.5q-21 -124 -17 -164z"/>
<glyph unicode="»" horiz-adv-x="978" d="M112 284q3 8 9 11l303 240l-219 239q-5 3 -4.5 12.5t6.5 16.5l78 102q4 7 12 10t12 -2l295 -270q14 -9 12 -25l-30 -167q-2 -11 -21 -25l-389 -270q-17 -10 -20 10l-43 102q-4 8 -1 16zM521 284q3 8 9 11l304 240l-220 239q-5 3 -4.5 12.5t6.5 16.5l78 102q4 7 12.5 10 t12.5 -2l295 -270q14 -9 12 -25l-31 -167q-2 -11 -20 -25l-389 -270q-7 -5 -13.5 -2t-7.5 12l-43 102q-4 8 -1 16z"/>
<glyph unicode="¼" horiz-adv-x="1257" d="M164 49l997 1141q11 14 19 6l84 -45q9 -9 0 -21l-998 -1140q-7 -14 -20 -6l-80 45q-12 6 -2 20zM254 1071q-8 4 4 12l148 86q45 31 172 19q27 -1 32 -14.5t-2 -26.5l-94 -537q-2 -15 -10 -26q-38 -38 -178 -25q-19 1 -27 7.5t-7 15.5t1 18l80 457l-49 -23q-11 -7 -19 -2 q-24 12 -51 39zM668 170l2 68q0 8 10 18q3 4 86 89.5t164 168.5l82 84q12 12 32 12q148 13 173 -24q4 -13 2 -27l-58 -317h66q4 0 7 -4t1 -9l-14 -63q-3 -10 -15 -10h-59l-25 -133q-1 -12 -3.5 -19t-13 -14t-28.5 -8q-148 -13 -170 24q-5 8 -2 27l23 123h-248q-12 0 -12 14z M764 242h178l39 221z"/>
<glyph unicode="½" horiz-adv-x="1320" d="M164 49l997 1141q11 14 19 6l84 -45q9 -9 0 -21l-998 -1140q-7 -14 -20 -6l-80 45q-12 6 -2 20zM254 1071q-8 4 4 12l148 86q44 31 174 19q26 -1 30.5 -14.5t-2.5 -26.5l-94 -537q-2 -15 -10 -26q-38 -38 -178 -25q-19 1 -27 7.5t-7 15.5t1 18l80 457l-49 -23 q-11 -7 -19 -2q-24 12 -51 39zM741 6q-12 10 2 55q55 65 118.5 121.5t108.5 87.5t87 64t61 57q19 23 27 56t-8.5 61.5t-63.5 28.5q-29 0 -53 -17q4 -21 2 -31q-6 -35 -36 -59t-66 -24q-34 0 -52 24.5t-12 56.5q13 49 65.5 86.5t161.5 44.5q78 6 132.5 -8.5t81 -43t35 -62.5 t1.5 -72q-14 -66 -66.5 -115.5t-112 -75.5t-144.5 -68t-140 -83q88 5 224 23q141 19 168 -23q5 -8 5.5 -19t-3 -23t-7 -22t-8.5 -21t-6 -13q-2 -6 -8 -10.5t-12 -1.5q-39 17 -136 12q-241 -8 -247 -8q-72 0 -99 22z"/>
<glyph unicode="¾" horiz-adv-x="1370" d="M180 680l8 49q0 4 9 4h4q77 -60 158.5 -70.5t134.5 42.5q15 18 20 42t-2.5 47.5t-37 39.5t-77.5 16q-6 0 -6 8l8 43q0 6 9 6q67 0 108.5 38.5t48.5 86.5q6 42 -18 62t-80 20q-33 0 -45 -8q3 -16 0 -35q-7 -36 -35.5 -60t-62.5 -24t-51.5 23.5t-10.5 60.5q8 53 71 89 t179 36q77 0 129.5 -16.5t75 -43.5t29.5 -53t2 -53q-8 -44 -42.5 -85t-91.5 -66q56 -13 85.5 -55t21.5 -95.5t-55 -97.5q-41 -38 -106.5 -57t-127.5 -19q-153 0 -250 123zM276 29q-10 7 0 20l996 1141q4 6 10.5 7.5t9.5 -1.5l82 -45q12 -8 2 -21l-997 -1140q-10 -13 -23 -6z M778 170l4 68q1 8 9 18l331 342q16 12 35 12q148 13 170 -24q5 -8 2 -27l-57 -317h67q3 0 6.5 -4.5t2.5 -8.5l-17 -63q-3 -10 -12 -10h-62l-24 -133q-1 -12 -3 -18.5t-12 -14t-28 -8.5q-148 -13 -170 24q-5 8 -2 27l22 123h-249q-13 0 -13 14zM877 242h178l39 221z"/>
<glyph unicode="¿" horiz-adv-x="1040" d="M61 -44q0 38 5 77q8 43 38.5 88t83.5 90.5t96.5 78.5t111 79t93.5 65q37 29 58 29h194q11 0 13.5 -11.5t-4.5 -17.5q-44 -52 -129.5 -137.5t-145.5 -159.5q-25 -31 -39.5 -76t-14 -90.5t35.5 -77.5t104 -32q51 0 98 30q-3 32 0 58q12 68 67 115t122 47q64 0 99.5 -48 t21.5 -108q-11 -42 -36.5 -79t-72.5 -74t-129.5 -63t-191.5 -34q-85 -6 -155.5 -0.5t-121 21t-90 39t-61.5 53.5t-36 65t-14 73zM467 729q14 75 81 128.5t150 53.5t131.5 -53.5t34.5 -128.5q-12 -75 -79 -127.5t-150 -52.5t-131.5 52.5t-36.5 127.5z"/>
<glyph unicode="À" d="M-57 203q-1 3 2 5.5t6 2.5h92q6 0 10 -8q12 -34 35 -37q28 -7 55 12.5t64 59.5l792 901q27 33 50.5 43t78.5 10q73 2 171.5 -27.5t125.5 -72.5q11 -11 5 -52l-125 -712q-21 -111 49 -111q35 0 91.5 29.5t106.5 66.5q4 2 9 2q8 0 8 -10l-17 -90q0 -4 -4 -6 q-108 -108 -229.5 -164.5t-239.5 -56.5q-54 0 -93.5 17t-61 45t-34 64.5t-12 76.5t4.5 81h-420l-80 -90q-81 -95 -148.5 -145.5t-130.5 -50.5q-62 0 -102.5 57t-58.5 160zM594 422h313l78 448zM988.5 1461.5q-20.5 58.5 10.5 109.5q30 53 92.5 75t114.5 -8l375 -243 q0 -1 3 -4.5t3 -5.5t-2 -7l-41 -75q-6 -9 -18 -5l-459 93q-58 12 -78.5 70.5z"/>
<glyph unicode="Á" d="M-57 203q-1 3 2 5.5t6 2.5h92q6 0 10 -8q12 -34 35 -37q28 -7 55 12.5t64 59.5l792 901q27 33 50.5 43t78.5 10q73 2 171.5 -27.5t125.5 -72.5q11 -11 5 -52l-125 -712q-21 -111 49 -111q35 0 91.5 29.5t106.5 66.5q4 2 9 2q8 0 8 -10l-17 -90q0 -4 -4 -6 q-108 -108 -229.5 -164.5t-239.5 -56.5q-54 0 -93.5 17t-61 45t-34 64.5t-12 76.5t4.5 81h-420l-80 -90q-81 -95 -148.5 -145.5t-130.5 -50.5q-62 0 -102.5 57t-58.5 160zM594 422h313l78 448zM942 1378q-2 8 12 17l461 243q60 30 115.5 8t66.5 -75t-29 -110.5t-104 -69.5 l-491 -93q-15 -5 -15 5z"/>
<glyph unicode="Â" d="M-57 203q-1 3 2 5.5t6 2.5h92q6 0 10 -8q12 -34 35 -37q28 -7 55 12.5t64 59.5l792 901q27 33 50.5 43t78.5 10q73 2 171.5 -27.5t125.5 -72.5q11 -11 5 -52l-125 -712q-21 -111 49 -111q35 0 91.5 29.5t106.5 66.5q4 2 9 2q8 0 8 -10l-17 -90q0 -4 -4 -6 q-108 -108 -229.5 -164.5t-239.5 -56.5q-54 0 -93.5 17t-61 45t-34 64.5t-12 76.5t4.5 81h-420l-80 -90q-81 -95 -148.5 -145.5t-130.5 -50.5q-62 0 -102.5 57t-58.5 160zM594 422h313l78 448zM933 1351q-2 7 3 11l281 293q19 14 26 14h154q15 0 20 -14l178 -293 q3 -5 -1 -11.5t-11 -9.5l-127 -57q-18 -7 -24 6l-142 215l-215 -215q-10 -14 -26 -6l-107 57q-7 3 -9 10z"/>
<glyph unicode="Ã" d="M-57 203q-1 3 2 5.5t6 2.5h92q6 0 10 -8q12 -34 35 -37q28 -7 55 12.5t64 59.5l792 901q27 33 50.5 43t78.5 10q73 2 171.5 -27.5t125.5 -72.5q11 -11 5 -52l-125 -712q-21 -111 49 -111q35 0 91.5 29.5t106.5 66.5q4 2 9 2q8 0 8 -10l-17 -90q0 -4 -4 -6 q-108 -108 -229.5 -164.5t-239.5 -56.5q-54 0 -93.5 17t-61 45t-34 64.5t-12 76.5t4.5 81h-420l-80 -90q-81 -95 -148.5 -145.5t-130.5 -50.5q-62 0 -102.5 57t-58.5 160zM594 422h313l78 448zM936 1378q107 186 213 226q87 34 172 -13q28 -14 43 -24q121 -84 215 45 q9 10 20 6q1 -2 17.5 -11.5t34.5 -20t20 -11.5q8 -8 2 -19q-102 -183 -211 -225q-84 -33 -172 12q-10 5 -45 25q-14 10 -28.5 17.5t-38 12.5t-46 1t-50 -23t-52.5 -53q-3 -4 -9 -5.5t-9 1.5q-5 2 -37 20t-35 21q-10 6 -4 18z"/>
<glyph unicode="Ä" d="M-57 203q-1 3 2 5.5t6 2.5h92q6 0 10 -8q12 -34 35 -37q28 -7 55 12.5t64 59.5l792 901q27 33 50.5 43t78.5 10q73 2 171.5 -27.5t125.5 -72.5q11 -11 5 -52l-125 -712q-21 -111 49 -111q35 0 91.5 29.5t106.5 66.5q4 2 9 2q8 0 8 -10l-17 -90q0 -4 -4 -6 q-108 -108 -229.5 -164.5t-239.5 -56.5q-54 0 -93.5 17t-61 45t-34 64.5t-12 76.5t4.5 81h-420l-80 -90q-81 -95 -148.5 -145.5t-130.5 -50.5q-62 0 -102.5 57t-58.5 160zM594 422h313l78 448zM934 1479q10 60 60 101.5t110 41.5t94.5 -41.5t24.5 -101.5q-11 -60 -60.5 -103 t-109.5 -43t-95 43t-24 103zM1354 1479q10 60 60 101.5t110 41.5t94 -41.5t24 -101.5q-11 -60 -60 -103t-109 -43t-95 43t-24 103z"/>
<glyph unicode="Å" d="M-57 203q-1 3 2 5.5t6 2.5h92q6 0 10 -8q12 -34 35 -37q28 -7 55 12.5t64 59.5l792 901q27 33 50.5 43t78.5 10q73 2 171.5 -27.5t125.5 -72.5q11 -11 5 -52l-125 -712q-21 -111 49 -111q35 0 91.5 29.5t106.5 66.5q4 2 9 2q8 0 8 -10l-17 -90q0 -4 -4 -6 q-108 -108 -229.5 -164.5t-239.5 -56.5q-54 0 -93.5 17t-61 45t-34 64.5t-12 76.5t4.5 81h-420l-80 -90q-81 -95 -148.5 -145.5t-130.5 -50.5q-62 0 -102.5 57t-58.5 160zM594 422h313l78 448zM1038 1548q20 114 112.5 193.5t205.5 79.5q114 0 179.5 -79.5t45.5 -193.5 q-20 -113 -112.5 -191.5t-206.5 -78.5q-113 0 -178.5 79t-45.5 191zM1184 1548q-9 -51 21 -88t81 -37q52 0 95.5 37t52.5 88q9 53 -21 89t-82 36q-51 0 -94.5 -36.5t-52.5 -88.5z"/>
<glyph unicode="Æ" horiz-adv-x="1959" d="M-57 203q-1 3 2 5.5t6 2.5h92q6 0 10 -8q12 -34 35 -37q28 -7 55 12.5t64 59.5l792 901q33 42 105 28q63 -14 201 -14q140 59 319 59q67 0 122.5 -8.5t93 -22.5t67.5 -32.5t45.5 -39.5t28 -42.5t14.5 -41t4 -35.5t-2 -27q-12 -69 -65.5 -117.5t-119.5 -48.5 q-67 0 -106 48.5t-27 117.5q5 30 27 67q-21 12 -59 12q-92 0 -158 -42.5t-94 -120.5q-9 -32 -10.5 -65t12.5 -63.5t37.5 -54t65 -37.5t95.5 -14q13 0 13 -16l-15 -78q-3 -14 -16 -14q-63 0 -116 -14.5t-87 -38t-57.5 -53.5t-32.5 -61t-7.5 -59.5t13.5 -50.5 q38 -71 175.5 -77.5t287 33t256.5 97.5q4 2 8 2q11 0 11 -10l-17 -90q0 -3 -6 -6q-149 -99 -331.5 -162t-364.5 -63q-79 0 -151 11t-144.5 44t-110.5 84q-46 63 -43 149h-397l-80 -90q-82 -96 -148.5 -146t-130.5 -50q-62 0 -102.5 57t-58.5 160zM594 422h317 q41 65 109 110.5t149 57.5q-66 17 -107.5 52.5t-55 81t-6 97.5t35.5 105z"/>
<glyph unicode="Ç" horiz-adv-x="1228" d="M121 483q6 138 74 291q26 60 66 117.5t102 116.5t135.5 103.5t173 72.5t209.5 28q72 0 130.5 -10t96 -27.5t67 -39.5t43 -46t23 -48t8 -44.5t-1.5 -35.5q-12 -68 -67.5 -119t-120.5 -51q-66 0 -104.5 50t-26.5 120q5 37 26 71q-70 20 -133 -2.5t-107.5 -71.5t-81 -118.5 t-57.5 -136t-32 -130.5q-7 -39 -9.5 -75t-0.5 -74.5t11.5 -69.5t26.5 -62t44.5 -51.5t65.5 -37t89 -19t115 1.5q102 10 209.5 49.5t187.5 88.5q1 0 4 1t4 1q8 0 8 -11l-16 -94q-1 -1 -2 -3t-2 -3q-281 -196 -524 -225q-35 -2 -97 -6l-10 -64q7 -1 18 -4t38.5 -15t46.5 -27 t31 -42t3 -59q-15 -55 -60.5 -93.5t-100.5 -54t-107.5 -23t-87.5 -6.5l-35 1l21 122q93 0 153 21t66 61q4 24 -20.5 41.5t-50.5 23.5l-27 5l22 119q-141 17 -242 83.5t-150.5 169t-43.5 240.5z"/>
<glyph unicode="È" horiz-adv-x="1179" d="M81.5 232.5q-7.5 60.5 14 118.5t62 108.5t102 85.5t131.5 45q-76 20 -119 62.5t-51 97t10.5 114.5t61.5 119q58 80 156.5 134t196 74.5t198.5 20.5q60 0 110.5 -6.5t87 -18t66 -27.5t48.5 -33t32.5 -36.5t20 -37.5t9.5 -36t3 -30.5t-2 -23.5q-12 -69 -66 -117.5 t-121 -48.5q-66 0 -104.5 48.5t-26.5 117.5q6 37 27 67q-21 12 -62 12q-93 0 -158.5 -42.5t-91.5 -120.5q-29 -89 21 -161.5t178 -72.5q6 0 10 -5t4 -11l-14 -78q-3 -14 -18 -14q-63 0 -115.5 -14.5t-86 -38t-57.5 -53.5t-33 -61t-8 -59.5t13 -50.5q39 -71 176.5 -77.5 t287 33t257.5 97.5q4 2 8 2q8 0 8 -10l-16 -90q0 -4 -4 -6q-149 -99 -332 -162t-365 -63q-127 0 -238.5 32t-166.5 107q-36 49 -43.5 109.5zM591.5 1461.5q-20.5 58.5 10.5 109.5q30 53 92.5 75t114.5 -8l375 -243q0 -1 3 -4.5t3 -5.5t-2 -7l-41 -75q-6 -9 -19 -5l-458 93 q-58 12 -78.5 70.5z"/>
<glyph unicode="É" horiz-adv-x="1179" d="M81.5 232.5q-7.5 60.5 14 118.5t62 108.5t102 85.5t131.5 45q-76 20 -119 62.5t-51 97t10.5 114.5t61.5 119q58 80 156.5 134t196 74.5t198.5 20.5q60 0 110.5 -6.5t87 -18t66 -27.5t48.5 -33t32.5 -36.5t20 -37.5t9.5 -36t3 -30.5t-2 -23.5q-12 -69 -66 -117.5 t-121 -48.5q-66 0 -104.5 48.5t-26.5 117.5q6 37 27 67q-21 12 -62 12q-93 0 -158.5 -42.5t-91.5 -120.5q-29 -89 21 -161.5t178 -72.5q6 0 10 -5t4 -11l-14 -78q-3 -14 -18 -14q-63 0 -115.5 -14.5t-86 -38t-57.5 -53.5t-33 -61t-8 -59.5t13 -50.5q39 -71 176.5 -77.5 t287 33t257.5 97.5q4 2 8 2q8 0 8 -10l-16 -90q0 -4 -4 -6q-149 -99 -332 -162t-365 -63q-127 0 -238.5 32t-166.5 107q-36 49 -43.5 109.5zM555 1378q-2 8 12 17l461 243q60 30 115.5 8t66.5 -75t-29 -110.5t-104 -69.5l-491 -93q-15 -5 -15 5z"/>
<glyph unicode="Ê" horiz-adv-x="1179" d="M81.5 232.5q-7.5 60.5 14 118.5t62 108.5t102 85.5t131.5 45q-76 20 -119 62.5t-51 97t10.5 114.5t61.5 119q58 80 156.5 134t196 74.5t198.5 20.5q60 0 110.5 -6.5t87 -18t66 -27.5t48.5 -33t32.5 -36.5t20 -37.5t9.5 -36t3 -30.5t-2 -23.5q-12 -69 -66 -117.5 t-121 -48.5q-66 0 -104.5 48.5t-26.5 117.5q6 37 27 67q-21 12 -62 12q-93 0 -158.5 -42.5t-91.5 -120.5q-29 -89 21 -161.5t178 -72.5q6 0 10 -5t4 -11l-14 -78q-3 -14 -18 -14q-63 0 -115.5 -14.5t-86 -38t-57.5 -53.5t-33 -61t-8 -59.5t13 -50.5q39 -71 176.5 -77.5 t287 33t257.5 97.5q4 2 8 2q8 0 8 -10l-16 -90q0 -4 -4 -6q-149 -99 -332 -162t-365 -63q-127 0 -238.5 32t-166.5 107q-36 49 -43.5 109.5zM507 1351q-2 7 3 11l281 293q19 14 26 14h154q15 0 20 -14l178 -293q3 -5 -1 -11.5t-11 -9.5l-127 -57q-18 -7 -24 6l-142 215 l-215 -215q-10 -14 -26 -6l-107 57q-7 3 -9 10z"/>
<glyph unicode="Ë" horiz-adv-x="1179" d="M81.5 232.5q-7.5 60.5 14 118.5t62 108.5t102 85.5t131.5 45q-76 20 -119 62.5t-51 97t10.5 114.5t61.5 119q58 80 156.5 134t196 74.5t198.5 20.5q60 0 110.5 -6.5t87 -18t66 -27.5t48.5 -33t32.5 -36.5t20 -37.5t9.5 -36t3 -30.5t-2 -23.5q-12 -69 -66 -117.5 t-121 -48.5q-66 0 -104.5 48.5t-26.5 117.5q6 37 27 67q-21 12 -62 12q-93 0 -158.5 -42.5t-91.5 -120.5q-29 -89 21 -161.5t178 -72.5q6 0 10 -5t4 -11l-14 -78q-3 -14 -18 -14q-63 0 -115.5 -14.5t-86 -38t-57.5 -53.5t-33 -61t-8 -59.5t13 -50.5q39 -71 176.5 -77.5 t287 33t257.5 97.5q4 2 8 2q8 0 8 -10l-16 -90q0 -4 -4 -6q-149 -99 -332 -162t-365 -63q-127 0 -238.5 32t-166.5 107q-36 49 -43.5 109.5zM530 1479q10 60 60 101.5t110 41.5t94.5 -41.5t24.5 -101.5q-11 -60 -60.5 -103t-109.5 -43t-95 43t-24 103zM950 1479 q10 60 60 101.5t110 41.5t94.5 -41.5t24.5 -101.5q-11 -60 -60.5 -103t-109.5 -43t-95 43t-24 103z"/>
<glyph unicode="Ì" horiz-adv-x="620" d="M119 33q-7 11 0 49l178 1014q7 41 19 54q21 20 67 24q50 3 112.5 5.5t125.5 -11t81 -42.5q9 -12 3 -51l-179 -1012q-3 -20 -5 -27t-10.5 -21.5t-25.5 -21t-45 -9.5q-51 -3 -114 -5t-125.5 11.5t-81.5 42.5zM259.5 1461.5q-20.5 58.5 10.5 109.5q30 53 92.5 75t114.5 -8 l375 -243q0 -1 3 -4.5t3 -5.5t-2 -7l-41 -75q-6 -9 -18 -5l-459 93q-58 12 -78.5 70.5z"/>
<glyph unicode="Í" horiz-adv-x="620" d="M119 33q-7 11 0 49l178 1014q7 41 19 54q21 20 67 24q50 3 112.5 5.5t125.5 -11t81 -42.5q9 -12 3 -51l-179 -1012q-3 -20 -5 -27t-10.5 -21.5t-25.5 -21t-45 -9.5q-51 -3 -114 -5t-125.5 11.5t-81.5 42.5zM256 1378q-2 8 12 17l461 243q60 30 115.5 8t66.5 -75 t-29 -110.5t-104 -69.5l-491 -93q-15 -5 -15 5z"/>
<glyph unicode="Î" horiz-adv-x="620" d="M119 33q-7 11 0 49l178 1014q7 41 19 54q21 20 67 24q50 3 112.5 5.5t125.5 -11t81 -42.5q9 -12 3 -51l-179 -1012q-3 -20 -5 -27t-10.5 -21.5t-25.5 -21t-45 -9.5q-51 -3 -114 -5t-125.5 11.5t-81.5 42.5zM218 1351q-2 7 3 11l281 293q19 14 26 14h154q15 0 20 -14 l179 -293q3 -4 -1 -11t-12 -10l-127 -57q-17 -7 -24 6l-142 215l-215 -215q-10 -14 -26 -6l-107 57q-7 3 -9 10z"/>
<glyph unicode="Ï" horiz-adv-x="620" d="M119 33q-7 11 0 49l178 1014q7 41 19 54q21 20 67 24q50 3 112.5 5.5t125.5 -11t81 -42.5q9 -12 3 -51l-179 -1012q-3 -20 -5 -27t-10.5 -21.5t-25.5 -21t-45 -9.5q-51 -3 -114 -5t-125.5 11.5t-81.5 42.5zM219 1479q10 60 60 101.5t110 41.5t94.5 -41.5t24.5 -101.5 q-11 -60 -60.5 -103t-109.5 -43t-95 43t-24 103zM639 1479q10 60 60 101.5t110 41.5t94.5 -41.5t24.5 -101.5q-11 -60 -60.5 -103t-109.5 -43t-95 43t-24 103z"/>
<glyph unicode="Ð" horiz-adv-x="1464" d="M162 571l14 91q7 22 27 22h129l30 174q3 17 6 26.5t11.5 22.5t26 20.5t43.5 10.5q277 18 321 -49q10 -13 4 -49l-29 -156h119q9 0 15.5 -6.5t3.5 -15.5l-15 -91q-1 -9 -9 -14.5t-17 -5.5h-119l-74 -412q58 -1 106.5 6.5t107.5 35.5t104 76t84.5 135t60.5 206 q12 68 14 125t-9.5 98t-23 74.5t-41.5 54t-47.5 36.5t-59.5 22.5t-60 11t-65 3t-58.5 -2.5t-55.5 -5q-9 -1 -13.5 -1t-11 -1t-11.5 -1q-107 -9 -308 -47q-15 -4 -20 10q0 91 2 102q0 15 18 19q396 118 687 118q61 0 116 -9t109.5 -30t96 -54.5t77 -83t52 -115.5t20.5 -152 t-17 -192q-18 -103 -54.5 -189t-82 -146t-106.5 -107t-120 -76t-133 -48.5t-134 -27.5t-133 -11t-121 -1.5t-108.5 3.5t-84.5 2v3q-162 0 -197 53q-9 11 -2 49l82 469h-129q-21 0 -18 20z"/>
<glyph unicode="Ñ" horiz-adv-x="1280" d="M115 33q-7 11 0 49l157 903q3 15 -8 17.5t-20 -1.5t-31 -8q-18 -5 -18 11q-1 4 -1 44.5t1 57.5q2 10 15 16q2 1 3 2q149 56 289 56q28 0 98 -9q44 -7 47 -38q13 -91 35 -166q65 -252 203 -498l110 627q3 19 5.5 27t11 22t25.5 20.5t44 8.5q50 3 113 5.5t126 -11t81 -42.5 q10 -10 4 -51l-178 -1012q-3 -19 -5.5 -27t-11 -21.5t-25.5 -20.5t-44 -10q-66 -4 -129 -4q-56 0 -111 63q-177 205 -297 481l-82 -461q-3 -20 -5 -27t-10.5 -21.5t-25.5 -21t-45 -9.5q-50 -3 -113 -5t-126 11.5t-82 42.5zM514 1378q107 186 213 226q87 34 172 -13 q28 -14 43 -24q121 -84 215 45q10 10 21 6q1 -2 17 -11.5t34 -20t20 -11.5q8 -8 2 -19q-102 -183 -211 -225q-84 -33 -172 12q-10 5 -45 25q-14 10 -28.5 17.5t-38 12.5t-46 1t-50 -23t-52.5 -53q-3 -4 -9 -5.5t-9 1.5q-5 2 -37 20t-35 21q-10 6 -4 18z"/>
<glyph unicode="Ò" horiz-adv-x="1294" d="M122 435.5q-4 78.5 13 162.5q23 131 78 240t142.5 194t216.5 132.5t288 47.5q107 0 193 -22t145.5 -62t101 -95.5t59.5 -124t22 -147t-13 -163.5q-18 -103 -56 -193.5t-99.5 -168t-142.5 -132.5t-190 -86.5t-237 -31.5q-107 0 -193 22t-145.5 61.5t-101 95.5t-59.5 124 t-22 146.5zM539.5 269q24.5 -105 136.5 -105q111 0 168.5 99.5t99.5 334.5q27 150 27.5 246.5t-34 142t-110.5 45.5q-111 0 -168.5 -99t-99.5 -335q-44 -224 -19.5 -329zM624 1461.5q-20 58.5 11 109.5q30 53 92.5 75t114.5 -8l375 -243q0 -1 3 -4.5t3 -5.5t-2 -7l-41 -75 q-6 -9 -19 -5l-459 93q-58 12 -78 70.5z"/>
<glyph unicode="Ó" horiz-adv-x="1294" d="M122 435.5q-4 78.5 13 162.5q23 131 78 240t142.5 194t216.5 132.5t288 47.5q107 0 193 -22t145.5 -62t101 -95.5t59.5 -124t22 -147t-13 -163.5q-18 -103 -56 -193.5t-99.5 -168t-142.5 -132.5t-190 -86.5t-237 -31.5q-107 0 -193 22t-145.5 61.5t-101 95.5t-59.5 124 t-22 146.5zM539.5 269q24.5 -105 136.5 -105q111 0 168.5 99.5t99.5 334.5q27 150 27.5 246.5t-34 142t-110.5 45.5q-111 0 -168.5 -99t-99.5 -335q-44 -224 -19.5 -329zM573 1378q-2 7 13 17l461 243q60 30 115.5 8t66.5 -75t-29 -110.5t-104 -69.5l-492 -93q-14 -5 -14 5z "/>
<glyph unicode="Ô" horiz-adv-x="1294" d="M122 435.5q-4 78.5 13 162.5q23 131 78 240t142.5 194t216.5 132.5t288 47.5q107 0 193 -22t145.5 -62t101 -95.5t59.5 -124t22 -147t-13 -163.5q-18 -103 -56 -193.5t-99.5 -168t-142.5 -132.5t-190 -86.5t-237 -31.5q-107 0 -193 22t-145.5 61.5t-101 95.5t-59.5 124 t-22 146.5zM539.5 269q24.5 -105 136.5 -105q111 0 168.5 99.5t99.5 334.5q27 150 27.5 246.5t-34 142t-110.5 45.5q-111 0 -168.5 -99t-99.5 -335q-44 -224 -19.5 -329zM556 1351q-2 7 3 11l281 293q19 14 26 14h154q15 0 20 -14l179 -293q3 -4 -1 -11t-12 -10l-127 -57 q-17 -7 -24 6l-142 215l-215 -215q-10 -14 -26 -6l-107 57q-7 3 -9 10z"/>
<glyph unicode="Õ" horiz-adv-x="1294" d="M122 435.5q-4 78.5 13 162.5q23 131 78 240t142.5 194t216.5 132.5t288 47.5q107 0 193 -22t145.5 -62t101 -95.5t59.5 -124t22 -147t-13 -163.5q-18 -103 -56 -193.5t-99.5 -168t-142.5 -132.5t-190 -86.5t-237 -31.5q-107 0 -193 22t-145.5 61.5t-101 95.5t-59.5 124 t-22 146.5zM539.5 269q24.5 -105 136.5 -105q111 0 168.5 99.5t99.5 334.5q27 150 27.5 246.5t-34 142t-110.5 45.5q-111 0 -168.5 -99t-99.5 -335q-44 -224 -19.5 -329zM553 1378q107 186 213 226q87 34 172 -13q28 -14 43 -24q121 -84 215 45q10 10 21 6q1 -2 17 -11.5 t34 -20t20 -11.5q8 -8 2 -19q-102 -183 -211 -225q-84 -33 -172 12q-10 5 -45 25q-14 10 -28.5 17.5t-38 12.5t-46 1t-50 -23t-52.5 -53q-3 -4 -9 -5.5t-9 1.5q-5 2 -37 20t-35 21q-10 6 -4 18z"/>
<glyph unicode="Ö" horiz-adv-x="1294" d="M122 435.5q-4 78.5 13 162.5q23 131 78 240t142.5 194t216.5 132.5t288 47.5q107 0 193 -22t145.5 -62t101 -95.5t59.5 -124t22 -147t-13 -163.5q-18 -103 -56 -193.5t-99.5 -168t-142.5 -132.5t-190 -86.5t-237 -31.5q-107 0 -193 22t-145.5 61.5t-101 95.5t-59.5 124 t-22 146.5zM539.5 269q24.5 -105 136.5 -105q111 0 168.5 99.5t99.5 334.5q27 150 27.5 246.5t-34 142t-110.5 45.5q-111 0 -168.5 -99t-99.5 -335q-44 -224 -19.5 -329zM551 1479q10 60 60 101.5t110 41.5t94.5 -41.5t24.5 -101.5q-11 -60 -60.5 -103t-109.5 -43t-95 43 t-24 103zM971 1479q10 60 60 101.5t110 41.5t94.5 -41.5t24.5 -101.5q-11 -60 -60.5 -103t-109.5 -43t-95 43t-24 103z"/>
<glyph unicode="×" horiz-adv-x="888" d="M121 319l256 216l-180 215q-3 6 0 13.5t10 10.5l174 117q8 4 16 3.5t11 -5.5l157 -193l230 195q14 10 26 -2l133 -115q6 -4 6 -11t-6 -11l-254 -217l179 -218q7 -10 -9 -22l-174 -115q-20 -12 -26 -2l-160 195l-227 -193q-17 -12 -27 -2l-133 117q-16 10 -2 24z"/>
<glyph unicode="Ø" horiz-adv-x="1296" d="M135 598q23 131 78 240t143 194t217.5 132.5t288.5 47.5q161 0 283 -53l53 64q5 6 13.5 7t13.5 -5l47 -60q11 -15 -2 -32l-29 -35q94 -81 126 -210.5t3 -289.5q-23 -130 -78 -239t-143 -193.5t-217 -132t-287 -47.5q-170 0 -285 53l-53 -64q-11 -17 -26 -2l-48 60 q-5 6 -4 15t7 15l28 35q-94 83 -126 212.5t-3 287.5zM535 424l428 514q-26 94 -134 94q-113 0 -170.5 -99t-99.5 -335q-18 -100 -24 -174zM543 258q27 -94 135 -94q111 0 168.5 99.5t99.5 334.5q20 110 25 174z"/>
<glyph unicode="Ù" horiz-adv-x="1261" d="M63 582v514q0 19 1 27t7 21.5t22 20.5t42 9q51 3 113.5 5.5t128 -11t88.5 -42.5q12 -12 12 -51v-493q0 -83 1.5 -135t6.5 -107t15.5 -86.5t27 -58t42 -37.5t61.5 -11q30 0 53.5 9.5t39.5 25t27 45.5t17.5 60.5t10 81t4.5 96.5t1 117v493q0 38 13 51q23 29 88 42.5 t127.5 11t113.5 -5.5q26 -2 42 -9t22 -20.5t7 -21.5t1 -27v-514q0 -103 -17 -190.5t-57.5 -166t-104 -133.5t-162.5 -87t-226 -32t-226 32t-162.5 87t-104.5 133.5t-58 166t-17 190.5zM326 1571q21 53 79.5 75t114.5 -8l418 -243q11 -11 8 -17l-28 -75q-3 -10 -17 -5 l-475 93q-61 12 -91 69.5t-9 110.5z"/>
<glyph unicode="Ú" horiz-adv-x="1261" d="M149.5 422q1.5 74 16.5 160l90 514q3 19 5.5 27t11 22t25.5 20.5t44 8.5q50 3 113 5.5t126 -11t81 -42.5q10 -10 4 -51l-86 -493q-11 -62 -18 -103.5t-13 -87.5t-6.5 -76t1.5 -60t10.5 -48t21.5 -33t32.5 -21t46.5 -6q36 0 63 11t49 38t37.5 58t30.5 86t26 107t26 135 l86 493q6 37 20 51q29 29 96.5 42.5t130 11t113.5 -5.5q33 -3 48 -15t13.5 -28.5t-3.5 -34.5l-91 -514q-19 -103 -51 -190.5t-87 -166t-128 -133.5t-177.5 -87t-231.5 -32q-107 0 -189.5 22t-136.5 63t-89 95.5t-48.5 124.5t-12 144zM555 1378q-2 8 12 17l461 243 q60 30 115.5 8t66.5 -75t-29 -110.5t-104 -69.5l-491 -93q-15 -5 -15 5z"/>
<glyph unicode="Û" horiz-adv-x="1261" d="M149.5 422q1.5 74 16.5 160l90 514q3 19 5.5 27t11 22t25.5 20.5t44 8.5q50 3 113 5.5t126 -11t81 -42.5q10 -10 4 -51l-86 -493q-11 -62 -18 -103.5t-13 -87.5t-6.5 -76t1.5 -60t10.5 -48t21.5 -33t32.5 -21t46.5 -6q36 0 63 11t49 38t37.5 58t30.5 86t26 107t26 135 l86 493q6 37 20 51q29 29 96.5 42.5t130 11t113.5 -5.5q33 -3 48 -15t13.5 -28.5t-3.5 -34.5l-91 -514q-19 -103 -51 -190.5t-87 -166t-128 -133.5t-177.5 -87t-231.5 -32q-107 0 -189.5 22t-136.5 63t-89 95.5t-48.5 124.5t-12 144zM542 1351q-2 7 3 11l280 293 q19 14 27 14h154q15 0 20 -14l178 -293q3 -5 -1 -11.5t-11 -9.5l-127 -57q-18 -7 -25 6l-141 215l-215 -215q-11 -14 -27 -6l-106 57q-7 3 -9 10z"/>
<glyph unicode="Ü" horiz-adv-x="1261" d="M149.5 422q1.5 74 16.5 160l90 514q3 19 5.5 27t11 22t25.5 20.5t44 8.5q50 3 113 5.5t126 -11t81 -42.5q10 -10 4 -51l-86 -493q-11 -62 -18 -103.5t-13 -87.5t-6.5 -76t1.5 -60t10.5 -48t21.5 -33t32.5 -21t46.5 -6q36 0 63 11t49 38t37.5 58t30.5 86t26 107t26 135 l86 493q6 37 20 51q29 29 96.5 42.5t130 11t113.5 -5.5q33 -3 48 -15t13.5 -28.5t-3.5 -34.5l-91 -514q-19 -103 -51 -190.5t-87 -166t-128 -133.5t-177.5 -87t-231.5 -32q-107 0 -189.5 22t-136.5 63t-89 95.5t-48.5 124.5t-12 144zM537 1479q10 60 60 101.5t110 41.5 t94 -41.5t24 -101.5q-11 -60 -60.5 -103t-109.5 -43t-94.5 43t-23.5 103zM956 1479q10 60 60 101.5t110 41.5t94.5 -41.5t24.5 -101.5q-11 -60 -60.5 -103t-109.5 -43t-95 43t-24 103z"/>
<glyph unicode="Ý" horiz-adv-x="1155" d="M189 1040.5q-2 9.5 0 24t15.5 28t39.5 25.5q69 34 189 57t157 -1q17 -14 28 -41l207 -381l183 194q55 60 104.5 133.5t65.5 126.5q4 16 19.5 22.5t27.5 2.5q57 -18 63 -21q174 -79 -149 -409q-11 -11 -43.5 -44.5t-96.5 -98t-125 -126.5l-81 -469q-3 -19 -5.5 -27 t-11 -21.5t-25.5 -20.5t-44 -10q-51 -3 -114 -5t-126 11.5t-82 42.5q-9 11 -2 49l78 444l-264 490q-6 15 -8 24.5zM582 1378q-2 8 12 17l461 243q60 30 115.5 8t66.5 -75t-29 -110.5t-104 -69.5l-492 -93q-14 -5 -14 5z"/>
<glyph unicode="Þ" horiz-adv-x="1181" d="M78 33q-7 11 0 49l196 1118q0 2 1 6q3 17 5.5 25.5t11 21t25.5 19t43 8.5q50 3 113 5t126.5 -11t82.5 -41q7 -13 0 -51l-20 -115q78 8 118 8q134 0 231.5 -34.5t149 -95.5t69.5 -139.5t1 -172.5t-62 -173t-118 -140t-182 -95.5t-244 -34.5q-52 0 -117 7l-23 -134 q-3 -20 -5 -27t-10.5 -21.5t-25.5 -21t-45 -9.5q-51 -3 -114 -5t-125.5 11.5t-81.5 42.5zM562 413q7 -101 83 -102q33 0 58.5 18t41.5 45t29 69t20.5 79.5t16.5 86.5q3 16 4 24q29 159 26 215q-4 104 -83 104q-40 0 -69 -23t-48 -75t-27.5 -88.5t-21.5 -110.5q-3 -15 -4 -22 q-29 -162 -26 -220z"/>
<glyph unicode="ß" horiz-adv-x="1431" d="M30.5 5.5q2.5 17.5 4.5 35.5l117 666h-84q-11 0 -11 12l21 110q4 15 14 15h84l2 8q60 331 359 397q247 55 399 -59q34 -25 53 -66t24.5 -117t-16.5 -186q-31 -175 160 -278q100 -51 136 -77q159 -110 112 -243q-21 -59 -70.5 -107.5t-111 -77.5t-133 -47.5t-137.5 -18 t-124 11.5q-159 38 -245 131q0 1 -1 4t-1 4l18 104q4 11 12 11q4 0 6 -2q41 -46 112.5 -73t139 -26t99.5 29q14 11 16 26.5t-13.5 39t-51.5 49.5q-9 6 -33 21q-120 79 -168 136q-71 84 -49 170q25 98 104 164q42 40 71 85.5t40 84.5t9 71t-17 48q-16 17 -44.5 26.5t-64 4 t-69 -27t-63 -74t-42.5 -128.5l-133 -747q-6 -40 -21 -52q-42 -43 -158 -72.5t-190 -27.5q-34 0 -49 12.5t-12.5 30z"/>
<glyph unicode="à" horiz-adv-x="1298" d="M98 391q39 220 227 348.5t523 128.5q117 0 309 -30q12 -2 20 -11t7 -22l-84 -477q-21 -111 51 -111q35 0 92.5 29.5t106.5 66.5q2 2 8 2q8 0 8 -10l-16 -90q0 -2 -4 -6q-111 -109 -233 -165t-239 -56q-189 0 -198 205q-10 -10 -35 -39.5t-41.5 -46.5t-47.5 -42.5 t-59.5 -40t-70 -25.5t-86.5 -11q-146 0 -209 105.5t-29 297.5zM462 379.5q0 -32.5 5 -53.5t15 -36.5t19.5 -23t22 -12t20.5 -5.5t17 -1q55 0 123 57l74 424q-240 0 -289 -276q-7 -41 -7 -73.5zM528 1147.5q-20 58.5 11 109.5q31 53 92.5 75.5t113.5 -7.5l375 -244 q1 -1 2.5 -3t2.5 -3.5t1 -4t-2 -5.5l-41 -76q-5 -8 -18 -4l-459 92q-58 12 -78 70.5z"/>
<glyph unicode="á" horiz-adv-x="1298" d="M98 391q39 220 227 348.5t523 128.5q117 0 309 -30q12 -2 20 -11t7 -22l-84 -477q-21 -111 51 -111q35 0 92.5 29.5t106.5 66.5q2 2 8 2q8 0 8 -10l-16 -90q0 -2 -4 -6q-111 -109 -233 -165t-239 -56q-189 0 -198 205q-10 -10 -35 -39.5t-41.5 -46.5t-47.5 -42.5 t-59.5 -40t-70 -25.5t-86.5 -11q-146 0 -209 105.5t-29 297.5zM462 379.5q0 -32.5 5 -53.5t15 -36.5t19.5 -23t22 -12t20.5 -5.5t17 -1q55 0 123 57l74 424q-240 0 -289 -276q-7 -41 -7 -73.5zM504 1065q-2 7 12 16l461 244q60 30 115.5 7.5t66.5 -75.5t-29 -110.5 t-104 -69.5l-491 -92q-15 -5 -15 4z"/>
<glyph unicode="â" horiz-adv-x="1298" d="M98 391q39 220 227 348.5t523 128.5q117 0 309 -30q12 -2 20 -11t7 -22l-84 -477q-21 -111 51 -111q35 0 92.5 29.5t106.5 66.5q2 2 8 2q8 0 8 -10l-16 -90q0 -2 -4 -6q-111 -109 -233 -165t-239 -56q-189 0 -198 205q-10 -10 -35 -39.5t-41.5 -46.5t-47.5 -42.5 t-59.5 -40t-70 -25.5t-86.5 -11q-146 0 -209 105.5t-29 297.5zM417 1027.5q-2 6.5 3 10.5l280 293q20 15 27 15h154q15 0 20 -15l178 -293q3 -4 -0.5 -10.5t-11.5 -9.5l-127 -57q-18 -7 -25 6l-141 215l-215 -215q-11 -14 -27 -6l-106 57q-7 3 -9 9.5zM462 379.5 q0 -32.5 5 -53.5t15 -36.5t19.5 -23t22 -12t20.5 -5.5t17 -1q55 0 123 57l74 424q-240 0 -289 -276q-7 -41 -7 -73.5z"/>
<glyph unicode="ã" horiz-adv-x="1298" d="M98 391q39 220 227 348.5t523 128.5q117 0 309 -30q12 -2 20 -11t7 -22l-84 -477q-21 -111 51 -111q35 0 92.5 29.5t106.5 66.5q2 2 8 2q8 0 8 -10l-16 -90q0 -2 -4 -6q-111 -109 -233 -165t-239 -56q-189 0 -198 205q-10 -10 -35 -39.5t-41.5 -46.5t-47.5 -42.5 t-59.5 -40t-70 -25.5t-86.5 -11q-146 0 -209 105.5t-29 297.5zM420 1083q49 86 99 144t112 82q87 34 172 -13q36 -18 45 -24q120 -83 215 45q7 11 18 6q2 -2 37 -22t37 -21q5 -11 0 -18q-103 -186 -209 -226q-84 -32 -172 13q-27 12 -45 24q-123 85 -215 -45 q-4 -4 -10.5 -5.5t-7.5 1.5q-4 1 -36.5 19t-37.5 22q-7 7 -2 18zM462 379.5q0 -32.5 5 -53.5t15 -36.5t19.5 -23t22 -12t20.5 -5.5t17 -1q55 0 123 57l74 424q-240 0 -289 -276q-7 -41 -7 -73.5z"/>
<glyph unicode="ä" horiz-adv-x="1298" d="M98 391q39 220 227 348.5t523 128.5q117 0 309 -30q12 -2 20 -11t7 -22l-84 -477q-21 -111 51 -111q35 0 92.5 29.5t106.5 66.5q2 2 8 2q8 0 8 -10l-16 -90q0 -2 -4 -6q-111 -109 -233 -165t-239 -56q-189 0 -198 205q-10 -10 -35 -39.5t-41.5 -46.5t-47.5 -42.5 t-59.5 -40t-70 -25.5t-86.5 -11q-146 0 -209 105.5t-29 297.5zM457 1161q10 60 61 102t111 42t93.5 -42t22.5 -102q-9 -60 -58 -102.5t-109 -42.5t-95 42.5t-26 102.5zM462 379.5q0 -32.5 5 -53.5t15 -36.5t19.5 -23t22 -12t20.5 -5.5t17 -1q55 0 123 57l74 424 q-240 0 -289 -276q-7 -41 -7 -73.5zM877 1161q10 60 61 102t111 42t93.5 -42t22.5 -102q-9 -60 -58.5 -102.5t-109.5 -42.5t-94.5 42.5t-25.5 102.5z"/>
<glyph unicode="å" horiz-adv-x="1298" d="M98 391q39 220 227 348.5t523 128.5q117 0 309 -30q12 -2 20 -11t7 -22l-84 -477q-21 -111 51 -111q35 0 92.5 29.5t106.5 66.5q2 2 8 2q8 0 8 -10l-16 -90q0 -2 -4 -6q-111 -109 -233 -165t-239 -56q-189 0 -198 205q-10 -10 -35 -39.5t-41.5 -46.5t-47.5 -42.5 t-59.5 -40t-70 -25.5t-86.5 -11q-146 0 -209 105.5t-29 297.5zM462 379.5q0 -32.5 5 -53.5t15 -36.5t19.5 -23t22 -12t20.5 -5.5t17 -1q55 0 123 57l74 424q-240 0 -289 -276q-7 -41 -7 -73.5zM543 1257q20 114 112.5 193.5t204.5 79.5q114 0 179.5 -79.5t45.5 -193.5 q-20 -113 -113.5 -191.5t-207.5 -78.5q-112 0 -176.5 78.5t-44.5 191.5zM688 1257q-9 -51 21.5 -87.5t81.5 -36.5q52 0 95 36.5t52 87.5q9 53 -20.5 89t-81.5 36t-95.5 -36.5t-52.5 -88.5z"/>
<glyph unicode="æ" horiz-adv-x="1689" d="M98 391q39 220 227 348.5t525 128.5q118 0 287 -26q95 24 188 24q80 0 142.5 -12.5t100 -34t63 -46t36 -53t14 -49t2.5 -40.5q-5 -75 -44 -135.5t-97 -98.5t-132.5 -64t-146 -36.5t-143.5 -11.5q-11 0 -8 10q-4 27 8 74q3 7 10 10q102 18 175.5 53.5t80.5 77.5 q8 41 -17.5 67.5t-74.5 20.5q-30 -3 -57 -14.5t-56 -35t-51.5 -68.5t-33.5 -107q-10 -62 -8 -108t41 -72.5t118 -26.5q108 0 250.5 44t243.5 103q4 2 8 2q8 0 8 -10l-16 -90q0 -4 -4 -6q-133 -93 -302 -154.5t-317 -70.5q-95 -4 -177 13.5t-152.5 69.5t-98.5 136 q-7 -8 -26.5 -31t-30.5 -36t-33 -35t-39.5 -35t-44.5 -30t-52.5 -26t-59 -15.5t-68.5 -6.5q-144 0 -207.5 105.5t-30.5 297.5zM464 379.5q0 -32.5 5 -53.5t15 -36.5t19.5 -23t22 -12t20.5 -5.5t17 -1q49 0 109 49q-4 83 24.5 174t102.5 172q40 42 92 82q-93 8 -166 4 q-207 -19 -254 -276q-7 -41 -7 -73.5z"/>
<glyph unicode="ç" horiz-adv-x="1112" d="M100 262q-13 84 12.5 187.5t108.5 193.5q100 109 242.5 166t284.5 57q64 0 118 -8.5t89.5 -23t64.5 -34t43.5 -40t26.5 -41.5t13.5 -39.5t4 -33.5t-1.5 -23q-12 -69 -67 -116.5t-121 -47.5q-62 0 -95.5 23.5t-35.5 56t7.5 62.5t26.5 48q30 27 -2 49q-21 12 -53 2 q-54 -14 -98.5 -45.5t-71 -70.5t-46.5 -84t-26 -85.5t-9.5 -75.5t3.5 -54q22 -109 184 -109q101 0 232 40.5t229 96.5q4 2 11 2q8 0 8 -10l-17 -90q0 -2 -4 -6q-128 -91 -289 -151t-307 -72l-10 -66q7 -1 18 -4t38.5 -15t46.5 -27t31 -42t3 -59q-15 -55 -60.5 -93.5 t-100.5 -54t-107.5 -23t-87.5 -6.5l-35 1l21 122q93 0 153 21t66 61q4 24 -20.5 41.5t-51.5 23.5l-27 5l21 115q-66 3 -124.5 19.5t-109.5 48t-85 85t-44 123.5z"/>
<glyph unicode="è" horiz-adv-x="1112" d="M98 262q-11 85 14.5 188t108.5 193q100 109 242.5 166t284.5 57q95 0 165.5 -18.5t106.5 -44.5t57.5 -61.5t26.5 -60.5t4 -50q-5 -75 -44.5 -135.5t-97.5 -98.5t-132.5 -64t-146.5 -36.5t-144 -11.5q-8 0 -8 10q0 42 8 74l10 10q103 18 176 53.5t80 77.5q8 41 -17.5 67.5 t-74.5 20.5q-29 -3 -56 -14.5t-56.5 -35t-52.5 -68.5t-34 -107q-10 -62 -7 -108t41.5 -72.5t117.5 -26.5q108 0 251 44.5t242 102.5q4 2 11 2q8 0 8 -10l-17 -90q0 -3 -6 -6q-132 -94 -300 -155t-318 -70q-77 -3 -147 9.5t-134 42.5t-107 88t-55 138zM489 1147.5 q-20 58.5 11 109.5q30 53 92.5 75.5t114.5 -7.5l374 -244q1 -1 2.5 -3t2.5 -3.5t1 -4t-2 -5.5l-41 -76q-5 -8 -18 -4l-459 92q-58 12 -78 70.5z"/>
<glyph unicode="é" horiz-adv-x="1112" d="M98 262q-11 85 14.5 188t108.5 193q100 109 242.5 166t284.5 57q95 0 165.5 -18.5t106.5 -44.5t57.5 -61.5t26.5 -60.5t4 -50q-5 -75 -44.5 -135.5t-97.5 -98.5t-132.5 -64t-146.5 -36.5t-144 -11.5q-8 0 -8 10q0 42 8 74l10 10q103 18 176 53.5t80 77.5q8 41 -17.5 67.5 t-74.5 20.5q-29 -3 -56 -14.5t-56.5 -35t-52.5 -68.5t-34 -107q-10 -62 -7 -108t41.5 -72.5t117.5 -26.5q108 0 251 44.5t242 102.5q4 2 11 2q8 0 8 -10l-17 -90q0 -3 -6 -6q-132 -94 -300 -155t-318 -70q-77 -3 -147 9.5t-134 42.5t-107 88t-55 138zM449 1065q-2 7 12 16 l461 244q60 30 115.5 7.5t66.5 -75.5t-29 -110.5t-104 -69.5l-492 -92q-14 -5 -14 4z"/>
<glyph unicode="ê" horiz-adv-x="1112" d="M98 262q-11 85 14.5 188t108.5 193q100 109 242.5 166t284.5 57q95 0 165.5 -18.5t106.5 -44.5t57.5 -61.5t26.5 -60.5t4 -50q-5 -75 -44.5 -135.5t-97.5 -98.5t-132.5 -64t-146.5 -36.5t-144 -11.5q-8 0 -8 10q0 42 8 74l10 10q103 18 176 53.5t80 77.5q8 41 -17.5 67.5 t-74.5 20.5q-29 -3 -56 -14.5t-56.5 -35t-52.5 -68.5t-34 -107q-10 -62 -7 -108t41.5 -72.5t117.5 -26.5q108 0 251 44.5t242 102.5q4 2 11 2q8 0 8 -10l-17 -90q0 -3 -6 -6q-132 -94 -300 -155t-318 -70q-77 -3 -147 9.5t-134 42.5t-107 88t-55 138zM417 1027.5 q-2 6.5 3 10.5l280 293q20 15 27 15h154q15 0 20 -15l178 -293q3 -4 -0.5 -10.5t-11.5 -9.5l-127 -57q-18 -7 -25 6l-141 215l-215 -215q-11 -14 -27 -6l-106 57q-7 3 -9 9.5z"/>
<glyph unicode="ë" horiz-adv-x="1112" d="M98 262q-11 85 14.5 188t108.5 193q100 109 242.5 166t284.5 57q95 0 165.5 -18.5t106.5 -44.5t57.5 -61.5t26.5 -60.5t4 -50q-5 -75 -44.5 -135.5t-97.5 -98.5t-132.5 -64t-146.5 -36.5t-144 -11.5q-8 0 -8 10q0 42 8 74l10 10q103 18 176 53.5t80 77.5q8 41 -17.5 67.5 t-74.5 20.5q-29 -3 -56 -14.5t-56.5 -35t-52.5 -68.5t-34 -107q-10 -62 -7 -108t41.5 -72.5t117.5 -26.5q108 0 251 44.5t242 102.5q4 2 11 2q8 0 8 -10l-17 -90q0 -3 -6 -6q-132 -94 -300 -155t-318 -70q-77 -3 -147 9.5t-134 42.5t-107 88t-55 138zM438 1161q10 60 61 102 t111 42t94 -42t23 -102q-9 -60 -58.5 -102.5t-109.5 -42.5t-95 42.5t-26 102.5zM858 1161q10 60 61 102t111 42t94 -42t23 -102q-9 -60 -58.5 -102.5t-109.5 -42.5t-95 42.5t-26 102.5z"/>
<glyph unicode="ì" horiz-adv-x="677" d="M57 218.5q1 41.5 9 86.5l84 477q3 19 6 28.5t11 23.5t25.5 20.5t43.5 7.5q74 2 179 -27.5t132 -72.5q10 -15 4 -51l-68 -383q-21 -111 49 -111q35 0 92.5 29.5t106.5 66.5q4 2 8 2q9 0 9 -10l-17 -90q0 -4 -4 -6q-108 -108 -229.5 -164.5t-239.5 -56.5q-58 0 -99.5 20 t-62.5 51.5t-30.5 74.5t-8.5 84.5zM128.5 1147.5q-20.5 58.5 10.5 109.5q30 53 92.5 75.5t114.5 -7.5l375 -244q1 -1 2.5 -3t2.5 -3.5t1 -4t-2 -5.5l-41 -76q-5 -8 -18 -4l-459 92q-58 12 -78.5 70.5z"/>
<glyph unicode="í" horiz-adv-x="696" d="M57 218.5q1 41.5 9 86.5l84 477q3 19 6 28.5t11 23.5t25.5 20.5t43.5 7.5q74 2 179 -27.5t132 -72.5q10 -15 4 -51l-68 -383q-21 -111 49 -111q35 0 92.5 29.5t106.5 66.5q4 2 8 2q9 0 9 -10l-17 -90q0 -4 -4 -6q-108 -108 -229.5 -164.5t-239.5 -56.5q-58 0 -99.5 20 t-62.5 51.5t-30.5 74.5t-8.5 84.5zM106 1065q-2 6 13 16l461 244q60 30 115.5 7.5t66.5 -75.5t-29 -110.5t-104 -69.5l-492 -92q-14 -5 -14 4z"/>
<glyph unicode="î" horiz-adv-x="677" d="M57 218.5q1 41.5 9 86.5l84 477q3 19 6 28.5t11 23.5t25.5 20.5t43.5 7.5q74 2 179 -27.5t132 -72.5q10 -15 4 -51l-68 -383q-21 -111 49 -111q35 0 92.5 29.5t106.5 66.5q4 2 8 2q9 0 9 -10l-17 -90q0 -4 -4 -6q-108 -108 -229.5 -164.5t-239.5 -56.5q-58 0 -99.5 20 t-62.5 51.5t-30.5 74.5t-8.5 84.5zM73 1027.5q-2 6.5 3 10.5l280 293q20 15 27 15h154q15 0 20 -15l178 -293q3 -4 -1 -10.5t-11 -9.5l-127 -57q-18 -7 -25 6l-141 215l-215 -215q-11 -14 -27 -6l-106 57q-7 3 -9 9.5z"/>
<glyph unicode="ï" horiz-adv-x="706" d="M57 218.5q1 41.5 9 86.5l84 477q3 19 6 28.5t11 23.5t25.5 20.5t43.5 7.5q74 2 179 -27.5t132 -72.5q10 -15 4 -51l-68 -383q-21 -111 49 -111q35 0 92.5 29.5t106.5 66.5q4 2 8 2q9 0 9 -10l-17 -90q0 -4 -4 -6q-108 -108 -229.5 -164.5t-239.5 -56.5q-58 0 -99.5 20 t-62.5 51.5t-30.5 74.5t-8.5 84.5zM63 1161q10 60 61.5 102t111.5 42t93.5 -42t22.5 -102q-9 -60 -58.5 -102.5t-109.5 -42.5t-95 42.5t-26 102.5zM483 1161q10 60 61 102t111 42t94 -42t23 -102q-9 -60 -58.5 -102.5t-109.5 -42.5t-95 42.5t-26 102.5z"/>
<glyph unicode="ð" horiz-adv-x="1167" d="M133 416q14 79 50 145.5t82.5 111.5t107 80.5t116 56t117.5 34.5t104.5 19t82.5 7q-11 35 -50 107l-251 -45q-9 -2 -17 3.5t-8 14.5l2 88q0 9 6 17t14 10l162 27q-20 21 -82 75q-3 5 -3 12.5t3 10.5q56 39 131 78q18 8 25 -2q93 -52 180 -129l258 45q9 2 17 -4t8 -15 l-2 -88q0 -8 -6 -15.5t-15 -8.5l-151 -27q112 -140 151.5 -297t12.5 -311q-16 -92 -59.5 -168.5t-115.5 -136.5t-180.5 -93.5t-242.5 -33.5q-135 0 -231.5 33.5t-147 93.5t-67.5 136.5t-1 168.5zM491 324.5q-2 -41.5 1.5 -69.5t12.5 -48.5t19.5 -31.5t26 -17.5t28.5 -8.5 t29 -2q24 0 42.5 4t44 20t44.5 43.5t38.5 79.5t31.5 124q32 169 16 307q-149 -23 -223.5 -96.5t-99.5 -210.5q-9 -52 -11 -93.5z"/>
<glyph unicode="ñ" horiz-adv-x="1333" d="M6 25l133 757q3 20 5.5 28.5t11 23.5t25.5 21t44 7q73 2 179 -27.5t133 -72.5q8 -15 2 -51l-4 -15q128 96 229.5 144.5t200.5 48.5q45 0 80.5 -12.5t56.5 -31.5t35 -47t20 -52.5t7.5 -55.5t0 -49t-3.5 -39l-22 -272q-11 -113 49 -113q36 0 92 29t106 67q4 2 9 2 q8 0 8 -10l-17 -90q0 -4 -4 -6q-108 -108 -229.5 -164.5t-239.5 -56.5q-45 0 -80 12.5t-56 29.5t-35 46t-19.5 51t-7 55.5t-1 48.5t2.5 41l28 299q4 43 -20.5 58t-64.5 4t-76 -27t-70 -37l-92 -518q-3 -13 -14 -23t-23 -12l-350 -24h-2q-14 0 -22 10t-5 23zM393 1083 q49 86 99 144t112 82q87 34 172 -13q36 -18 45 -24q120 -83 215 45q3 4 9.5 6t9.5 0q2 -2 37 -22t36 -21q5 -11 0 -18q-47 -85 -96.5 -143.5t-111.5 -82.5q-84 -32 -172 13q-30 13 -46 24q-123 85 -215 -45q-4 -4 -10.5 -5.5t-7.5 1.5q-4 1 -36.5 19t-37.5 22q-7 7 -2 18z "/>
<glyph unicode="ò" horiz-adv-x="1118" d="M104 424q34 195 189 318.5t418 123.5q135 0 232 -34.5t148.5 -95.5t69 -139.5t0.5 -172.5t-61.5 -172.5t-117.5 -139.5t-182.5 -95.5t-244.5 -34.5q-134 0 -231.5 34.5t-149 95.5t-69.5 139.5t-1 172.5zM489 1147.5q-20 58.5 11 109.5q30 53 92.5 75.5t114.5 -7.5 l374 -244q1 -1 2.5 -3t2.5 -3.5t1 -4t-2 -5.5l-41 -76q-5 -8 -18 -4l-459 92q-58 12 -78 70.5zM493 211q2 -109 82 -109q87 0 131 132q17 54 42 190q29 161 26 219q-6 100 -84 100q-40 0 -69 -23t-48 -75t-27.5 -88.5t-21.5 -110.5q-3 -15 -4 -22q-29 -159 -27 -213z"/>
<glyph unicode="ó" horiz-adv-x="1118" d="M104 424q34 195 189 318.5t418 123.5q135 0 232 -34.5t148.5 -95.5t69 -139.5t0.5 -172.5t-61.5 -172.5t-117.5 -139.5t-182.5 -95.5t-244.5 -34.5q-134 0 -231.5 34.5t-149 95.5t-69.5 139.5t-1 172.5zM424 1065q-2 7 12 16l461 244q60 30 115.5 7.5t66.5 -75.5 t-29 -110.5t-104 -69.5l-491 -92q-15 -5 -15 4zM493 211q2 -109 82 -109q87 0 131 132q17 54 42 190q29 161 26 219q-6 100 -84 100q-40 0 -69 -23t-48 -75t-27.5 -88.5t-21.5 -110.5q-3 -15 -4 -22q-29 -159 -27 -213z"/>
<glyph unicode="ô" horiz-adv-x="1118" d="M104 424q34 195 189 318.5t418 123.5q135 0 232 -34.5t148.5 -95.5t69 -139.5t0.5 -172.5t-61.5 -172.5t-117.5 -139.5t-182.5 -95.5t-244.5 -34.5q-134 0 -231.5 34.5t-149 95.5t-69.5 139.5t-1 172.5zM409 1027.5q-2 6.5 3 10.5l280 293q20 15 27 15h153q16 0 21 -15 l178 -293q3 -4 -0.5 -10.5t-11.5 -9.5l-127 -57q-18 -7 -25 6l-141 215l-215 -215q-11 -14 -27 -6l-106 57q-7 3 -9 9.5zM493 211q2 -109 82 -109q87 0 131 132q17 54 42 190q29 161 26 219q-6 100 -84 100q-40 0 -69 -23t-48 -75t-27.5 -88.5t-21.5 -110.5q-3 -15 -4 -22 q-29 -159 -27 -213z"/>
<glyph unicode="õ" horiz-adv-x="1118" d="M104 424q34 195 189 318.5t418 123.5q135 0 232 -34.5t148.5 -95.5t69 -139.5t0.5 -172.5t-61.5 -172.5t-117.5 -139.5t-182.5 -95.5t-244.5 -34.5q-134 0 -231.5 34.5t-149 95.5t-69.5 139.5t-1 172.5zM397 1083q49 86 99 144t112 82q87 34 172 -13q36 -18 45 -24 q120 -83 215 45q3 4 9.5 6t9.5 0q2 -2 37 -22t37 -21q5 -11 0 -18q-103 -186 -209 -226q-84 -32 -172 13q-27 12 -45 24q-123 85 -215 -45q-4 -4 -11 -5.5t-8 1.5q-4 1 -36.5 19t-37.5 22q-7 7 -2 18zM493 211q2 -109 82 -109q87 0 131 132q17 54 42 190q29 161 26 219 q-6 100 -84 100q-40 0 -69 -23t-48 -75t-27.5 -88.5t-21.5 -110.5q-3 -15 -4 -22q-29 -159 -27 -213z"/>
<glyph unicode="ö" horiz-adv-x="1118" d="M104 424q34 195 189 318.5t418 123.5q135 0 232 -34.5t148.5 -95.5t69 -139.5t0.5 -172.5t-61.5 -172.5t-117.5 -139.5t-182.5 -95.5t-244.5 -34.5q-134 0 -231.5 34.5t-149 95.5t-69.5 139.5t-1 172.5zM408 1161q10 60 61 102t111 42t93.5 -42t22.5 -102 q-9 -60 -58.5 -102.5t-109.5 -42.5t-94.5 42.5t-25.5 102.5zM493 211q2 -109 82 -109q87 0 131 132q17 54 42 190q29 161 26 219q-6 100 -84 100q-40 0 -69 -23t-48 -75t-27.5 -88.5t-21.5 -110.5q-3 -15 -4 -22q-29 -159 -27 -213zM827 1161q10 60 61 102t111 42t94 -42 t23 -102q-9 -60 -58.5 -102.5t-109.5 -42.5t-95 42.5t-26 102.5z"/>
<glyph unicode="÷" horiz-adv-x="995" d="M139 440l62 191q7 18 22 18h809q6 0 9.5 -5.5t0.5 -12.5l-61 -191q-2 -8 -9 -14t-14 -6h-808q-6 0 -9.5 6t-1.5 14zM393 199q9 57 57.5 98t106.5 41t91 -40.5t24 -98.5q-11 -59 -59.5 -100.5t-106.5 -41.5t-91 41.5t-22 100.5zM512 872q9 58 57 99t107 41q58 0 91 -40.5 t24 -99.5q-10 -58 -57.5 -98.5t-106.5 -40.5t-92 40.5t-23 98.5z"/>
<glyph unicode="ø" horiz-adv-x="1118" d="M106 424q17 94 62 172.5t118 139.5t182.5 95.5t244.5 34.5q113 0 196 -24l66 80q16 16 26 2l48 -60q12 -16 -2 -33l-29 -34q96 -57 131.5 -154t13.5 -219q-34 -195 -188.5 -318.5t-417.5 -123.5q-111 0 -197 22l-65 -78q-16 -16 -27 -2l-49 60q-11 15 4 30l29 35 q-96 59 -132 156t-14 219zM498 172q17 -70 80 -70q33 0 58.5 18t41.5 45t29 69t20.5 79.5t16.5 86.5q3 16 4 24q8 39 10 61zM510 362l260 312q-13 69 -78 69q-41 0 -70 -23.5t-48.5 -77.5t-28 -90t-22.5 -112q-2 -11 -3 -16q-8 -38 -10 -62z"/>
<glyph unicode="ù" horiz-adv-x="1286" d="M43 214q1 30 6 58l94 537q3 20 5.5 28t11 23t25.5 21.5t44 7.5q72 2 178.5 -29t133.5 -74q8 -14 2 -49l-76 -434q-14 -74 52 -65q53 6 155 67l88 502q3 13 14 23t25 12l348 24h2q14 0 23 -10t6 -25l-88 -503q-21 -111 49 -111q35 0 91.5 29.5t106.5 66.5q4 2 9 2 q8 0 8 -10l-17 -90q0 -4 -4 -6q-108 -108 -229.5 -164.5t-239.5 -56.5q-58 0 -98.5 18.5t-61 50.5t-29 64.5t-9.5 71.5q-2 -2 -14.5 -11.5t-14.5 -11.5q-120 -94 -208 -139t-185 -45q-63 0 -106 23.5t-62.5 56t-27.5 75.5t-7 73zM446 1147.5q-20 58.5 11 109.5 q30 53 92.5 75.5t114.5 -7.5l374 -244q1 -1 2.5 -3t2.5 -3.5t1 -4t-2 -5.5l-41 -76q-5 -8 -18 -4l-459 92q-58 12 -78 70.5z"/>
<glyph unicode="ú" horiz-adv-x="1286" d="M43 214q1 30 6 58l94 537q3 20 5.5 28t11 23t25.5 21.5t44 7.5q72 2 178.5 -29t133.5 -74q8 -14 2 -49l-76 -434q-14 -74 52 -65q53 6 155 67l88 502q3 13 14 23t25 12l348 24h2q14 0 23 -10t6 -25l-88 -503q-21 -111 49 -111q35 0 91.5 29.5t106.5 66.5q4 2 9 2 q8 0 8 -10l-17 -90q0 -4 -4 -6q-108 -108 -229.5 -164.5t-239.5 -56.5q-58 0 -98.5 18.5t-61 50.5t-29 64.5t-9.5 71.5q-2 -2 -14.5 -11.5t-14.5 -11.5q-120 -94 -208 -139t-185 -45q-63 0 -106 23.5t-62.5 56t-27.5 75.5t-7 73zM451 1065q-2 7 12 16l461 244 q60 30 115.5 7.5t66.5 -75.5t-29 -110.5t-104 -69.5l-492 -92q-14 -5 -14 4z"/>
<glyph unicode="û" horiz-adv-x="1286" d="M43 214q1 30 6 58l94 537q3 20 5.5 28t11 23t25.5 21.5t44 7.5q72 2 178.5 -29t133.5 -74q8 -14 2 -49l-76 -434q-14 -74 52 -65q53 6 155 67l88 502q3 13 14 23t25 12l348 24h2q14 0 23 -10t6 -25l-88 -503q-21 -111 49 -111q35 0 91.5 29.5t106.5 66.5q4 2 9 2 q8 0 8 -10l-17 -90q0 -4 -4 -6q-108 -108 -229.5 -164.5t-239.5 -56.5q-58 0 -98.5 18.5t-61 50.5t-29 64.5t-9.5 71.5q-2 -2 -14.5 -11.5t-14.5 -11.5q-120 -94 -208 -139t-185 -45q-63 0 -106 23.5t-62.5 56t-27.5 75.5t-7 73zM384 1027.5q-2 6.5 3 10.5l281 293 q1 1 6.5 6t10 7t9.5 2h154q15 0 20 -15l179 -293q3 -4 -1 -10.5t-12 -9.5l-127 -57q-17 -7 -24 6l-142 215l-215 -215q-10 -14 -26 -6l-107 57q-7 3 -9 9.5z"/>
<glyph unicode="ü" horiz-adv-x="1286" d="M43 214q1 30 6 58l94 537q3 20 5.5 28t11 23t25.5 21.5t44 7.5q72 2 178.5 -29t133.5 -74q8 -14 2 -49l-76 -434q-14 -74 52 -65q53 6 155 67l88 502q3 13 14 23t25 12l348 24h2q14 0 23 -10t6 -25l-88 -503q-21 -111 49 -111q35 0 91.5 29.5t106.5 66.5q4 2 9 2 q8 0 8 -10l-17 -90q0 -4 -4 -6q-108 -108 -229.5 -164.5t-239.5 -56.5q-58 0 -98.5 18.5t-61 50.5t-29 64.5t-9.5 71.5q-2 -2 -14.5 -11.5t-14.5 -11.5q-120 -94 -208 -139t-185 -45q-63 0 -106 23.5t-62.5 56t-27.5 75.5t-7 73zM387 1161q10 60 61 102t111 42t94 -42 t23 -102q-9 -60 -58.5 -102.5t-109.5 -42.5t-95 42.5t-26 102.5zM807 1161q10 60 61 102t111 42t94 -42t23 -102q-9 -60 -58.5 -102.5t-109.5 -42.5t-95 42.5t-26 102.5z"/>
<glyph unicode="ý" horiz-adv-x="1134" d="M74 -256q12 57 45.5 98.5t72 62.5t87.5 32.5t83 13.5t68 0q49 -3 119.5 -13.5t109.5 -15.5q37 -4 59.5 12t28 44.5t2 60.5t-15.5 61q-88 -20 -168 -20q-218 0 -348.5 115t-101.5 278l45 264q6 35 20 49q43 43 160 74t188 29q34 -1 49 -14t13 -30.5t-4 -35.5l-60 -336 q-11 -64 -15 -107t-0.5 -83t23 -60t54.5 -20q28 0 50.5 14.5t37.5 37t28.5 59.5t21.5 72.5t17 86.5l45 264q6 34 21 49q43 43 160 74t188 29q34 -1 49 -14t12.5 -30.5t-4.5 -35.5l-59 -336q-18 -104 -99 -192.5t-202 -141.5q158 -148 129 -348q-8 -59 -56 -111.5t-124 -77.5 t-174 7q-3 1 -51.5 16.5t-77.5 24.5t-67.5 18.5t-55.5 9.5q-37 0 -55 -26.5t-13 -65t29 -73.5q42 -55 80 -91q11 -11 -2 -18l-74 -66q-13 -6 -23 -4q-156 48 -223 205q-45 96 -22 205zM446 1065q-2 6 13 16l461 244q60 30 115.5 7.5t66.5 -75.5t-29 -110.5t-104 -69.5 l-492 -92q-14 -5 -14 4z"/>
<glyph unicode="þ" horiz-adv-x="1181" d="M-2 -373l276 1573q0 2 1 6q3 17 5.5 25.5t11 21t25.5 19t43 8.5q50 3 113 5t126.5 -11t82.5 -41q7 -13 0 -51l-57 -324q52 8 118 8q134 0 231.5 -34.5t149 -95.5t69.5 -139.5t1 -172.5q-34 -195 -188.5 -318.5t-417.5 -123.5q-62 0 -117 6l-65 -379q-3 -20 -5.5 -27.5 t-10.5 -21.5t-25.5 -21t-45.5 -10q-51 -3 -114 -5t-125 11t-80 41q-8 16 -2 51zM525 204q5 -102 83 -102q33 0 58.5 18t41.5 45t29 69t20.5 79.5t16.5 86.5q3 16 4 24q1 7 4 22q7 37 10 55.5t8 51.5t5 51t-0.5 44t-6.5 40t-14.5 28.5t-24 20.5t-36.5 6q-41 0 -70 -23.5 t-48.5 -77.5t-28 -90t-22.5 -112q-2 -11 -3 -16q-29 -162 -26 -220z"/>
<glyph unicode="ÿ" horiz-adv-x="1134" d="M74 -256q12 57 45.5 98.5t72 62.5t87.5 32.5t83 13.5t68 0q49 -3 119.5 -13.5t109.5 -15.5q37 -4 59.5 12t28 44.5t2 60.5t-15.5 61q-88 -20 -168 -20q-218 0 -348.5 115t-101.5 278l45 264q6 35 20 49q43 43 160 74t188 29q34 -1 49 -14t13 -30.5t-4 -35.5l-60 -336 q-11 -64 -15 -107t-0.5 -83t23 -60t54.5 -20q28 0 50.5 14.5t37.5 37t28.5 59.5t21.5 72.5t17 86.5l45 264q6 34 21 49q43 43 160 74t188 29q34 -1 49 -14t12.5 -30.5t-4.5 -35.5l-59 -336q-18 -104 -99 -192.5t-202 -141.5q158 -148 129 -348q-8 -59 -56 -111.5t-124 -77.5 t-174 7q-3 1 -51.5 16.5t-77.5 24.5t-67.5 18.5t-55.5 9.5q-37 0 -55 -26.5t-13 -65t29 -73.5q42 -55 80 -91q11 -11 -2 -18l-74 -66q-13 -6 -23 -4q-156 48 -223 205q-45 96 -22 205zM414 1161q10 60 61 102t111 42t93.5 -42t22.5 -102q-9 -60 -58 -102.5t-109 -42.5 t-95 42.5t-26 102.5zM834 1161q10 60 61 102t111 42t93.5 -42t22.5 -102q-9 -60 -58.5 -102.5t-109.5 -42.5t-94.5 42.5t-25.5 102.5z"/>
<glyph unicode="Œ" horiz-adv-x="1931" d="M122 435.5q-4 78.5 13 162.5q23 131 78 240t143 194t217 132.5t287 47.5q215 0 348 -90q173 90 387 90q60 0 110.5 -6.5t87 -18t66 -27.5t48.5 -33t32.5 -36.5t20 -37.5t9.5 -36t3 -30.5t-2 -23.5q-12 -70 -65.5 -118t-120.5 -48q-66 0 -104.5 48.5t-26.5 117.5 q6 39 26 67q-21 12 -61 12q-93 0 -158.5 -42.5t-91.5 -120.5q-11 -32 -11.5 -65t12 -63.5t37 -54t66 -37.5t95.5 -14q6 0 10 -5t4 -11l-14 -78q-3 -14 -19 -14q-63 0 -115 -14.5t-86 -38t-57.5 -53.5t-32.5 -61t-8 -59.5t13 -50.5q39 -71 176.5 -77.5t286.5 33t257 97.5 q4 2 9 2q8 0 8 -10l-17 -90q0 -4 -4 -6q-149 -99 -331.5 -162t-364.5 -63q-192 0 -313 63q-144 -61 -326 -61q-106 0 -192.5 22t-145.5 61.5t-101 95.5t-60 124t-22 146.5zM539.5 269q24.5 -105 136.5 -105q98 0 155 80q-6 118 84.5 222t227.5 124q-98 25 -139.5 86.5 t-30.5 142.5q5 110 -29.5 161.5t-116.5 51.5q-111 0 -168.5 -99t-99.5 -335q-44 -224 -19.5 -329z"/>
<glyph unicode="œ" horiz-adv-x="1759" d="M104 424q34 195 189 318.5t418 123.5q211 0 333 -88q169 88 349 88q69 0 125.5 -10t93.5 -25t64.5 -37t42 -43t23 -45t10.5 -41t1 -34q-5 -75 -44 -135.5t-97 -98.5t-132.5 -64t-146 -36.5t-143.5 -11.5q-10 0 -10 10q0 34 10 74q4 8 10 10q101 18 174 53.5t82 77.5 q8 41 -18 67.5t-74 20.5q-162 -19 -199 -225q-10 -62 -7.5 -108t41.5 -72.5t118 -26.5q108 0 250 44t243 103q4 2 9 2q8 0 8 -10l-17 -90q0 -4 -4 -6q-133 -94 -302 -155t-318 -70q-186 -7 -303 65q-137 -67 -328 -67q-134 0 -231.5 34.5t-149 95.5t-69.5 139.5t-1 172.5z M493 211q2 -109 82 -109q87 0 131 132q17 54 42 190q29 161 26 219q-6 100 -84 100q-40 0 -69 -23t-48 -75t-27.5 -88.5t-21.5 -110.5q-3 -15 -4 -22q-29 -159 -27 -213z"/>
<glyph unicode="Ÿ" horiz-adv-x="1155" d="M189 1040.5q-2 9.5 0 24t15.5 28t39.5 25.5q69 34 189 57t157 -1q17 -14 28 -41l207 -381l183 194q55 60 104.5 133.5t65.5 126.5q4 16 19.5 22.5t27.5 2.5q57 -18 63 -21q174 -79 -149 -409q-11 -11 -43.5 -44.5t-96.5 -98t-125 -126.5l-81 -469q-3 -19 -5.5 -27 t-11 -21.5t-25.5 -20.5t-44 -10q-51 -3 -114 -5t-126 11.5t-82 42.5q-9 11 -2 49l78 444l-264 490q-6 15 -8 24.5zM563 1479q10 60 60 101.5t110 41.5t94.5 -41.5t24.5 -101.5q-11 -60 -60.5 -103t-109.5 -43t-95 43t-24 103zM983 1479q10 60 60 101.5t110 41.5t94.5 -41.5 t24.5 -101.5q-11 -60 -60.5 -103t-109.5 -43t-95 43t-24 103z"/>
<glyph unicode="ˆ" horiz-adv-x="788" d="M63 1038l230 293q15 15 24 15h154q13 0 23 -15l229 -293q5 -4 2 -10.5t-10 -9.5l-117 -57q-17 -7 -27 6l-178 215l-178 -215q-3 -6 -11 -7.5t-14 1.5l-116 57q-7 3 -10.5 9t-0.5 11z"/>
<glyph unicode="˜" horiz-adv-x="831" d="M63 1083q34 85 74.5 143.5t98.5 82.5q81 35 174 -13q32 -14 49 -24q134 -84 207 45q7 10 18 6q2 -2 40 -22t40 -21q9 -9 4 -18q-71 -186 -170 -226q-76 -33 -174 13q-31 14 -49 24q-136 85 -207 -45q-3 -4 -9 -5.5t-9 1.5q-4 1 -39.5 19.5t-40.5 21.5q-10 7 -7 18z"/>
<glyph unicode=" " horiz-adv-x="910"/>
<glyph unicode=" " horiz-adv-x="1821"/>
<glyph unicode=" " horiz-adv-x="910"/>
<glyph unicode=" " horiz-adv-x="1821"/>
<glyph unicode=" " horiz-adv-x="607"/>
<glyph unicode=" " horiz-adv-x="455"/>
<glyph unicode=" " horiz-adv-x="303"/>
<glyph unicode=" " horiz-adv-x="303"/>
<glyph unicode=" " horiz-adv-x="227"/>
<glyph unicode=" " horiz-adv-x="364"/>
<glyph unicode=" " horiz-adv-x="101"/>
<glyph unicode="‐" horiz-adv-x="808" d="M130.5 375.5q-2.5 6.5 0.5 13.5l59 191q8 20 25 20h621q7 0 10 -6t0 -14l-60 -191q-3 -7 -10.5 -13.5t-13.5 -6.5h-623q-6 0 -8.5 6.5z"/>
<glyph unicode="‑" horiz-adv-x="808" d="M130.5 375.5q-2.5 6.5 0.5 13.5l59 191q8 20 25 20h621q7 0 10 -6t0 -14l-60 -191q-3 -7 -10.5 -13.5t-13.5 -6.5h-623q-6 0 -8.5 6.5z"/>
<glyph unicode="‒" horiz-adv-x="808" d="M130.5 375.5q-2.5 6.5 0.5 13.5l59 191q8 20 25 20h621q7 0 10 -6t0 -14l-60 -191q-3 -7 -10.5 -13.5t-13.5 -6.5h-623q-6 0 -8.5 6.5z"/>
<glyph unicode="–" horiz-adv-x="995" d="M139 440l62 191q7 18 22 18h809q6 0 9.5 -5.5t0.5 -12.5l-61 -191q-2 -8 -9 -14t-14 -6h-808q-6 0 -9.5 6t-1.5 14z"/>
<glyph unicode="—" horiz-adv-x="1308" d="M139 440l62 191q7 18 20 18h1125q17 0 10 -18l-60 -191q-1 -7 -8.5 -13.5t-13.5 -6.5h-1124q-6 0 -9.5 6t-1.5 14z"/>
<glyph unicode="‘" horiz-adv-x="415" d="M217 893q18 100 88 191.5t170 181.5q10 10 21 2l45 -58q8 -8 -2 -18q-60 -71 -74 -97q-21 -39 -14 -69q34 -17 50 -53t9 -80q-9 -60 -59.5 -102.5t-112.5 -42.5q-60 0 -95 42.5t-26 102.5z"/>
<glyph unicode="’" horiz-adv-x="415" d="M229 809q-8 12 2 18q60 71 74 97q21 39 14 69q-34 18 -51 53.5t-10 79.5q11 60 62 103t112 43q60 0 95 -43t24 -103q-17 -100 -86.5 -191t-169.5 -181q-11 -10 -19 -2z"/>
<glyph unicode="‚" horiz-adv-x="415" d="M59 -152q-7 10 2 19q62 70 77 99q20 37 12 67q-34 17 -50.5 53t-9.5 80q11 60 61 102.5t111 42.5q60 0 95.5 -42.5t25.5 -102.5q-31 -170 -256 -373q-14 -11 -18 -2z"/>
<glyph unicode="“" horiz-adv-x="753" d="M217 893q18 100 88 191.5t170 181.5q10 10 21 2l45 -58q8 -8 -2 -18q-60 -71 -74 -97q-21 -39 -14 -69q34 -17 50 -53t9 -80q-9 -60 -59.5 -102.5t-112.5 -42.5q-60 0 -95 42.5t-26 102.5zM555 893q18 100 87.5 191t168.5 182q12 10 20 2l48 -58q6 -10 -2 -18 q-4 -5 -13.5 -16t-14 -16t-14 -16.5t-13 -17t-11.5 -17t-10 -16.5t-7.5 -16.5t-5 -17t-2 -17t1.5 -16.5q34 -17 50.5 -53t9.5 -80q-9 -60 -59.5 -102.5t-112.5 -42.5q-60 0 -95 42.5t-26 102.5z"/>
<glyph unicode="”" horiz-adv-x="753" d="M229 809q-8 12 2 18q60 71 74 97q21 39 14 69q-34 18 -51 53.5t-10 79.5q11 60 62 103t112 43q60 0 95 -43t24 -103q-17 -100 -86.5 -191t-169.5 -181q-11 -10 -19 -2zM567 809q-10 10 2 18q60 71 74 97q21 39 14 69q-34 18 -51 53.5t-10 79.5q11 60 62 103t112 43 q60 0 95 -43t24 -103q-28 -169 -258 -372q-7 -10 -19 -2z"/>
<glyph unicode="„" horiz-adv-x="753" d="M59 -152q-7 10 2 19q62 70 77 99q20 37 12 67q-34 17 -50.5 53t-9.5 80q11 60 61 102.5t111 42.5q60 0 95.5 -42.5t25.5 -102.5q-31 -170 -256 -373q-14 -11 -18 -2zM397 -152q-9 8 2 19q63 71 78 103q17 34 10 63q-34 17 -50 53t-9 80q11 60 61 102.5t111 42.5 q60 0 95.5 -42.5t25.5 -102.5q-31 -172 -258 -373q-11 -11 -19 -2z"/>
<glyph unicode="•" horiz-adv-x="614" d="M178 666q17 101 102.5 173t186.5 72q102 0 161 -71.5t42 -173.5q-19 -103 -103.5 -175.5t-187.5 -72.5q-101 0 -160.5 72.5t-40.5 175.5z"/>
<glyph unicode="…" horiz-adv-x="1454" d="M90 166q12 75 74 127.5t137 52.5t119.5 -52.5t32.5 -127.5q-13 -75 -76.5 -128.5t-138.5 -53.5t-118.5 53.5t-29.5 128.5zM573 166q12 75 75 127.5t138 52.5t118.5 -52.5t31.5 -127.5q-14 -75 -76 -128.5t-137 -53.5t-119 53.5t-31 128.5zM1059 166q12 75 75 127.5 t138 52.5q74 0 117.5 -52.5t31.5 -127.5q-13 -75 -76 -128.5t-137 -53.5q-75 0 -119 53.5t-30 128.5z"/>
<glyph unicode=" " horiz-adv-x="364"/>
<glyph unicode="‹" horiz-adv-x="569" d="M139 451l31 167q2 13 20 25l390 270q16 10 20 -8l45 -102q3 -7 0 -16.5t-10 -12.5l-301 -239l217 -240q12 -6 0 -27l-80 -102q-4 -9 -12.5 -12t-12.5 2l-294 270q-1 2 -4 5t-5 5.5t-3.5 6.5t-0.5 8z"/>
<glyph unicode="›" horiz-adv-x="569" d="M112 284q3 8 9 11l303 240l-219 239q-5 3 -4.5 12.5t6.5 16.5l78 102q4 7 12 10t12 -2l295 -270q14 -9 12 -25l-30 -167q-2 -11 -21 -25l-389 -270q-17 -10 -20 10l-43 102q-4 8 -1 16z"/>
<glyph unicode=" " horiz-adv-x="455"/>
<glyph unicode="€" horiz-adv-x="1118" d="M129 375l33 82q7 20 28 20h76q1 7 2 20.5t2 20.5q1 6 4.5 19.5t4.5 19.5h-103q-7 0 -11 6.5t-1 14.5l33 81q7 21 28 21h94q75 169 221 274t332 105q75 0 133.5 -16.5t92.5 -41.5t57 -59t31.5 -64t11.5 -63q0 -9 -7.5 -14.5t-16.5 -5.5h-207q-14 0 -17 20q-6 34 -31.5 51 t-58.5 17q-114 0 -190 -203h225q19 0 12 -21l-33 -81q-3 -8 -11 -14.5t-17 -6.5h-211q-3 -9 -8 -39q-4 -24 -4 -41h237q19 0 12 -20l-32 -82q-8 -19 -29 -19h-197q4 -204 119 -204q32 0 63 17t50 52q10 21 22 21h207q9 0 15 -6.5t4 -14.5q-19 -42 -47 -79.5t-75.5 -77.5 t-122 -63.5t-167.5 -23.5q-186 0 -296 105t-124 274h-121q-8 0 -11.5 6t-0.5 13z"/>
<glyph unicode="™" horiz-adv-x="1781" d="M252 1081l10 66q4 8 10 8h72l27 62q6 12 12 16q29 26 77 43.5t85 15.5q30 0 36 -15t-1 -32l-17 -90h99q3 0 5 -2.5t1 -5.5l-11 -66q-4 -8 -10 -8h-98l-41 -225q-5 -35 7.5 -50.5t33.5 -15.5q22 0 60.5 18.5t64.5 39.5h4q7 0 4 -6l-8 -54q0 -2 -2 -4q-64 -64 -140.5 -97.5 t-146.5 -33.5q-43 0 -72.5 18t-40.5 46t-15 61.5t3 65.5l43 237h-45q-3 0 -5 2.5t-1 5.5zM682 668l80 450q2 13 3.5 18t6.5 14t15 12.5t26 4.5q44 0 106.5 -18t79.5 -43q4 -5 0 -31l-2 -8q151 115 256 115q100 0 105 -121q80 62 134.5 91.5t113.5 29.5q37 0 62.5 -13.5 t36 -34t16.5 -44t4 -44t-1 -34.5l-16 -164q-8 -66 31 -66q44 0 119 58h4q7 0 4 -6l-8 -54q0 -2 -5 -4q-131 -131 -278 -131q-37 0 -62.5 14t-36.5 31.5t-16 45t-4.5 42.5t2.5 37l17 178q2 26 -10 35t-33 2.5t-39.5 -16.5t-38.5 -23l-56 -309q-4 -18 -22 -18l-209 -17 q-9 0 -13.5 6.5t-2.5 14.5l57 323q7 44 -32 40q-35 -4 -91 -40l-55 -309q-4 -18 -21 -18l-209 -17h-2q-7 0 -12.5 6.5t-3.5 14.5z"/>
<glyph unicode="◼" horiz-adv-x="880" d="M0 0v881h881v-881h-881z"/>
<glyph unicode="ﬁ" horiz-adv-x="1329" d="M-35.5 -215q2.5 17 4.5 35l154 887h-55q-11 0 -11 12l21 110q4 15 14 15h55l17 88q60 331 356 397q115 29 256.5 12t214.5 -77q2 0 2 -7l-16 -90q-3 -10 -10 -10q-1 0 -4.5 1t-4.5 1q-41 9 -72 14t-68.5 6t-65.5 -5.5t-57.5 -22.5t-50.5 -42.5t-38.5 -68.5t-27.5 -98 l-19 -98q250 -2 326 0q82 2 185.5 -19t129.5 -63q8 -15 2 -51l-67 -383q-21 -111 51 -111q35 0 91.5 29.5t106.5 66.5q4 2 9 2q8 0 8 -10l-17 -90q0 -4 -4 -6q-108 -108 -230.5 -164.5t-238.5 -56.5q-58 0 -99.5 20t-62.5 51.5t-30.5 74.5t-8.5 84.5t9 86.5l69 402h-253 l-144 -813q-6 -40 -18 -52q-43 -43 -159 -72.5t-189 -27.5q-34 1 -48.5 13.5t-12 29.5z"/>
<glyph unicode="ﬂ" horiz-adv-x="1329" d="M-34 -217q0 9 5 37l154 887h-55q-13 0 -13 12l21 110q4 15 16 15h56l22 121q7 44 19 84.5t38.5 92t63.5 91.5t98 76t137 53q97 23 208.5 24.5t216 -18t193 -65t132.5 -111.5q8 -13 2 -51l-143 -813q-21 -111 51 -111q35 0 92 29.5t104 66.5q4 2 11 2q8 0 8 -10l-17 -90 q0 -2 -4 -6q-111 -109 -232.5 -165t-238.5 -56q-58 0 -99 20t-62 51t-30.5 74.5t-8 85t9.5 86.5l162 922q-29 8 -58 10.5t-67.5 -6t-69 -31t-58 -72.5t-40.5 -122l-29 -162h121q14 0 10 -15l-20 -110q0 -5 -4.5 -8.5t-10.5 -3.5h-120l-144 -813q-6 -40 -18 -52 q-45 -43 -161 -72.5t-189 -27.5q-58 2 -59 41z"/>
</font>
</defs>
</svg>
