<?xml version="1.0" encoding="UTF-8" standalone="no"?>
<!DOCTYPE svg PUBLIC "-//W3C//DTD SVG 1.1//EN" "http://www.w3.org/Graphics/SVG/1.1/DTD/svg11.dtd">
<svg xmlns="http://www.w3.org/2000/svg">
<metadata/>
<defs>
<font id="standard_ct_extended_regulaRg" horiz-adv-x="1392">
<font-face units-per-em="2048" ascent="1638" descent="-410"/>
<missing-glyph horiz-adv-x="532"/>
<glyph unicode="ﬁ" horiz-adv-x="1169" d="M20 791v163h197v185q0 165 73.5 230t213.5 65q113 0 215 -21v-170q-98 27 -174 27q-71 0 -97 -39.5t-26 -128.5v-148h258v-163h-258v-791h-205v791h-197zM842 0v954h205v-954h-205zM842 1104v215h205v-215h-205z"/>
<glyph unicode="ﬂ" horiz-adv-x="1169" d="M20 791v163h197v185q0 165 73.5 230t213.5 65q113 0 215 -21v-170q-98 27 -174 27q-71 0 -97 -39.5t-26 -128.5v-148h258v-163h-258v-791h-205v791h-197zM842 0v1434h205v-1434h-205z"/>
<glyph unicode="ﬃ" horiz-adv-x="1703" d="M20 776v178h197v185q0 45 5 83t21.5 79t44 69t75.5 46t112 18q60 0 111 -6t72 -12l20 -7v-176q-70 37 -133 37q-71 0 -97 -39.5t-26 -128.5v-148h330v185q0 45 5 83t21.5 79t44 69t75.5 46t112 18q60 0 116 -9t82 -17l25 -9v-176q-91 47 -154 47q-71 0 -97 -39.5 t-26 -128.5v-148h218v-178h-218v-776h-204v776h-330v-776h-205v776h-197zM1376 0v954h205v-954h-205zM1376 1104v215h205v-215h-205z"/>
<glyph unicode="ﬄ" horiz-adv-x="1703" d="M20 776v178h197v185q0 45 5 83t21.5 79t44 69t75.5 46t112 18q60 0 111 -6t72 -12l20 -7v-176q-70 37 -133 37q-71 0 -97 -39.5t-26 -128.5v-148h330v185q0 45 5 83t21.5 79t44 69t75.5 46t112 18q60 0 116 -9t82 -17l25 -9v-176q-91 47 -154 47q-71 0 -97 -39.5 t-26 -128.5v-148h218v-178h-218v-776h-204v776h-330v-776h-205v776h-197zM1376 0v1434h205v-1434h-205z"/>
<glyph horiz-adv-x="2048"/>
<glyph horiz-adv-x="2048"/>
<glyph unicode="" horiz-adv-x="2048"/>
<glyph unicode=" " horiz-adv-x="532"/>
<glyph unicode="	" horiz-adv-x="532"/>
<glyph unicode=" " horiz-adv-x="532"/>
<glyph unicode="!" horiz-adv-x="522" d="M123 0v201h276v-201h-276zM147 981v442h228v-442l-51 -662h-125z"/>
<glyph unicode="&quot;" horiz-adv-x="636" d="M61 965v458h209v-458h-209zM365 965v458h210v-458h-210z"/>
<glyph unicode="#" horiz-adv-x="1497" d="M61 438v176h314l71 213h-253v177h315l162 471h198l-159 -471h260l161 471h199l-160 -471h267v-177h-326l-72 -213h267v-176h-326l-160 -479h-209l164 479h-256l-160 -479h-208l163 479h-252zM578 614h258l71 213h-258z"/>
<glyph unicode="$" horiz-adv-x="1761" d="M158 319l204 93q24 -30 61 -59t93.5 -59.5t139 -52.5t178.5 -28v442l-152 25q-91 15 -164.5 41.5t-134 69.5t-94 108.5t-33.5 149.5q0 160 148 252t430 98v157h149v-161q100 -8 186 -29.5t142.5 -46.5t110 -64t81 -65.5t64.5 -67.5l-207 -96q-21 30 -50.5 58t-74.5 59.5 t-110.5 55.5t-141.5 34v-412l184 -28q93 -15 168 -42t137 -68.5t96 -104.5t34 -142q0 -382 -619 -401v-178h-149v180q-221 10 -382.5 80t-293.5 202zM465 1049q0 -43 19 -75t57 -53t80.5 -34t105.5 -25l107 -16v395q-169 -6 -269 -54.5t-100 -137.5zM983 213q214 8 311 67 t97 148q0 35 -12.5 62t-33 45t-54.5 32t-68 22.5t-82 16.5l-158 25v-418z"/>
<glyph unicode="%" horiz-adv-x="2551" d="M82 1004q0 209 133.5 330.5t362.5 121.5q113 0 206.5 -36t154.5 -98t94.5 -143.5t33.5 -172.5q0 -203 -131.5 -330t-353.5 -127q-232 0 -366 129.5t-134 325.5zM252 1004q0 -146 79.5 -233t243.5 -87q163 0 241.5 89t78.5 231q0 141 -79.5 229t-240.5 88t-242 -88 t-81 -229zM647 -20l1063 1474h193l-1063 -1474h-193zM1485 432q0 209 133 331t362 122q113 0 206.5 -36.5t155 -98.5t95 -143.5t33.5 -172.5q0 -203 -131.5 -330t-353.5 -127q-232 0 -366 129.5t-134 325.5zM1655 432q0 -146 79.5 -232.5t243.5 -86.5q163 0 241.5 88.5 t78.5 230.5q0 141 -80 229.5t-240 88.5q-161 0 -242 -88.5t-81 -229.5z"/>
<glyph unicode="&amp;" horiz-adv-x="1837" d="M82 391q0 72 27 133t67.5 104t106 82t123.5 64t139 53l-8 9q-95 81 -142 154.5t-47 150.5q0 131 129.5 218t341.5 87q187 0 315 -89t128 -218q0 -50 -20.5 -94.5t-52 -78.5t-82.5 -67t-99.5 -56.5t-114.5 -51.5l414 -355q63 111 69 248h242q-35 -221 -156 -381l355 -303 h-314l-184 158q-127 -96 -283.5 -141.5t-308.5 -45.5q-181 0 -325 47t-232 143.5t-88 229.5zM328 397q0 -76 58.5 -134t154 -88t209.5 -30q253 0 426 138l-494 426q-64 -25 -110.5 -47t-95 -52t-79 -60.5t-50 -69.5t-19.5 -83zM592 1143q0 -95 166 -236l4 -4 q129 49 196.5 101t67.5 129q0 61 -62 102t-153 41q-95 0 -157 -38t-62 -95z"/>
<glyph unicode="'" horiz-adv-x="335" d="M61 965v458h213v-458h-213z"/>
<glyph unicode="(" horiz-adv-x="886" d="M143 713q0 275 113.5 553.5t318.5 515.5h166q-184 -209 -278 -489t-94 -580q0 -281 93.5 -559t280.5 -502h-165q-197 215 -316 499t-119 562z"/>
<glyph unicode=")" horiz-adv-x="886" d="M143 -348q188 224 281.5 502.5t93.5 558.5q0 299 -94.5 579t-278.5 490h166q205 -237 318.5 -515.5t113.5 -553.5q0 -278 -118.5 -562t-315.5 -499h-166z"/>
<glyph unicode="*" horiz-adv-x="940" d="M123 1143q8 25 22.5 62.5t20.5 54.5l240 -95v269h122v-269q139 54 246 97q8 -26 22.5 -63t20.5 -56l-252 -84q133 -172 160 -209q-3 -2 -102 -76l-158 219q-26 -36 -80.5 -117t-69.5 -102q-17 13 -50 36t-54 40l160 211z"/>
<glyph unicode="+" d="M123 629v200h461v461h225v-461h461v-200h-461v-486h-225v486h-461z"/>
<glyph unicode="," horiz-adv-x="522" d="M86 -360q121 149 121 333q0 12 -3.5 18.5t-6.5 7.5t-9 1h-65v201h276v-156q0 -82 -16.5 -151.5t-46.5 -120.5t-50.5 -77t-49.5 -56h-150z"/>
<glyph unicode="-" horiz-adv-x="737" d="M61 444v166h615v-166h-615z"/>
<glyph unicode="." horiz-adv-x="522" d="M123 0v201h276v-201h-276z"/>
<glyph unicode="/" horiz-adv-x="915" d="M41 -41l623 1516h210l-612 -1516h-221z"/>
<glyph unicode="0" horiz-adv-x="1761" d="M82 721q0 344 217.5 546.5t589.5 202.5q147 0 274.5 -39t221 -108.5t160.5 -163t100.5 -205t33.5 -231.5q0 -222 -94.5 -394t-274 -269t-417.5 -97q-190 0 -345 59t-256 162.5t-155.5 241t-54.5 295.5zM315 721q0 -99 20 -183.5t64 -155.5t110 -120.5t162 -77.5t216 -28 q146 0 255.5 44t174 122.5t96 177.5t31.5 219q0 119 -32.5 218t-98 176.5t-174.5 121t-252 43.5q-145 0 -257 -43.5t-179.5 -120.5t-101.5 -176t-34 -217z"/>
<glyph unicode="1" horiz-adv-x="770" d="M82 1100v151q170 0 247 53t77 130h180v-1434h-226v981q0 65 -37 92t-124 27h-117z"/>
<glyph unicode="2" horiz-adv-x="1540" d="M82 0v168q38 16 103 44.5t237.5 114t310.5 169.5q56 34 89.5 54.5t86 56.5t84 62.5t69.5 65t59 73.5t35.5 78t14.5 87q0 138 -113.5 221.5t-324.5 83.5q-60 0 -110.5 -10t-87.5 -25.5t-67.5 -41t-51 -51t-36 -60t-24 -63t-14.5 -66.5t-8 -64t-4 -61h-238q6 76 17.5 140 t35 130.5t57.5 119t86 99.5t118 78t156.5 49t199.5 18q130 0 239 -28.5t182.5 -77t125 -113t75 -134.5t23.5 -144q0 -102 -42.5 -196t-120 -172t-172 -142.5t-212.5 -120.5l-293 -141h891v-201h-1376z"/>
<glyph unicode="3" horiz-adv-x="1628" d="M82 492h246q16 -150 139 -243t354 -93q218 0 347.5 66.5t129.5 193.5q0 45 -17.5 80.5t-50.5 58.5t-74 38.5t-96.5 23.5t-108 11t-117.5 3h-244v200h250q93 0 164.5 8.5t134.5 29t97 60t34 97.5q0 104 -107 178t-311 74q-228 0 -355 -88.5t-141 -239.5h-231 q30 252 212 386t521 134q279 0 463 -129.5t184 -312.5q0 -62 -17.5 -110t-52.5 -82.5t-79.5 -58.5t-106.5 -44q44 -12 89 -34t95 -59.5t81.5 -97t31.5 -130.5q0 -88 -39 -162t-106.5 -126.5t-158.5 -89t-196 -54t-219 -17.5q-164 0 -305 45.5t-234.5 120.5t-147.5 169.5 t-58 193.5z"/>
<glyph unicode="4" horiz-adv-x="1683" d="M82 369v192q254 199 566 462t466 411h170v-865h318v-200h-318v-369h-225v369h-977zM385 569h674v568z"/>
<glyph unicode="5" horiz-adv-x="1642" d="M90 414h256q80 -258 465 -258q103 0 190.5 21.5t145.5 56.5t99.5 80t60 90.5t18.5 89.5q0 152 -132 241.5t-366 89.5q-89 0 -166.5 -17t-125 -40.5t-85 -53t-52.5 -48.5t-23 -33h-232q19 64 42.5 232t23.5 374q0 125 -6 195h1167v-201h-930l-32 -330q105 53 208 80 t267 27q161 0 291.5 -40t214 -109t128 -158.5t44.5 -190.5q0 -167 -99.5 -293t-272 -191t-392.5 -65q-143 0 -260 28.5t-193 73.5t-131.5 106.5t-83 120.5t-39.5 122z"/>
<glyph unicode="6" horiz-adv-x="1572" d="M82 659q0 188 55.5 342t153 256t231 157.5t289.5 55.5q113 0 214 -29.5t173 -76.5t129.5 -108.5t91.5 -123.5t51 -124h-260q-6 29 -23 62t-50 69.5t-77 65.5t-109 48t-140 19q-82 0 -151 -19t-117 -50.5t-86.5 -74.5t-61.5 -87t-38.5 -91.5t-21.5 -86t-7 -72.5 q190 155 495 155q186 0 339.5 -63t241 -172.5t87.5 -241.5q0 -70 -24 -139.5t-77.5 -136.5t-130.5 -117.5t-193 -81.5t-255 -31q-127 0 -236.5 26t-200.5 81.5t-155.5 136.5t-100.5 196t-36 256zM365 463q0 -134 129 -220.5t317 -86.5t316 87.5t128 221.5q0 137 -118.5 216 t-327.5 79q-206 0 -325 -79.5t-119 -217.5z"/>
<glyph unicode="7" horiz-adv-x="1527" d="M82 911v523h1364v-201q-25 -69 -103 -194.5t-161 -229.5l-320 -401q-134 -168 -227 -408h-303q45 100 144.5 259.5t228.5 309.5l286 336q202 237 205 328h-889v-322h-225z"/>
<glyph unicode="8" horiz-adv-x="1705" d="M82 397q0 57 20.5 108.5t52 88.5t73.5 68t80.5 50t78.5 33q-46 17 -86.5 42t-78 62t-59.5 90.5t-22 117.5q0 116 90 210t254 148.5t371 54.5q136 0 252 -23t199 -62.5t142 -92t87.5 -112.5t28.5 -123q0 -224 -258 -314q41 -12 78.5 -28t83 -45.5t78 -65.5t55 -89.5 t22.5 -115.5q0 -187 -206 -311.5t-560 -124.5q-194 0 -346 36.5t-244 98t-139 138t-47 161.5zM315 399q0 -115 143 -179t400 -64q244 0 387.5 66.5t143.5 174.5q0 122 -143 192t-386 70q-245 0 -395 -68t-150 -192zM375 1044q0 -75 65.5 -127.5t172 -76t245.5 -23.5 q133 0 238.5 25.5t169 78t63.5 123.5q0 80 -65 134t-169 77t-241 23q-208 0 -343.5 -62t-135.5 -172z"/>
<glyph unicode="9" horiz-adv-x="1572" d="M82 961q0 97 38.5 180.5t104 143t152 102t183.5 63t198 20.5q166 0 300 -46t231 -135.5t149.5 -229t52.5 -318.5q0 -362 -192.5 -570t-540.5 -208q-120 0 -223.5 26.5t-176.5 69t-129.5 99.5t-88.5 116t-46 119h260q7 -26 22.5 -53.5t48 -60.5t76 -58t110.5 -42t147 -17 q123 0 218.5 40.5t154 111t88.5 158t32 187.5q-44 -34 -77.5 -56t-96 -53t-143.5 -47t-176 -16q-181 0 -337 64t-247.5 173t-91.5 237zM317 961q0 -125 113 -206t328 -81q216 0 334 78t118 211q0 66 -29.5 121t-76.5 90t-107.5 59t-120.5 34.5t-118 10.5q-196 0 -318.5 -85 t-122.5 -232z"/>
<glyph unicode=":" horiz-adv-x="522" d="M123 -12v200h276v-200h-276zM123 754v200h276v-200h-276z"/>
<glyph unicode=";" horiz-adv-x="522" d="M86 -360q121 149 121 333q0 12 -3.5 18.5t-6.5 7.5t-9 1h-65v201h276v-156q0 -82 -16.5 -151.5t-46.5 -120.5t-50.5 -77t-49.5 -56h-150zM123 754v200h276v-200h-276z"/>
<glyph unicode="&lt;" d="M123 641v150l1147 428v-234l-819 -268l819 -271v-233z"/>
<glyph unicode="=" d="M123 424v201h1147v-201h-1147zM123 834v200h1147v-200h-1147z"/>
<glyph unicode="&gt;" d="M123 213v233l819 271l-819 268v234l1147 -428v-150z"/>
<glyph unicode="?" horiz-adv-x="1521" d="M102 950q6 44 17 86.5t35 96t56.5 99t86 91t120 77t161 51t206.5 19.5q125 0 239.5 -31t202.5 -86.5t140.5 -139t52.5 -181.5q0 -87 -42 -159.5t-107.5 -120t-148.5 -81t-162 -48.5t-152 -17v-287h-205v478q55 -27 182 -27q65 0 131.5 15t128.5 45t101 82.5t39 119.5 q0 115 -108 195t-292 80q-99 0 -176.5 -24t-123 -61t-75.5 -87t-41.5 -94t-13.5 -91h-252zM569 0v201h277v-201h-277z"/>
<glyph unicode="@" horiz-adv-x="2062" d="M82 485q0 156 70.5 293.5t196 238t308 158.5t396.5 58q193 0 366.5 -51.5t295.5 -136.5t193.5 -198.5t71.5 -234.5q0 -96 -32.5 -180.5t-88 -145.5t-126.5 -109.5t-150.5 -78t-157 -44.5t-149.5 -15q-60 0 -97.5 15.5t-51 37.5t-19.5 55q-147 -96 -303 -96 q-172 0 -278.5 90t-106.5 240q0 141 75 261t209.5 191.5t296.5 71.5q100 0 180 -33.5t111 -95.5l39 92h238l-230 -565q-1 -3 -8 -20t-9.5 -25t-5.5 -23t-3 -28q0 -15 13.5 -23t51.5 -8q60 0 128 29t128.5 80t100 131.5t39.5 173.5q0 92 -38.5 171t-106 136t-158.5 97.5 t-197.5 60.5t-220.5 20q-223 0 -397 -75.5t-270.5 -212t-96.5 -310.5q0 -113 39 -209.5t108 -166t162.5 -118t203 -72.5t228.5 -24q218 0 351.5 38.5t240.5 109.5l190 -72q-135 -108 -334.5 -170.5t-447.5 -62.5q-198 0 -371.5 53t-301.5 149t-201.5 239t-73.5 314zM649 391 q0 -98 51 -149.5t174 -51.5q78 0 144 37.5t106.5 95t63 121.5t22.5 121q0 100 -54.5 151.5t-154.5 51.5q-84 0 -153.5 -36t-111.5 -93t-64.5 -121.5t-22.5 -126.5z"/>
<glyph unicode="A" horiz-adv-x="1746" d="M20 0l738 1434h203l765 -1434h-256l-213 401h-798l-205 -401h-234zM547 580h618l-121 229q-15 28 -44 83t-43 81t-35 68.5t-37.5 80.5t-32.5 80h-6q-66 -164 -182 -393z"/>
<glyph unicode="B" horiz-adv-x="1597" d="M143 0v1434h699q161 0 276.5 -27.5t182.5 -80.5t98 -122.5t31 -159.5q0 -102 -56 -172t-155 -98v-4q133 -30 215 -115.5t82 -208.5q0 -73 -15.5 -134t-57 -120.5t-109 -100.5t-178.5 -66t-257 -25h-756zM369 197h465q112 0 194.5 13.5t130 35t75.5 54.5t37 65.5t9 74.5 q0 219 -410 219h-501v-462zM369 856h438q205 0 296 39.5t91 142.5q0 49 -21.5 85t-55.5 57.5t-85.5 34.5t-103.5 17.5t-117 4.5h-442v-381z"/>
<glyph unicode="C" horiz-adv-x="1853" d="M82 717q0 155 50.5 283t134 213.5t194 144.5t227.5 85.5t238 26.5q287 0 504 -112t325 -305l-231 -72q-29 53 -74.5 101t-115.5 94.5t-174.5 74t-229.5 27.5q-147 0 -264.5 -42t-193 -117.5t-115.5 -177.5t-40 -224q0 -248 169 -404.5t438 -156.5q422 0 604 299l239 -60 q-260 -432 -835 -432q-197 0 -358.5 58t-268.5 160t-165 239.5t-58 296.5z"/>
<glyph unicode="D" horiz-adv-x="1673" d="M143 0v1434h627q147 0 269 -25.5t211 -72.5t155.5 -110t106.5 -142.5t59.5 -165.5t19.5 -183q0 -169 -49 -303.5t-146.5 -231t-251 -148.5t-353.5 -52h-648zM369 201h362q313 0 469 135.5t156 396.5q0 238 -159.5 369t-475.5 131h-352v-1032z"/>
<glyph unicode="E" horiz-adv-x="1550" d="M143 0v1434h1289v-201h-1063v-385h1015v-201h-1015v-446h1099v-201h-1325z"/>
<glyph unicode="F" horiz-adv-x="1507" d="M143 0v1434h1282v-201h-1056v-426h1013v-201h-1013v-606h-226z"/>
<glyph unicode="G" horiz-adv-x="1878" d="M82 717q0 161 61 300t170 239t267.5 157t345.5 57q131 0 250.5 -25.5t205.5 -64.5t158.5 -91t116.5 -99t74 -94l-261 -56q-32 45 -75 83t-107.5 75t-157.5 58.5t-204 21.5q-124 0 -231.5 -34.5t-193 -101t-135 -176t-49.5 -249.5q0 -127 46.5 -232.5t127.5 -177.5 t192.5 -111.5t240.5 -39.5q117 0 218.5 29t168.5 74t115.5 101t70 109.5t21.5 99.5v4h-547v201h764v-774h-217v207h-5q-88 -115 -246.5 -179.5t-340.5 -64.5q-133 0 -256 29.5t-230.5 91.5t-187 150t-125 212t-45.5 271z"/>
<glyph unicode="H" horiz-adv-x="1726" d="M143 0v1434h226v-574h989v574h225v-1434h-225v659h-989v-659h-226z"/>
<glyph unicode="I" horiz-adv-x="512" d="M143 0v1434h226v-1434h-226z"/>
<glyph unicode="J" horiz-adv-x="786" d="M41 -16v200h117q89 0 139 8t81 33.5t40.5 65t9.5 110.5v1033h225v-1024q0 -92 -8.5 -156t-31 -113t-55.5 -78.5t-89 -47.5t-124 -24.5t-167 -6.5h-137z"/>
<glyph unicode="K" horiz-adv-x="1615" d="M143 0v1434h226v-695h4l817 695h285l-625 -533l745 -901h-282l-625 770l-319 -268v-502h-226z"/>
<glyph unicode="L" horiz-adv-x="1318" d="M143 0v1434h226v-1233h888v-201h-1114z"/>
<glyph unicode="M" horiz-adv-x="1957" d="M143 0v1434h230l352 -664q90 -170 254 -518h4q101 222 307 612l301 570h224v-1434h-228v371q0 240 6 657h-4q-25 -61 -44.5 -105.5t-43 -91.5l-35 -70t-45 -86.5t-49.5 -94.5l-303 -580h-180l-307 590q-16 31 -54.5 103.5t-51.5 98t-37 74t-39.5 84.5t-30.5 76h-4 q4 -158 4 -651v-375h-226z"/>
<glyph unicode="N" horiz-adv-x="1767" d="M143 0v1434h215l670 -705q94 -99 188 -202t142 -157l47 -53q-6 227 -6 603v514h225v-1434h-217l-698 745q-101 108 -188 204t-124 139l-37 42q9 -223 9 -589v-541h-226z"/>
<glyph unicode="O" horiz-adv-x="1875" d="M82 717q0 159 53 289t139 214.5t198.5 142.5t227 82.5t230.5 24.5q117 0 233.5 -25t231.5 -83.5t202.5 -143t142 -213.5t54.5 -286q0 -153 -50 -280t-134 -214t-196 -147t-233.5 -87.5t-248.5 -27.5q-133 0 -256.5 29.5t-232 91.5t-188.5 150t-126.5 212.5t-46.5 270.5z M317 717q0 -250 166.5 -405.5t446.5 -155.5q289 0 459 150.5t170 410.5q0 254 -172.5 407.5t-456.5 153.5q-130 0 -235.5 -32.5t-174.5 -86t-116 -127t-67 -152t-20 -163.5z"/>
<glyph unicode="P" horiz-adv-x="1458" d="M143 0v1434h605q160 0 283 -33t197 -92.5t111 -136t37 -168.5q0 -213 -148 -336t-452 -123h-407v-545h-226zM369 741h358q209 0 311.5 58.5t102.5 199.5q0 56 -21 97.5t-69 74t-134 49.5t-210 17h-338v-496z"/>
<glyph unicode="Q" horiz-adv-x="1875" d="M82 717q0 159 53 289t139 214.5t198.5 142.5t227 82.5t230.5 24.5q117 0 233.5 -25t231.5 -83.5t202.5 -143t142 -213.5t54.5 -286q0 -217 -95 -374.5t-257 -252.5q71 -38 166.5 -62t181.5 -24l-68 -203q-107 0 -247.5 52t-257.5 145q-151 -37 -285 -37 q-133 0 -256.5 29.5t-232 91.5t-188.5 150t-126.5 212.5t-46.5 270.5zM317 717q0 -250 166.5 -405.5t446.5 -155.5q289 0 459 150.5t170 410.5q0 254 -172.5 407.5t-456.5 153.5q-130 0 -235.5 -32.5t-174.5 -86t-116 -127t-67 -152t-20 -163.5z"/>
<glyph unicode="R" horiz-adv-x="1507" d="M143 0v1434h652q140 0 246 -20.5t187.5 -66t124 -125.5t42.5 -192q0 -79 -22.5 -142.5t-58 -105.5t-86 -73.5t-100 -48t-106.5 -25.5l444 -635h-270l-414 616h-413v-616h-226zM369 813h426q180 0 272 48.5t92 168.5q0 118 -91.5 162.5t-272.5 44.5h-426v-424z"/>
<glyph unicode="S" horiz-adv-x="1746" d="M51 268l228 105q30 -37 76.5 -72t119 -71t180 -58t234.5 -22q145 0 251 19t165.5 52.5t87.5 75t28 92.5q0 48 -19.5 82t-60.5 55.5t-85 34t-113 23.5l-510 82q-101 16 -182.5 46t-149 78.5t-104.5 122t-37 166.5q0 185 175.5 293.5t502.5 108.5q101 0 190.5 -11.5 t155.5 -28t128 -45.5t101 -52.5t82.5 -61.5t65 -60.5t55.5 -60.5l-230 -106q-28 39 -67.5 74.5t-103.5 74t-159 61.5t-208 23q-207 0 -331 -52.5t-124 -156.5q0 -38 15 -68.5t39.5 -51.5t63 -37t79 -26t94.5 -19l492 -78q102 -16 185 -46t151 -77t105.5 -118t37.5 -159 q0 -104 -41.5 -183.5t-130 -138.5t-237 -89.5t-353.5 -30.5q-283 0 -483.5 76.5t-358.5 234.5z"/>
<glyph unicode="T" horiz-adv-x="1511" d="M41 1239v195h1429v-195h-602v-1239h-225v1239h-602z"/>
<glyph unicode="U" horiz-adv-x="1665" d="M133 512v922h225v-916q0 -160 121 -264t344 -104q251 0 367.5 99t116.5 267v918h225v-918q0 -547 -711 -547q-209 0 -361.5 59.5t-239.5 183t-87 300.5z"/>
<glyph unicode="V" horiz-adv-x="1656" d="M20 1434h254l367 -760q109 -219 188 -422h5q73 181 190 424l367 758h245l-704 -1434h-209z"/>
<glyph unicode="W" horiz-adv-x="2363" d="M31 1434h250l241 -693q124 -353 160 -518h4q39 179 143 486l246 725h213l246 -727q107 -314 143 -482h4q42 169 150 484l252 725h250l-545 -1434h-227l-250 743q-98 291 -131 443h-4q-25 -124 -127 -438l-246 -748h-228z"/>
<glyph unicode="X" horiz-adv-x="1656" d="M20 0l656 737l-623 697h281l485 -545l484 545h260l-611 -689l684 -745h-297l-530 598l-518 -598h-271z"/>
<glyph unicode="Y" horiz-adv-x="1462" d="M4 1434h260l471 -613h4l480 613h247l-622 -789v-645h-226v645z"/>
<glyph unicode="Z" horiz-adv-x="1751" d="M82 0v172l1216 1055v6h-1138v201h1468v-183l-1204 -1044v-6h1225v-201h-1567z"/>
<glyph unicode="[" horiz-adv-x="724" d="M143 -348v2130h439v-178h-234v-1774h234v-178h-439z"/>
<glyph unicode="\" horiz-adv-x="915" d="M37 1475h219l623 -1516h-230z"/>
<glyph unicode="]" horiz-adv-x="724" d="M143 -170h234v1774h-234v178h439v-2130h-439v178z"/>
<glyph unicode="^" d="M49 326l539 850h223l532 -850h-245l-400 671l-403 -671h-246z"/>
<glyph unicode="_" horiz-adv-x="1562" d="M0 -127h1563v-117h-1563v117z"/>
<glyph unicode="`" horiz-adv-x="591" d="M57 1389h291l178 -283h-198z"/>
<glyph unicode="a" horiz-adv-x="1304" d="M82 262q0 121 101.5 195.5t269.5 89.5l452 39v80q0 71 -71 112t-191 41q-74 0 -129 -11t-86.5 -28.5t-50.5 -44t-25 -52t-6 -58.5h-221q0 32 4.5 62t18.5 67t36.5 68t62.5 61.5t92.5 52t130.5 34.5t173 13q126 0 219 -24t146 -67.5t77.5 -98t24.5 -121.5v-420 q0 -56 13.5 -76t39.5 -20q16 0 38.5 3t36.5 6l15 3v-164q-14 -3 -69 -8.5t-90 -5.5q-92 0 -138.5 29t-46.5 104h-4q-54 -59 -155 -101t-222 -42q-209 0 -327.5 75.5t-118.5 206.5zM297 262q0 -70 64 -100.5t192 -30.5q83 0 153.5 23t112 57t64 67t22.5 58v106l-309 -30 q-117 -13 -183.5 -34t-91 -48t-24.5 -68z"/>
<glyph unicode="b" horiz-adv-x="1292" d="M123 0v1434h205v-586h4q48 65 142.5 110.5t211.5 45.5q109 0 207.5 -35t174 -98.5t119.5 -160t44 -212.5q0 -125 -43.5 -224.5t-119.5 -163t-176 -97t-216 -33.5q-217 0 -344 149h-4v-129h-205zM328 496q0 -73 19.5 -132.5t52.5 -100t77.5 -68t94.5 -40t104 -12.5 q147 0 243.5 94t96.5 257q0 158 -98.5 252t-245.5 94q-73 0 -133 -22t-98.5 -57t-64.5 -81t-37 -92t-11 -92z"/>
<glyph unicode="c" horiz-adv-x="1357" d="M61 485q0 128 50.5 229t137.5 163t198 94.5t237 32.5q418 0 594 -299l-197 -68q-118 203 -397 203q-199 0 -304.5 -95t-105.5 -253q0 -71 22.5 -129t61 -98.5t91 -68t111.5 -40.5t124 -13q75 0 140.5 16t110 40t81 55.5t56 57t32.5 50.5l192 -73q-76 -134 -229.5 -221.5 t-382.5 -87.5q-126 0 -237.5 32.5t-198 94t-137 159t-50.5 219.5z"/>
<glyph unicode="d" horiz-adv-x="1292" d="M61 498q0 116 44 212.5t119.5 160t174 98.5t207.5 35q117 0 212 -45.5t143 -110.5h4v586h204v-1434h-204v129h-4q-127 -149 -345 -149q-116 0 -216 33.5t-176 97t-119.5 163t-43.5 224.5zM276 494q0 -163 96.5 -257t243.5 -94q68 0 129 20.5t111 61.5t79.5 111t29.5 160 q0 46 -11 92t-37 92t-64.5 81t-98.5 57t-133 22q-147 0 -246 -94t-99 -252z"/>
<glyph unicode="e" horiz-adv-x="1357" d="M61 496q0 124 51.5 223t139 160t198 93t234.5 32q280 0 441 -154t161 -410h-1007q17 -138 125 -217.5t280 -79.5q74 0 137.5 14.5t111.5 41.5t79 51t65 57l170 -106q-214 -221 -563 -221q-182 0 -321.5 59t-220.5 177t-81 280zM285 598h770q-19 103 -113.5 172.5 t-257.5 69.5q-171 0 -273 -70t-126 -172z"/>
<glyph unicode="f" horiz-adv-x="739" d="M20 791v163h197v185q0 165 73.5 230t213.5 65q113 0 215 -21v-170q-98 27 -174 27q-71 0 -97 -39.5t-26 -128.5v-148h258v-163h-258v-791h-205v791h-197z"/>
<glyph unicode="g" horiz-adv-x="1296" d="M61 489q0 97 30 178.5t83 139t124.5 98t154 59.5t172.5 19q102 0 197 -34.5t147 -84.5v90h205v-934q0 -61 -2.5 -105t-11 -93.5t-24.5 -85t-41.5 -71t-64 -59t-90.5 -42.5t-122.5 -28t-158.5 -9q-148 0 -255.5 28t-167.5 78t-87.5 111t-27.5 135h231q0 -88 83.5 -138 t223.5 -50q149 0 229.5 52.5t80.5 156.5v188q-141 -129 -359 -129q-244 0 -396.5 139t-152.5 391zM281 487q0 -71 19 -134t58 -115.5t107 -83.5t158 -31q154 0 249 93.5t95 260.5q0 161 -92.5 251.5t-233.5 90.5q-159 0 -259.5 -91t-100.5 -241z"/>
<glyph unicode="h" horiz-adv-x="1282" d="M123 0v1434h205v-625h4q170 170 393 170q205 0 324.5 -94t119.5 -269v-616h-204v596q0 104 -62.5 161.5t-189.5 57.5q-87 0 -161.5 -27.5t-122.5 -71.5t-74.5 -97t-26.5 -105v-514h-205z"/>
<glyph unicode="i" horiz-adv-x="450" d="M123 0v954h205v-954h-205zM123 1104v215h205v-215h-205z"/>
<glyph unicode="j" horiz-adv-x="473" d="M-123 -266q111 -15 170 -15q98 0 98 146v1089h205v-1106q0 -176 -60 -248.5t-202 -72.5q-59 0 -112 4.5t-76 8.5l-23 5v189zM145 1104v215h205v-215h-205z"/>
<glyph unicode="k" horiz-adv-x="1159" d="M123 0v1434h205v-902h4q50 55 219 197l268 225h250l-489 -422l559 -532h-281l-424 412l-106 -93v-319h-205z"/>
<glyph unicode="l" horiz-adv-x="450" d="M123 0v1434h205v-1434h-205z"/>
<glyph unicode="m" horiz-adv-x="2041" d="M123 0v954h205v-145q164 170 379 170q290 0 389 -197h4q179 197 407 197q100 0 177.5 -24.5t122.5 -61t73.5 -86.5t38.5 -94t10 -90v-623h-205v569q0 56 -9 96.5t-33 76.5t-72 54.5t-119 18.5q-161 0 -262 -89.5t-101 -209.5v-516h-204v569q0 56 -9.5 96.5t-33.5 76.5 t-72 54.5t-119 18.5q-161 0 -261.5 -89.5t-100.5 -209.5v-516h-205z"/>
<glyph unicode="n" horiz-adv-x="1282" d="M123 0v954h205v-145h4q170 170 393 170q205 0 324.5 -94t119.5 -269v-616h-204v596q0 104 -62.5 161.5t-189.5 57.5q-87 0 -161.5 -27.5t-122.5 -71.5t-74.5 -97t-26.5 -105v-514h-205z"/>
<glyph unicode="o" horiz-adv-x="1376" d="M61 496q0 225 166.5 366.5t456.5 141.5q149 0 269.5 -39.5t199 -108.5t120.5 -161t42 -199q0 -113 -41.5 -207t-120.5 -163t-199 -107.5t-270 -38.5q-147 0 -266 39.5t-196.5 109.5t-119 163.5t-41.5 203.5zM274 494q0 -53 14 -102.5t45.5 -95t78 -79.5t116.5 -54 t156 -20q197 0 306.5 94t109.5 257q0 154 -108.5 250t-307.5 96q-195 0 -302.5 -96.5t-107.5 -249.5z"/>
<glyph unicode="p" horiz-adv-x="1292" d="M123 -473v1427h205v-106h4q127 149 344 149q116 0 216 -33.5t176 -97t119.5 -163t43.5 -224.5q0 -116 -44 -212.5t-119.5 -160t-174 -98.5t-207.5 -35q-117 0 -211.5 45.5t-142.5 110.5h-4v-602h-205zM328 481q0 -46 11 -92t37 -92t64.5 -81t98.5 -57t133 -22 q147 0 245.5 94t98.5 252q0 163 -96.5 257t-243.5 94q-54 0 -104 -12.5t-94.5 -40t-77.5 -68t-52.5 -100t-19.5 -132.5z"/>
<glyph unicode="q" horiz-adv-x="1292" d="M61 479q0 125 43.5 224.5t119.5 163t176 97t216 33.5q218 0 345 -149h4v106h204v-1427h-204v602h-4q-48 -65 -143 -110.5t-212 -45.5q-109 0 -207.5 35t-174 98.5t-119.5 160t-44 212.5zM276 483q0 -158 99 -252t246 -94q73 0 133 22t98.5 57t64.5 81t37 92t11 92 q0 90 -29.5 160t-79.5 111t-111 61.5t-129 20.5q-147 0 -243.5 -94t-96.5 -257z"/>
<glyph unicode="r" horiz-adv-x="847" d="M123 0v954h205v-145h4q67 72 168 121t213 49h84v-184h-76q-107 0 -187.5 -27t-123 -71.5t-62.5 -92t-20 -98.5v-506h-205z"/>
<glyph unicode="s" horiz-adv-x="1163" d="M41 172l170 98q87 -66 173.5 -96.5t240.5 -30.5q73 0 131.5 11.5t99.5 42.5t41 77q0 22 -7.5 39t-27 30.5t-38 22.5t-56.5 17.5t-66 14t-81 14.5l-207 34q-70 12 -126.5 31.5t-104 51t-73.5 79t-26 107.5q0 125 119.5 207t361.5 82q96 0 177 -14t144 -41.5t103.5 -51.5 t87.5 -59l-139 -111q-51 44 -153 78.5t-232 34.5q-256 0 -256 -113q0 -25 13 -41.5t43 -27.5t55.5 -16t74.5 -13l211 -35q70 -12 121 -24t111 -35.5t97.5 -54t63 -78.5t25.5 -109q0 -145 -142 -229t-380 -84q-336 0 -549 192z"/>
<glyph unicode="t" horiz-adv-x="731" d="M20 791v163h218v308h204v-308h238v-163h-238v-498q0 -81 21 -109t96 -28q16 0 46.5 3t52.5 6l22 3v-152q-78 -24 -164 -24q-91 0 -145 12t-84 46t-39.5 81.5t-9.5 130.5v529h-218z"/>
<glyph unicode="u" horiz-adv-x="1282" d="M113 338v616h204v-596q0 -104 62.5 -161.5t189.5 -57.5q87 0 161.5 27.5t122.5 71.5t74.5 97t26.5 105v514h205v-954h-205v145h-4q-170 -170 -393 -170q-205 0 -324.5 94t-119.5 269z"/>
<glyph unicode="v" horiz-adv-x="1173" d="M20 954h232l219 -438q90 -180 127 -295h6q47 141 121 295l205 438h223l-457 -954h-192z"/>
<glyph unicode="w" horiz-adv-x="1964" d="M20 954h230l194 -440q71 -164 113 -295h6q49 152 115 293l203 442h225l190 -434q78 -180 115 -301h4q49 151 111 297l190 438h228l-437 -954h-192l-225 498q-43 92 -99 268h-4q-45 -147 -104 -274l-230 -492h-192z"/>
<glyph unicode="x" horiz-adv-x="1177" d="M20 0l435 494l-424 460h258l291 -325h4l274 325h240l-396 -454l455 -500h-256l-323 360h-5l-305 -360h-248z"/>
<glyph unicode="y" horiz-adv-x="1169" d="M20 954h234l207 -409q115 -228 141 -295h4q27 77 133 299l193 405h217l-600 -1265q-44 -93 -114 -131.5t-195 -38.5q-55 0 -106.5 6t-75.5 12l-25 6v183q100 -27 186 -27q63 0 98 20t64 82l108 226z"/>
<glyph unicode="z" horiz-adv-x="1200" d="M61 0v139l738 633v4h-654v178h969v-147l-725 -625v-4h750v-178h-1078z"/>
<glyph unicode="{" horiz-adv-x="907" d="M143 647v139q94 0 158 67.5t64 168.5v496q0 123 71.5 193.5t186.5 70.5h141v-178h-82q-56 0 -84.5 -38.5t-28.5 -101.5v-471q0 -59 -20 -108.5t-52.5 -82.5t-63.5 -54t-64 -33q33 -12 64 -31.5t63.5 -52t52.5 -84t20 -113.5v-467q0 -63 28.5 -100t84.5 -37h82v-178h-141 q-115 0 -186.5 70t-71.5 192v489q0 105 -64 174.5t-158 69.5z"/>
<glyph unicode="|" horiz-adv-x="532" d="M164 -123v1679h205v-1679h-205z"/>
<glyph unicode="}" horiz-adv-x="907" d="M143 -170h82q56 0 84.5 37t28.5 100v467q0 62 20 113.5t53 84t64 52t64 31.5q-33 12 -64.5 33t-64 54t-52.5 82.5t-20 108.5v471q0 63 -28.5 101.5t-84.5 38.5h-82v178h142q115 0 186.5 -70.5t71.5 -193.5v-496q0 -101 63.5 -168.5t157.5 -67.5v-139q-94 0 -157.5 -69.5 t-63.5 -174.5v-489q0 -122 -71.5 -192t-186.5 -70h-142v178z"/>
<glyph unicode="~" d="M123 553q0 147 77.5 244.5t215.5 97.5q58 0 121.5 -17.5t103 -35t102.5 -49.5q58 -28 85.5 -40.5t73 -26t81.5 -13.5q42 0 67 33.5t25 101.5h195q0 -169 -77 -253.5t-210 -84.5q-61 0 -128.5 18t-106 35t-107.5 51q-4 2 -26 12.5t-27 13t-24 11.5t-26.5 12t-24 9.5 t-25.5 8.5t-23 5.5t-25.5 4.5t-23.5 1q-46 0 -72.5 -40t-26.5 -99h-194z"/>
<glyph unicode="¡" horiz-adv-x="522" d="M123 754v200h276v-200h-276zM147 -27l52 662h125l51 -662v-442h-228v442z"/>
<glyph unicode="¢" horiz-adv-x="1333" d="M61 717q0 126 49 226t131 161.5t178.5 95.5t203.5 41v193h133v-195q172 -15 305 -95t203 -206l-193 -55q-98 173 -315 200v-733q64 9 118 31.5t92.5 54.5t62 59t46.5 60l197 -49q-81 -124 -209.5 -210t-306.5 -103v-193h-133v193q-261 15 -411.5 161.5t-150.5 362.5z M244 717q0 -152 104.5 -254t274.5 -115v735q-182 -15 -280.5 -114.5t-98.5 -251.5z"/>
<glyph unicode="£" horiz-adv-x="1343" d="M41 47q10 52 41.5 86t81 48.5t95.5 19.5t106 4q25 30 42 78.5t17 85.5q0 84 -57 180h-304v160h197q-55 75 -83.5 118.5t-55.5 110.5t-27 125q0 83 33 155.5t98.5 131t177 92t256.5 33.5q220 0 369.5 -81t202.5 -235l-189 -49q-26 81 -120 134.5t-263 53.5 q-167 0 -258.5 -63.5t-91.5 -171.5q0 -28 8.5 -58.5t20 -55.5t34 -60.5t38 -57t46 -62t44.5 -60.5h370v-160h-278q39 -90 39 -164q0 -100 -84 -209q58 -10 200 -24.5t185 -14.5q62 0 94 8.5t45 32.5h211q-17 -32 -24 -45t-26.5 -42t-35.5 -43t-45.5 -34.5t-61 -30t-77.5 -17 t-101 -7.5q-99 0 -385 43q-188 29 -239 29t-51 -58z"/>
<glyph unicode="¤" horiz-adv-x="1841" d="M31 500l108 159h127q-2 18 -2 58v49h-233l108 160h152q38 139 122 246t195.5 170.5t237.5 95.5t262 32q422 0 682 -270l-141 -211q-171 289 -537 289q-447 0 -580 -352h1070l-109 -160h-993q-2 -16 -2 -49q0 -40 2 -58h919l-108 -159h-770q70 -164 211 -254t354 -90 q338 0 543 290v-319q-121 -82 -242.5 -123t-292.5 -41q-334 0 -540.5 144.5t-278.5 392.5h-264z"/>
<glyph unicode="¥" horiz-adv-x="1345" d="M20 1434h254l402 -512l399 512h250l-541 -686v-31h291v-160h-291v-106h291v-160h-291v-291h-225v291h-291v160h291v106h-291v160h291v31z"/>
<glyph unicode="¦" horiz-adv-x="532" d="M164 -123v744h205v-744h-205zM164 803v751h205v-751h-205z"/>
<glyph unicode="§" horiz-adv-x="1413" d="M82 530q0 219 203 314q-164 102 -164 278q0 154 142.5 247t408.5 93q112 0 206.5 -17.5t155.5 -41t118 -63t86 -67.5t67 -71l-205 -96q-24 33 -55.5 62t-81.5 61t-124 50.5t-161 18.5q-151 0 -248.5 -48.5t-97.5 -127.5q0 -67 59.5 -110t157.5 -62l389 -61 q82 -14 151 -41.5t124 -69t86.5 -101.5t31.5 -132q0 -217 -203 -316q164 -101 164 -276q0 -154 -142.5 -247t-408.5 -93q-112 0 -206.5 17.5t-155.5 41t-118 63t-85.5 67.5t-66.5 71l204 96q24 -33 55.5 -62t81.5 -61t124 -50.5t161 -18.5q151 0 248.5 48.5t97.5 127.5 q0 67 -59.5 110t-157.5 62l-389 61q-82 14 -151 41.5t-124 69t-86.5 101.5t-31.5 132zM297 539q0 -133 207 -164l256 -41q65 -12 116 -9t88.5 11.5t64.5 27.5t43.5 38.5t26.5 44.5t13.5 46.5t3.5 43.5q0 132 -207 163l-254 37q-87 15 -149.5 5t-103 -29t-64 -51.5t-32.5 -62 t-9 -60.5z"/>
<glyph unicode="¨" horiz-adv-x="782" d="M61 1157v182h246v-182h-246zM479 1157v182h242v-182h-242z"/>
<glyph unicode="©" horiz-adv-x="1419" d="M61 696q0 181 86 333t236.5 240.5t329.5 88.5t327.5 -88.5t233 -240.5t84.5 -333q0 -183 -84.5 -335.5t-233 -241t-327.5 -88.5q-135 0 -255.5 52t-207.5 141t-138 212t-51 260zM168 690q0 -241 157.5 -405t387.5 -164q111 0 210.5 44t171.5 120t114 183t42 228 q0 157 -70.5 288.5t-194.5 207.5t-273 76q-150 0 -275.5 -76t-197.5 -209t-72 -293zM397 713q0 96 29 171.5t76 119t101 66t110 22.5q106 0 187 -61t120 -167l-109 -39q-18 69 -66 118.5t-130 49.5q-97 0 -151 -78t-54 -202t57 -203.5t146 -79.5q80 0 128 50.5t79 129.5 l104 -47q-44 -101 -121.5 -165t-187.5 -64q-145 0 -231.5 109t-86.5 270z"/>
<glyph unicode="ª" horiz-adv-x="970" d="M61 780q0 82 75 135t196 62l274 22v58q0 73 -131 73q-102 0 -137 -30t-35 -88h-213q0 32 6.5 61.5t30.5 65t62.5 61t110.5 43t167 17.5q178 0 261 -57t83 -150v-273q0 -29 5 -40t18 -11q15 0 33.5 2t30.5 4l11 2v-137q-83 -10 -133 -10q-106 0 -151 49q-99 -57 -238 -57 q-152 0 -239 53t-87 145zM262 780q0 -53 131 -53q54 0 97.5 10.5t67.5 25.5t36 30t12 26v70l-180 -17q-164 -15 -164 -92z"/>
<glyph unicode="«" horiz-adv-x="1204" d="M82 395v191l520 311v-213l-309 -195l309 -194v-213zM602 395v191l520 311v-213l-311 -195l311 -194v-213z"/>
<glyph unicode="¬" d="M123 813v201h1147v-568h-226v367h-921z"/>
<glyph unicode="­" horiz-adv-x="737" d="M61 444v166h615v-166h-615z"/>
<glyph unicode="®" horiz-adv-x="1419" d="M61 696q0 181 86 333t236.5 240.5t329.5 88.5t327.5 -88.5t233 -240.5t84.5 -333q0 -183 -84.5 -335.5t-233 -241t-327.5 -88.5q-135 0 -255.5 52t-207.5 141t-138 212t-51 260zM168 690q0 -241 157.5 -405t387.5 -164q111 0 210.5 44t171.5 120t114 183t42 228 q0 157 -70.5 288.5t-194.5 207.5t-273 76q-150 0 -275.5 -76t-197.5 -209t-72 -293zM526 350v723h211q96 0 160 -55.5t64 -151.5q0 -80 -45.5 -135.5t-102.5 -68.5l180 -312h-112l-174 305h-76v-305h-105zM631 748h94q129 0 129 118q0 64 -35 87.5t-94 23.5h-94v-229z"/>
<glyph unicode="¯" horiz-adv-x="698" d="M61 1126v166h576v-166h-576z"/>
<glyph unicode="°" horiz-adv-x="743" d="M61 1190q0 110 87.5 182t222.5 72q137 0 224 -71.5t87 -182.5q0 -109 -84.5 -179.5t-218.5 -70.5q-138 0 -228 70.5t-90 179.5zM211 1190q0 -60 42.5 -95.5t117.5 -35.5q73 0 114 35t41 96t-41 96t-114 35q-75 0 -117.5 -35.5t-42.5 -95.5z"/>
<glyph unicode="±" d="M123 0v201h1147v-201h-1147zM123 793v200h461v441h225v-441h461v-200h-461v-465h-225v465h-461z"/>
<glyph unicode="²" horiz-adv-x="1060" d="M82 571v117q236 91 422 193q50 28 78.5 44.5t71 46t65 54t40 58.5t17.5 69q0 76 -69.5 122t-198.5 46q-64 0 -111.5 -18t-72 -43t-40 -64t-19 -67t-5.5 -66h-172q5 66 19 120t45 106.5t77.5 88t121.5 57t173 21.5q84 0 155 -18t119.5 -47.5t82.5 -69t49.5 -82t15.5 -86.5 q0 -62 -27.5 -118.5t-77 -104t-111 -86t-138.5 -72.5l-139 -61h526v-140h-897z"/>
<glyph unicode="³" horiz-adv-x="1116" d="M82 881h176q10 -88 86.5 -142.5t218.5 -54.5q134 0 213.5 35.5t79.5 105.5q0 36 -23 60t-66 36t-89 16.5t-107 4.5h-165v139h167q58 0 101.5 4t83 15t60 32.5t20.5 53.5q0 56 -65.5 95.5t-190.5 39.5q-141 0 -219 -52t-87 -141h-167q21 158 139.5 243t337.5 85 q183 0 303.5 -79.5t120.5 -190.5q0 -66 -36 -106.5t-104 -67.5q65 -21 114.5 -69t49.5 -120q0 -88 -66.5 -151.5t-170 -93t-230.5 -29.5q-211 0 -345.5 100t-139.5 232z"/>
<glyph unicode="´" horiz-adv-x="583" d="M61 1106l179 283h282l-270 -283h-191z"/>
<glyph unicode="µ" horiz-adv-x="1253" d="M123 -340v1294h252v-581q0 -230 188 -230q89 0 155.5 26t103 69t54 90.5t17.5 99.5v526h237v-954h-229l-4 111q-68 -58 -147 -90.5t-201 -32.5q-106 0 -174 32v-360h-252z"/>
<glyph unicode="¶" horiz-adv-x="1417" d="M61 1014q0 216 143.5 318t446.5 102h643v-1733h-213v1532h-303v-1532h-211v934q-246 9 -376 108.5t-130 270.5z"/>
<glyph unicode="·" horiz-adv-x="522" d="M123 614v201h276v-201h-276z"/>
<glyph unicode="¸" horiz-adv-x="753" d="M61 -391l56 98q101 -37 192 -37q20 0 39 2.5t42 9.5t36.5 23t13.5 39q0 24 -22 40t-44.5 21t-41.5 5q-66 0 -113 -17l-65 49l184 178h176l-123 -114h49q131 0 191.5 -47.5t60.5 -108.5q0 -81 -101.5 -134.5t-262.5 -53.5q-160 0 -267 47z"/>
<glyph unicode="¹" horiz-adv-x="503" d="M82 1217v110q108 0 157.5 31.5t49.5 75.5h133v-863h-164v586q0 32 -22 46t-70 14h-84z"/>
<glyph unicode="º" horiz-adv-x="1021" d="M61 915q0 151 119.5 248t327.5 97q210 0 331.5 -99t121.5 -246q0 -155 -119 -251.5t-334 -96.5q-212 0 -329.5 98t-117.5 250zM242 915q0 -81 65 -137.5t201 -56.5q130 0 202 51.5t72 142.5q0 85 -73 139t-201 54q-124 0 -195 -54.5t-71 -138.5z"/>
<glyph unicode="»" horiz-adv-x="1204" d="M82 82v213l311 194l-311 195v213l520 -311v-191zM602 82v213l309 194l-309 195v213l520 -311v-191z"/>
<glyph unicode="¼" horiz-adv-x="1925" d="M82 1217v110q108 0 157.5 31.5t49.5 75.5h133v-863h-164v586q0 32 -22 46t-70 14h-84zM197 -20l1063 1474h192l-1063 -1474h-192zM856 217v127l664 518h122v-508h201v-137h-201v-217h-163v217h-623zM1090 354h389v303z"/>
<glyph unicode="½" horiz-adv-x="2037" d="M82 1217v110q108 0 157.5 31.5t49.5 75.5h133v-863h-164v586q0 32 -22 46t-70 14h-84zM199 -20l1063 1474h192l-1063 -1474h-192zM1059 0v117q236 90 422 192q50 27 78.5 44t70.5 47t65 54.5t40.5 58.5t17.5 69q0 76 -69.5 122t-198.5 46q-64 0 -111.5 -18t-72 -43 t-40 -64t-19 -67t-5.5 -66h-172q5 66 19 120t45 106.5t77.5 88t121.5 57t173 21.5q84 0 155 -18t119.5 -47.5t82.5 -69t49.5 -82t15.5 -86.5q0 -62 -27.5 -118.5t-77 -104t-111 -86t-138.5 -72.5l-139 -62h526v-139h-897z"/>
<glyph unicode="¾" horiz-adv-x="2410" d="M82 881h176q10 -88 86.5 -142.5t218.5 -54.5q134 0 213.5 35.5t79.5 105.5q0 36 -23 60t-66 36t-89 16.5t-107 4.5h-165v139h167q58 0 101.5 4t83 15t60 32.5t20.5 53.5q0 56 -65.5 95.5t-190.5 39.5q-141 0 -219 -52t-87 -141h-167q21 158 139.5 243t337.5 85 q183 0 303.5 -79.5t120.5 -190.5q0 -66 -36 -106.5t-104 -67.5q65 -21 114.5 -69t49.5 -120q0 -88 -66.5 -151.5t-170 -93t-230.5 -29.5q-211 0 -345.5 100t-139.5 232zM680 -20l1063 1474h192l-1063 -1474h-192zM1341 217v127l664 518h123v-508h201v-137h-201v-217h-164 v217h-623zM1575 354h389v303z"/>
<glyph unicode="¿" horiz-adv-x="1521" d="M102 -78q0 87 42 159.5t107.5 120t149 81t162.5 48.5t152 17v287h205v-477q-56 26 -183 26q-65 0 -131.5 -15t-128 -45t-100.5 -82.5t-39 -119.5q0 -115 107.5 -194.5t291.5 -79.5q99 0 176.5 24t123 60.5t75.5 86.5t41.5 94t13.5 91h252q-6 -44 -17 -86.5t-35 -96 t-56.5 -99t-86 -91t-120 -77t-161 -51t-206.5 -19.5q-125 0 -239.5 31t-202.5 86.5t-140.5 139t-52.5 181.5zM676 754v200h276v-200h-276z"/>
<glyph unicode="À" horiz-adv-x="1746" d="M20 0l738 1434h203l765 -1434h-256l-213 401h-798l-205 -401h-234zM498 1782h290l185 -246h-199zM547 580h618l-121 229q-15 28 -44 83t-43 81t-35 68.5t-37.5 80.5t-32.5 80h-6q-66 -164 -182 -393z"/>
<glyph unicode="Á" horiz-adv-x="1746" d="M20 0l738 1434h203l765 -1434h-256l-213 401h-798l-205 -401h-234zM547 580h618l-121 229q-15 28 -44 83t-43 81t-35 68.5t-37.5 80.5t-32.5 80h-6q-66 -164 -182 -393zM760 1536l184 246h283l-277 -246h-190z"/>
<glyph unicode="Â" horiz-adv-x="1746" d="M20 0l738 1434h203l765 -1434h-256l-213 401h-798l-205 -401h-234zM475 1536l293 246h193l290 -246h-219l-170 119l-170 -119h-217zM547 580h618l-121 229q-15 28 -44 83t-43 81t-35 68.5t-37.5 80.5t-32.5 80h-6q-66 -164 -182 -393z"/>
<glyph unicode="Ã" horiz-adv-x="1746" d="M20 0l738 1434h203l765 -1434h-256l-213 401h-798l-205 -401h-234zM494 1546q4 36 8.5 60.5t20 62.5t38 61t65 40.5t99.5 17.5q47 0 141.5 -47t122.5 -47q44 0 61.5 17.5t18.5 64.5h164q-3 -62 -25.5 -114.5t-73.5 -89t-122 -36.5q-54 0 -147.5 45t-129.5 45 q-76 0 -80 -80h-161zM547 580h618l-121 229q-15 28 -44 83t-43 81t-35 68.5t-37.5 80.5t-32.5 80h-6q-66 -164 -182 -393z"/>
<glyph unicode="Ä" horiz-adv-x="1746" d="M20 0l738 1434h203l765 -1434h-256l-213 401h-798l-205 -401h-234zM530 1599v183h246v-183h-246zM547 580h618l-121 229q-15 28 -44 83t-43 81t-35 68.5t-37.5 80.5t-32.5 80h-6q-66 -164 -182 -393zM948 1599v183h242v-183h-242z"/>
<glyph unicode="Å" horiz-adv-x="1746" d="M20 0l738 1434h203l765 -1434h-256l-213 401h-798l-205 -401h-234zM547 580h618l-121 229q-15 28 -44 83t-43 81t-35 68.5t-37.5 80.5t-32.5 80h-6q-66 -164 -182 -393zM598 1642q0 83 76.5 137t195.5 54q117 0 195 -54t78 -137q0 -81 -78 -134.5t-195 -53.5 q-118 0 -195 53t-77 135zM758 1642q0 -34 33 -57.5t79 -23.5q47 0 80 23.5t33 57.5q0 36 -32.5 60t-80.5 24q-47 0 -79.5 -24t-32.5 -60z"/>
<glyph unicode="Æ" horiz-adv-x="2539" d="M0 0l1044 1434h1313v-201h-1042l80 -385h966v-201h-923l94 -446h926v-201h-1108l-86 406h-725l-293 -406h-246zM674 596h549l-125 590z"/>
<glyph unicode="Ç" horiz-adv-x="1853" d="M82 717q0 155 50.5 283t134 213.5t194 144.5t227.5 85.5t238 26.5q287 0 504 -112t325 -305l-231 -72q-29 53 -74.5 101t-115.5 94.5t-174.5 74t-229.5 27.5q-147 0 -264.5 -42t-193 -117.5t-115.5 -177.5t-40 -224q0 -248 169 -404.5t438 -156.5q422 0 604 299l239 -60 q-237 -392 -741 -428l-86 -82h49q132 0 192 -47t60 -108q0 -82 -94.5 -135.5t-253.5 -53.5q-144 0 -283 47l56 99q124 -37 192 -37q20 0 39 2.5t42 9.5t36.5 23t13.5 39q0 24 -22 40t-44.5 20.5t-41.5 4.5q-54 0 -113 -16l-66 49l148 143q-179 12 -325 74.5t-242.5 162.5 t-148.5 232t-52 283z"/>
<glyph unicode="È" horiz-adv-x="1550" d="M143 0v1434h1289v-201h-1063v-385h1015v-201h-1015v-446h1099v-201h-1325zM539 1782h290l185 -246h-199z"/>
<glyph unicode="É" horiz-adv-x="1550" d="M143 0v1434h1289v-201h-1063v-385h1015v-201h-1015v-446h1099v-201h-1325zM625 1536l184 246h283l-277 -246h-190z"/>
<glyph unicode="Ê" horiz-adv-x="1550" d="M143 0v1434h1289v-201h-1063v-385h1015v-201h-1015v-446h1099v-201h-1325zM428 1536l293 246h192l291 -246h-219l-170 119l-170 -119h-217z"/>
<glyph unicode="Ë" horiz-adv-x="1550" d="M143 0v1434h1289v-201h-1063v-385h1015v-201h-1015v-446h1099v-201h-1325zM485 1599v183h246v-183h-246zM903 1599v183h242v-183h-242z"/>
<glyph unicode="Ì" horiz-adv-x="532" d="M-96 1782h291l184 -246h-199zM164 0v1434h225v-1434h-225z"/>
<glyph unicode="Í" horiz-adv-x="532" d="M143 0v1434h226v-1434h-226zM160 1536l184 246h283l-277 -246h-190z"/>
<glyph unicode="Î" horiz-adv-x="552" d="M-117 1536l293 246h193l290 -246h-219l-170 119l-170 -119h-217zM164 0v1434h225v-1434h-225z"/>
<glyph unicode="Ï" horiz-adv-x="552" d="M-57 1599v183h245v-183h-245zM164 0v1434h225v-1434h-225zM360 1599v183h242v-183h-242z"/>
<glyph unicode="Ð" horiz-adv-x="1724" d="M31 637v182h164v615h626q147 0 269 -25.5t211 -72.5t155.5 -110t106.5 -142.5t59.5 -165.5t19.5 -183q0 -169 -49 -303.5t-146.5 -231t-251 -148.5t-353.5 -52h-647v637h-164zM420 201h362q313 0 469 135.5t156 396.5q0 238 -159.5 369t-475.5 131h-352v-414h444v-182 h-444v-436z"/>
<glyph unicode="Ñ" horiz-adv-x="1767" d="M143 0v1434h215l670 -705q94 -99 188 -202t142 -157l47 -53q-6 227 -6 603v514h225v-1434h-217l-698 745q-101 108 -188 204t-124 139l-37 42q9 -223 9 -589v-541h-226zM539 1546q4 36 8.5 60.5t20 62.5t38 61t65 40.5t99.5 17.5q47 0 141.5 -47t122.5 -47 q44 0 61.5 17.5t18.5 64.5h164q-3 -62 -25.5 -114.5t-73.5 -89t-122 -36.5q-54 0 -147.5 45t-129.5 45q-76 0 -80 -80h-161z"/>
<glyph unicode="Ò" horiz-adv-x="1875" d="M82 717q0 159 53 289t139 214.5t198.5 142.5t227 82.5t230.5 24.5q117 0 233.5 -25t231.5 -83.5t202.5 -143t142 -213.5t54.5 -286q0 -153 -50 -280t-134 -214t-196 -147t-233.5 -87.5t-248.5 -27.5q-133 0 -256.5 29.5t-232 91.5t-188.5 150t-126.5 212.5t-46.5 270.5z M317 717q0 -250 166.5 -405.5t446.5 -155.5q289 0 459 150.5t170 410.5q0 254 -172.5 407.5t-456.5 153.5q-130 0 -235.5 -32.5t-174.5 -86t-116 -127t-67 -152t-20 -163.5zM563 1802h291l184 -246h-198z"/>
<glyph unicode="Ó" horiz-adv-x="1875" d="M82 717q0 159 53 289t139 214.5t198.5 142.5t227 82.5t230.5 24.5q117 0 233.5 -25t231.5 -83.5t202.5 -143t142 -213.5t54.5 -286q0 -153 -50 -280t-134 -214t-196 -147t-233.5 -87.5t-248.5 -27.5q-133 0 -256.5 29.5t-232 91.5t-188.5 150t-126.5 212.5t-46.5 270.5z M317 717q0 -250 166.5 -405.5t446.5 -155.5q289 0 459 150.5t170 410.5q0 254 -172.5 407.5t-456.5 153.5q-130 0 -235.5 -32.5t-174.5 -86t-116 -127t-67 -152t-20 -163.5zM825 1556l185 246h282l-276 -246h-191z"/>
<glyph unicode="Ô" horiz-adv-x="1875" d="M82 717q0 159 53 289t139 214.5t198.5 142.5t227 82.5t230.5 24.5q117 0 233.5 -25t231.5 -83.5t202.5 -143t142 -213.5t54.5 -286q0 -153 -50 -280t-134 -214t-196 -147t-233.5 -87.5t-248.5 -27.5q-133 0 -256.5 29.5t-232 91.5t-188.5 150t-126.5 212.5t-46.5 270.5z M317 717q0 -250 166.5 -405.5t446.5 -155.5q289 0 459 150.5t170 410.5q0 254 -172.5 407.5t-456.5 153.5q-130 0 -235.5 -32.5t-174.5 -86t-116 -127t-67 -152t-20 -163.5zM541 1556l293 246h192l291 -246h-219l-170 119l-170 -119h-217z"/>
<glyph unicode="Õ" horiz-adv-x="1875" d="M82 717q0 159 53 289t139 214.5t198.5 142.5t227 82.5t230.5 24.5q117 0 233.5 -25t231.5 -83.5t202.5 -143t142 -213.5t54.5 -286q0 -153 -50 -280t-134 -214t-196 -147t-233.5 -87.5t-248.5 -27.5q-133 0 -256.5 29.5t-232 91.5t-188.5 150t-126.5 212.5t-46.5 270.5z M317 717q0 -250 166.5 -405.5t446.5 -155.5q289 0 459 150.5t170 410.5q0 254 -172.5 407.5t-456.5 153.5q-130 0 -235.5 -32.5t-174.5 -86t-116 -127t-67 -152t-20 -163.5zM559 1567q4 36 8.5 60.5t20 62t38.5 60.5t65.5 40.5t99.5 17.5q47 0 141.5 -47t122.5 -47 q44 0 61.5 17.5t18.5 64.5h163q-3 -62 -25.5 -114.5t-73.5 -89t-122 -36.5q-54 0 -147 45.5t-129 45.5q-76 0 -80 -80h-162z"/>
<glyph unicode="Ö" horiz-adv-x="1875" d="M82 717q0 159 53 289t139 214.5t198.5 142.5t227 82.5t230.5 24.5q117 0 233.5 -25t231.5 -83.5t202.5 -143t142 -213.5t54.5 -286q0 -153 -50 -280t-134 -214t-196 -147t-233.5 -87.5t-248.5 -27.5q-133 0 -256.5 29.5t-232 91.5t-188.5 150t-126.5 212.5t-46.5 270.5z M317 717q0 -250 166.5 -405.5t446.5 -155.5q289 0 459 150.5t170 410.5q0 254 -172.5 407.5t-456.5 153.5q-130 0 -235.5 -32.5t-174.5 -86t-116 -127t-67 -152t-20 -163.5zM608 1620v182h246v-182h-246zM1026 1620v182h242v-182h-242z"/>
<glyph unicode="×" horiz-adv-x="1200" d="M123 395l334 334l-334 334l143 143l334 -334l334 334l143 -143l-334 -334l334 -334l-143 -143l-334 334l-334 -334z"/>
<glyph unicode="Ø" horiz-adv-x="1875" d="M82 -41l219 227q-219 206 -219 531q0 159 53 289t139 214.5t198.5 142.5t227 82.5t230.5 24.5q265 0 489 -122l123 127h252l-223 -234q223 -200 223 -522q0 -153 -50 -280t-134 -214t-196 -147t-233.5 -87.5t-248.5 -27.5q-268 0 -475 113l-113 -117h-262zM317 717 q0 -225 134 -375l825 856q-151 80 -346 80q-130 0 -235.5 -32.5t-174.5 -86t-116 -127t-67 -152t-20 -163.5zM602 227q136 -71 328 -71q289 0 459 150.5t170 410.5q0 218 -136 370z"/>
<glyph unicode="Ù" horiz-adv-x="1705" d="M154 512v922h225v-916q0 -160 121 -264t344 -104q128 0 223 27.5t151 77.5t82.5 115t26.5 146v918h225v-918q0 -547 -710 -547q-209 0 -361.5 59.5t-239.5 183t-87 300.5zM492 1782h290l185 -246h-199z"/>
<glyph unicode="Ú" horiz-adv-x="1705" d="M154 512v922h225v-916q0 -160 121 -264t344 -104q128 0 223 27.5t151 77.5t82.5 115t26.5 146v918h225v-918q0 -547 -710 -547q-209 0 -361.5 59.5t-239.5 183t-87 300.5zM731 1536l184 246h283l-276 -246h-191z"/>
<glyph unicode="Û" horiz-adv-x="1705" d="M154 512v922h225v-916q0 -160 121 -264t344 -104q128 0 223 27.5t151 77.5t82.5 115t26.5 146v918h225v-918q0 -547 -710 -547q-209 0 -361.5 59.5t-239.5 183t-87 300.5zM463 1536l293 246h192l291 -246h-219l-170 119l-170 -119h-217z"/>
<glyph unicode="Ü" horiz-adv-x="1705" d="M154 512v922h225v-916q0 -160 121 -264t344 -104q128 0 223 27.5t151 77.5t82.5 115t26.5 146v918h225v-918q0 -547 -710 -547q-209 0 -361.5 59.5t-239.5 183t-87 300.5zM522 1599v183h246v-183h-246zM940 1599v183h242v-183h-242z"/>
<glyph unicode="Ý" horiz-adv-x="1462" d="M4 1434h260l471 -613h4l480 613h247l-622 -789v-645h-226v645zM633 1536l184 246h283l-277 -246h-190z"/>
<glyph unicode="Þ" horiz-adv-x="1396" d="M143 0v1434h226v-277h317q160 0 283 -33t197.5 -92.5t111.5 -136t37 -168.5q0 -213 -148 -336t-452 -123h-346v-268h-226zM369 465h297q209 0 311 58.5t102 199.5q0 56 -21 97.5t-69 74t-134 49.5t-210 17h-276v-496z"/>
<glyph unicode="ß" horiz-adv-x="1314" d="M123 0v1059q0 172 136.5 277.5t393.5 105.5q251 0 393 -109.5t142 -277.5q0 -192 -174 -277q43 -20 82 -48.5t76 -72t59 -105.5t22 -134q0 -443 -569 -443q-95 0 -197 13v182q28 -5 93 -12.5t88 -7.5q190 0 280 60.5t90 207.5q0 60 -20 106.5t-51 74t-74.5 45t-86 24 t-89.5 6.5h-230v178h254q96 0 164 50.5t68 152.5q0 41 -13 76t-45.5 70.5t-99.5 56t-162 20.5q-74 0 -130.5 -12.5t-102 -40.5t-69 -78.5t-23.5 -122.5v-1024h-205z"/>
<glyph unicode="à" horiz-adv-x="1304" d="M82 262q0 121 101.5 195.5t269.5 89.5l452 39v80q0 71 -71 112t-191 41q-74 0 -129 -11t-86.5 -28.5t-50.5 -44t-25 -52t-6 -58.5h-221q0 32 4.5 62t18.5 67t36.5 68t62.5 61.5t92.5 52t130.5 34.5t173 13q126 0 219 -24t146 -67.5t77.5 -98t24.5 -121.5v-420 q0 -56 13.5 -76t39.5 -20q16 0 38.5 3t36.5 6l15 3v-164q-14 -3 -69 -8.5t-90 -5.5q-92 0 -138.5 29t-46.5 104h-4q-54 -59 -155 -101t-222 -42q-209 0 -327.5 75.5t-118.5 206.5zM276 1389h291l178 -283h-198zM297 262q0 -70 64 -100.5t192 -30.5q83 0 153.5 23t112 57 t64 67t22.5 58v106l-309 -30q-117 -13 -183.5 -34t-91 -48t-24.5 -68z"/>
<glyph unicode="á" horiz-adv-x="1304" d="M82 262q0 121 101.5 195.5t269.5 89.5l452 39v80q0 71 -71 112t-191 41q-74 0 -129 -11t-86.5 -28.5t-50.5 -44t-25 -52t-6 -58.5h-221q0 32 4.5 62t18.5 67t36.5 68t62.5 61.5t92.5 52t130.5 34.5t173 13q126 0 219 -24t146 -67.5t77.5 -98t24.5 -121.5v-420 q0 -56 13.5 -76t39.5 -20q16 0 38.5 3t36.5 6l15 3v-164q-14 -3 -69 -8.5t-90 -5.5q-92 0 -138.5 29t-46.5 104h-4q-54 -59 -155 -101t-222 -42q-209 0 -327.5 75.5t-118.5 206.5zM297 262q0 -70 64 -100.5t192 -30.5q83 0 153.5 23t112 57t64 67t22.5 58v106l-309 -30 q-117 -13 -183.5 -34t-91 -48t-24.5 -68zM526 1106l179 283h282l-270 -283h-191z"/>
<glyph unicode="â" horiz-adv-x="1304" d="M82 262q0 121 101.5 195.5t269.5 89.5l452 39v80q0 71 -71 112t-191 41q-74 0 -129 -11t-86.5 -28.5t-50.5 -44t-25 -52t-6 -58.5h-221q0 32 4.5 62t18.5 67t36.5 68t62.5 61.5t92.5 52t130.5 34.5t173 13q126 0 219 -24t146 -67.5t77.5 -98t24.5 -121.5v-420 q0 -56 13.5 -76t39.5 -20q16 0 38.5 3t36.5 6l15 3v-164q-14 -3 -69 -8.5t-90 -5.5q-92 0 -138.5 29t-46.5 104h-4q-54 -59 -155 -101t-222 -42q-209 0 -327.5 75.5t-118.5 206.5zM268 1106l262 283h193l260 -283h-219l-139 156l-140 -156h-217zM297 262q0 -70 64 -100.5 t192 -30.5q83 0 153.5 23t112 57t64 67t22.5 58v106l-309 -30q-117 -13 -183.5 -34t-91 -48t-24.5 -68z"/>
<glyph unicode="ã" horiz-adv-x="1304" d="M82 262q0 121 101.5 195.5t269.5 89.5l452 39v80q0 71 -71 112t-191 41q-74 0 -129 -11t-86.5 -28.5t-50.5 -44t-25 -52t-6 -58.5h-221q0 32 4.5 62t18.5 67t36.5 68t62.5 61.5t92.5 52t130.5 34.5t173 13q126 0 219 -24t146 -67.5t77.5 -98t24.5 -121.5v-420 q0 -56 13.5 -76t39.5 -20q16 0 38.5 3t36.5 6l15 3v-164q-14 -3 -69 -8.5t-90 -5.5q-92 0 -138.5 29t-46.5 104h-4q-54 -59 -155 -101t-222 -42q-209 0 -327.5 75.5t-118.5 206.5zM256 1114q4 35 8.5 59t20 59.5t38 57t65 37.5t99.5 16q47 0 142 -46t123 -46q44 0 61 16.5 t18 63.5h164q-5 -98 -60.5 -165.5t-160.5 -67.5q-54 0 -147 46t-129 46q-77 0 -80 -76h-162zM297 262q0 -70 64 -100.5t192 -30.5q83 0 153.5 23t112 57t64 67t22.5 58v106l-309 -30q-117 -13 -183.5 -34t-91 -48t-24.5 -68z"/>
<glyph unicode="ä" horiz-adv-x="1304" d="M82 262q0 121 101.5 195.5t269.5 89.5l452 39v80q0 71 -71 112t-191 41q-74 0 -129 -11t-86.5 -28.5t-50.5 -44t-25 -52t-6 -58.5h-221q0 32 4.5 62t18.5 67t36.5 68t62.5 61.5t92.5 52t130.5 34.5t173 13q126 0 219 -24t146 -67.5t77.5 -98t24.5 -121.5v-420 q0 -56 13.5 -76t39.5 -20q16 0 38.5 3t36.5 6l15 3v-164q-14 -3 -69 -8.5t-90 -5.5q-92 0 -138.5 29t-46.5 104h-4q-54 -59 -155 -101t-222 -42q-209 0 -327.5 75.5t-118.5 206.5zM297 262q0 -70 64 -100.5t192 -30.5q83 0 153.5 23t112 57t64 67t22.5 58v106l-309 -30 q-117 -13 -183.5 -34t-91 -48t-24.5 -68zM297 1157v182h246v-182h-246zM715 1157v182h241v-182h-241z"/>
<glyph unicode="å" horiz-adv-x="1304" d="M82 262q0 121 101.5 195.5t269.5 89.5l452 39v80q0 71 -71 112t-191 41q-74 0 -129 -11t-86.5 -28.5t-50.5 -44t-25 -52t-6 -58.5h-221q0 32 4.5 62t18.5 67t36.5 68t62.5 61.5t92.5 52t130.5 34.5t173 13q126 0 219 -24t146 -67.5t77.5 -98t24.5 -121.5v-420 q0 -56 13.5 -76t39.5 -20q16 0 38.5 3t36.5 6l15 3v-164q-14 -3 -69 -8.5t-90 -5.5q-92 0 -138.5 29t-46.5 104h-4q-54 -59 -155 -101t-222 -42q-209 0 -327.5 75.5t-118.5 206.5zM297 262q0 -70 64 -100.5t192 -30.5q83 0 153.5 23t112 57t64 67t22.5 58v106l-309 -30 q-117 -13 -183.5 -34t-91 -48t-24.5 -68zM354 1264q0 83 77 136.5t196 53.5q118 0 195 -53.5t77 -136.5q0 -82 -77.5 -135.5t-194.5 -53.5q-118 0 -195.5 53.5t-77.5 135.5zM514 1264q0 -34 33.5 -58t79.5 -24q47 0 79.5 24t32.5 58q0 36 -32 60t-80 24q-47 0 -80 -24 t-33 -60z"/>
<glyph unicode="æ" horiz-adv-x="2150" d="M82 262q0 123 103 205.5t268 97.5l411 39v82q0 154 -221 154q-92 0 -154 -16t-91.5 -45.5t-40.5 -61t-11 -72.5h-221q0 47 9 89t41.5 94t86 88.5t152 62t229.5 25.5q302 0 387 -146q86 72 205 109t252 37q280 0 441 -154t161 -410h-1008q17 -138 125.5 -217.5 t280.5 -79.5q141 0 225.5 43.5t155.5 120.5l182 -106q-214 -221 -563 -221q-155 0 -281 44t-209 128q-49 -54 -108 -90.5t-123.5 -53t-118.5 -22.5t-119 -6q-209 0 -327.5 75.5t-118.5 206.5zM297 262q0 -70 64 -100.5t192 -30.5q67 0 122.5 15.5t89.5 39t57 52t32.5 53.5 t9.5 45v125l-268 -31q-114 -13 -182.5 -39t-92.5 -56.5t-24 -72.5zM1087 598h771q-19 103 -113.5 172.5t-257.5 69.5q-171 0 -273.5 -70t-126.5 -172z"/>
<glyph unicode="ç" horiz-adv-x="1357" d="M61 485q0 128 50.5 229t137.5 163t198 94.5t237 32.5q418 0 594 -299l-213 -74q-112 209 -381 209q-199 0 -304.5 -95t-105.5 -253q0 -71 22.5 -129t61 -98.5t91 -68t111.5 -40.5t124 -13q78 0 142.5 17t105 41t73.5 57.5t48.5 59t27.5 53.5l215 -82 q-66 -116 -190.5 -198.5t-306.5 -104.5l-86 -80h49q131 0 191.5 -47.5t60.5 -108.5q0 -82 -94.5 -135t-253.5 -53q-144 0 -283 47l55 98q124 -37 193 -37q20 0 39 2.5t42 9.5t36.5 23t13.5 39q0 19 -12.5 32.5t-31.5 20.5t-35.5 10t-29.5 3q-23 0 -112 -17l-66 49l143 140 q-115 8 -215 44t-177 97.5t-121 154.5t-44 207z"/>
<glyph unicode="è" horiz-adv-x="1347" d="M61 496q0 124 51.5 223t139 160t198 93t234.5 32q280 0 441 -154t161 -410h-1007q17 -138 125 -217.5t280 -79.5q74 0 137.5 14.5t111.5 41.5t79 51t65 57l170 -106q-214 -221 -563 -221q-182 0 -321.5 59t-220.5 177t-81 280zM285 598h770q-19 103 -113.5 172.5 t-257.5 69.5q-171 0 -273 -70t-126 -172zM303 1389h291l178 -283h-199z"/>
<glyph unicode="é" horiz-adv-x="1347" d="M61 496q0 124 51.5 223t139 160t198 93t234.5 32q280 0 441 -154t161 -410h-1007q17 -138 125 -217.5t280 -79.5q74 0 137.5 14.5t111.5 41.5t79 51t65 57l170 -106q-214 -221 -563 -221q-182 0 -321.5 59t-220.5 177t-81 280zM285 598h770q-19 103 -113.5 172.5 t-257.5 69.5q-171 0 -273 -70t-126 -172zM573 1106l179 283h282l-270 -283h-191z"/>
<glyph unicode="ê" horiz-adv-x="1347" d="M61 496q0 124 51.5 223t139 160t198 93t234.5 32q280 0 441 -154t161 -410h-1007q17 -138 125 -217.5t280 -79.5q74 0 137.5 14.5t111.5 41.5t79 51t65 57l170 -106q-214 -221 -563 -221q-182 0 -321.5 59t-220.5 177t-81 280zM285 598h770q-19 103 -113.5 172.5 t-257.5 69.5q-171 0 -273 -70t-126 -172zM315 1106l263 283h192l260 -283h-219l-139 156l-140 -156h-217z"/>
<glyph unicode="ë" horiz-adv-x="1347" d="M61 496q0 124 51.5 223t139 160t198 93t234.5 32q280 0 441 -154t161 -410h-1007q17 -138 125 -217.5t280 -79.5q74 0 137.5 14.5t111.5 41.5t79 51t65 57l170 -106q-214 -221 -563 -221q-182 0 -321.5 59t-220.5 177t-81 280zM285 598h770q-19 103 -113.5 172.5 t-257.5 69.5q-171 0 -273 -70t-126 -172zM344 1157v182h246v-182h-246zM762 1157v182h242v-182h-242z"/>
<glyph unicode="ì" horiz-adv-x="450" d="M-145 1389h290l179 -283h-199zM123 0v954h205v-954h-205z"/>
<glyph unicode="í" horiz-adv-x="450" d="M123 0v954h205v-954h-205zM125 1106l178 283h283l-271 -283h-190z"/>
<glyph unicode="î" horiz-adv-x="450" d="M-131 1106l262 283h193l260 -283h-219l-140 156l-139 -156h-217zM123 0v954h205v-954h-205z"/>
<glyph unicode="ï" horiz-adv-x="450" d="M-104 1157v182h245v-182h-245zM123 0v954h205v-954h-205zM313 1157v182h242v-182h-242z"/>
<glyph unicode="ð" horiz-adv-x="1376" d="M61 496q0 225 166.5 366.5t456.5 141.5q87 0 179.5 -24.5t158.5 -70.5q-49 91 -130 174t-169 140l-334 -154l-67 143l223 103q-108 44 -289 86l109 147q213 -44 391 -135l264 123l70 -141l-172 -80q183 -137 287 -333t110 -445q0 -266 -163.5 -411.5t-467.5 -145.5 q-147 0 -266 39.5t-196.5 109.5t-119 163.5t-41.5 203.5zM274 494q0 -53 14 -102.5t45.5 -95t78 -79.5t116.5 -54t156 -20q197 0 306.5 94t109.5 257q0 154 -108.5 250t-307.5 96q-195 0 -302.5 -96.5t-107.5 -249.5z"/>
<glyph unicode="ñ" horiz-adv-x="1282" d="M123 0v954h205v-145h4q170 170 393 170q205 0 324.5 -94t119.5 -269v-616h-204v596q0 104 -62.5 161.5t-189.5 57.5q-87 0 -161.5 -27.5t-122.5 -71.5t-74.5 -97t-26.5 -105v-514h-205zM297 1114q4 35 8.5 59t20 59.5t38 57t65 37.5t99.5 16q47 0 142 -46t123 -46 q45 0 61.5 16.5t17.5 63.5h164q-5 -98 -60.5 -165.5t-160.5 -67.5q-54 0 -147 46t-129 46q-77 0 -80 -76h-162z"/>
<glyph unicode="ò" horiz-adv-x="1376" d="M61 496q0 225 166.5 366.5t456.5 141.5q149 0 269.5 -39.5t199 -108.5t120.5 -161t42 -199q0 -113 -41.5 -207t-120.5 -163t-199 -107.5t-270 -38.5q-147 0 -266 39.5t-196.5 109.5t-119 163.5t-41.5 203.5zM274 494q0 -53 14 -102.5t45.5 -95t78 -79.5t116.5 -54 t156 -20q197 0 306.5 94t109.5 257q0 154 -108.5 250t-307.5 96q-195 0 -302.5 -96.5t-107.5 -249.5zM317 1389h291l178 -283h-198z"/>
<glyph unicode="ó" horiz-adv-x="1376" d="M61 496q0 225 166.5 366.5t456.5 141.5q149 0 269.5 -39.5t199 -108.5t120.5 -161t42 -199q0 -113 -41.5 -207t-120.5 -163t-199 -107.5t-270 -38.5q-147 0 -266 39.5t-196.5 109.5t-119 163.5t-41.5 203.5zM274 494q0 -53 14 -102.5t45.5 -95t78 -79.5t116.5 -54 t156 -20q197 0 306.5 94t109.5 257q0 154 -108.5 250t-307.5 96q-195 0 -302.5 -96.5t-107.5 -249.5zM588 1106l178 283h283l-271 -283h-190z"/>
<glyph unicode="ô" horiz-adv-x="1376" d="M61 496q0 225 166.5 366.5t456.5 141.5q149 0 269.5 -39.5t199 -108.5t120.5 -161t42 -199q0 -113 -41.5 -207t-120.5 -163t-199 -107.5t-270 -38.5q-147 0 -266 39.5t-196.5 109.5t-119 163.5t-41.5 203.5zM274 494q0 -53 14 -102.5t45.5 -95t78 -79.5t116.5 -54 t156 -20q197 0 306.5 94t109.5 257q0 154 -108.5 250t-307.5 96q-195 0 -302.5 -96.5t-107.5 -249.5zM330 1106l262 283h192l260 -283h-219l-139 156l-139 -156h-217z"/>
<glyph unicode="õ" horiz-adv-x="1376" d="M61 496q0 225 166.5 366.5t456.5 141.5q149 0 269.5 -39.5t199 -108.5t120.5 -161t42 -199q0 -113 -41.5 -207t-120.5 -163t-199 -107.5t-270 -38.5q-147 0 -266 39.5t-196.5 109.5t-119 163.5t-41.5 203.5zM274 494q0 -53 14 -102.5t45.5 -95t78 -79.5t116.5 -54 t156 -20q197 0 306.5 94t109.5 257q0 154 -108.5 250t-307.5 96q-195 0 -302.5 -96.5t-107.5 -249.5zM317 1114q3 24 5.5 41.5t10 43t17.5 44t27.5 38.5t40 32.5t56.5 21t75 8.5q47 0 141.5 -46t122.5 -46q45 0 62 16.5t18 63.5h164q-5 -98 -60.5 -165.5t-160.5 -67.5 q-54 0 -147.5 46t-129.5 46q-77 0 -80 -76h-162z"/>
<glyph unicode="ö" horiz-adv-x="1376" d="M61 496q0 225 166.5 366.5t456.5 141.5q149 0 269.5 -39.5t199 -108.5t120.5 -161t42 -199q0 -113 -41.5 -207t-120.5 -163t-199 -107.5t-270 -38.5q-147 0 -266 39.5t-196.5 109.5t-119 163.5t-41.5 203.5zM274 494q0 -53 14 -102.5t45.5 -95t78 -79.5t116.5 -54 t156 -20q197 0 306.5 94t109.5 257q0 154 -108.5 250t-307.5 96q-195 0 -302.5 -96.5t-107.5 -249.5zM358 1157v182h246v-182h-246zM776 1157v182h242v-182h-242z"/>
<glyph unicode="÷" d="M123 629v200h1147v-200h-1147zM557 233v201h277v-201h-277zM557 999v201h277v-201h-277z"/>
<glyph unicode="ø" horiz-adv-x="1376" d="M61 -61l168 182q-168 142 -168 375q0 225 166.5 366.5t456.5 141.5q172 0 313 -56l127 137h191l-193 -208q94 -69 143.5 -167t49.5 -214q0 -113 -41.5 -207t-120.5 -163t-199 -107.5t-270 -38.5q-187 0 -328 61l-94 -102h-201zM274 494q0 -140 86 -232l510 549 q-85 29 -186 29q-195 0 -302.5 -96.5t-107.5 -249.5zM483 178q81 -35 201 -35q197 0 306.5 94t109.5 257q0 154 -105 245z"/>
<glyph unicode="ù" horiz-adv-x="1282" d="M113 338v616h204v-596q0 -104 62.5 -161.5t189.5 -57.5q87 0 161.5 27.5t122.5 71.5t74.5 97t26.5 105v514h205v-954h-205v145h-4q-170 -170 -393 -170q-205 0 -324.5 94t-119.5 269zM279 1389h290l179 -283h-199z"/>
<glyph unicode="ú" horiz-adv-x="1282" d="M113 338v616h204v-596q0 -104 62.5 -161.5t189.5 -57.5q87 0 161.5 27.5t122.5 71.5t74.5 97t26.5 105v514h205v-954h-205v145h-4q-170 -170 -393 -170q-205 0 -324.5 94t-119.5 269zM524 1106l178 283h283l-270 -283h-191z"/>
<glyph unicode="û" horiz-adv-x="1282" d="M113 338v616h204v-596q0 -104 62.5 -161.5t189.5 -57.5q87 0 161.5 27.5t122.5 71.5t74.5 97t26.5 105v514h205v-954h-205v145h-4q-170 -170 -393 -170q-205 0 -324.5 94t-119.5 269zM270 1106l262 283h193l260 -283h-219l-139 156l-140 -156h-217z"/>
<glyph unicode="ü" horiz-adv-x="1282" d="M113 338v616h204v-596q0 -104 62.5 -161.5t189.5 -57.5q87 0 161.5 27.5t122.5 71.5t74.5 97t26.5 105v514h205v-954h-205v145h-4q-170 -170 -393 -170q-205 0 -324.5 94t-119.5 269zM285 1157v182h245v-182h-245zM702 1157v182h242v-182h-242z"/>
<glyph unicode="ý" horiz-adv-x="1169" d="M20 954h234l207 -409q115 -228 141 -295h4q27 77 133 299l193 405h217l-600 -1265q-44 -93 -114 -131.5t-195 -38.5q-55 0 -106.5 6t-75.5 12l-25 6v183q100 -27 186 -27q63 0 98 20t64 82l108 226zM477 1106l178 283h283l-270 -283h-191z"/>
<glyph unicode="þ" horiz-adv-x="1294" d="M123 -473v1907h205v-580q57 59 146.5 100t201.5 41q132 0 238.5 -40t175.5 -110.5t106 -164t37 -201.5q0 -121 -44.5 -219t-120 -160t-174 -95.5t-208.5 -33.5q-223 0 -358 142v-586h-205zM328 479q0 -162 98.5 -253t245.5 -91q146 0 245 92t99 254q0 167 -96 258.5 t-244 91.5q-155 0 -251.5 -95.5t-96.5 -256.5z"/>
<glyph unicode="ÿ" horiz-adv-x="1169" d="M20 954h234l207 -409q115 -228 141 -295h4q27 77 133 299l193 405h217l-600 -1265q-44 -93 -114 -131.5t-195 -38.5q-55 0 -106.5 6t-75.5 12l-25 6v183q100 -27 186 -27q63 0 98 20t64 82l108 226zM268 1157v182h246v-182h-246zM686 1157v182h242v-182h-242z"/>
<glyph unicode="Œ" horiz-adv-x="2682" d="M82 717q0 159 56 289t146 214.5t208 142.5t238 82.5t241 24.5q88 0 192.5 -18t143.5 -18h1241v-201h-1057v-385h967v-201h-967v-446h1110v-201h-1290q-39 0 -135.5 -18.5t-202.5 -18.5q-139 0 -269 29.5t-243 91.5t-197.5 150t-133 212.5t-48.5 270.5zM317 717 q0 -250 178 -405.5t476 -155.5q165 0 295 43v1032q-133 47 -295 47q-138 0 -250.5 -32.5t-186.5 -86t-124 -127t-71.5 -152t-21.5 -163.5z"/>
<glyph unicode="œ" horiz-adv-x="2385" d="M61 496q0 225 166.5 366.5t456.5 141.5q175 0 308 -54t214 -149q84 99 221 151t295 52q280 0 441 -154t161 -410h-1007q17 -138 125 -217.5t280 -79.5q141 0 225.5 43.5t155.5 120.5l183 -106q-100 -103 -242.5 -162t-321.5 -59q-168 0 -300.5 51t-215.5 149 q-78 -96 -211 -148t-311 -52q-147 0 -266 39.5t-196.5 109.5t-119 163.5t-41.5 203.5zM274 494q0 -53 14 -102.5t45.5 -95t78 -79.5t116.5 -54t156 -20q197 0 306.5 94t109.5 257q0 154 -108.5 250t-307.5 96q-195 0 -302.5 -96.5t-107.5 -249.5zM1323 598h770 q-19 103 -113.5 172.5t-257.5 69.5q-171 0 -273 -70t-126 -172z"/>
<glyph unicode="Ÿ" horiz-adv-x="1462" d="M4 1434h260l471 -613h4l480 613h247l-622 -789v-645h-226v645zM401 1608v182h246v-182h-246zM819 1608v182h242v-182h-242z"/>
<glyph unicode="ˆ" horiz-adv-x="980" d="M133 1106l262 283h193l260 -283h-219l-140 156l-139 -156h-217z"/>
<glyph unicode="˜" horiz-adv-x="985" d="M123 1114q4 35 8.5 59t20 59.5t38 57t65 37.5t99.5 16q47 0 141.5 -46t122.5 -46q45 0 62 16.5t18 63.5h164q-5 -98 -60.5 -165.5t-160.5 -67.5q-54 0 -147 46t-129 46q-77 0 -80 -76h-162z"/>
<glyph unicode=" " horiz-adv-x="916"/>
<glyph unicode=" " horiz-adv-x="1833"/>
<glyph unicode=" " horiz-adv-x="916"/>
<glyph unicode=" " horiz-adv-x="1833"/>
<glyph unicode=" " horiz-adv-x="611"/>
<glyph unicode=" " horiz-adv-x="458"/>
<glyph unicode=" " horiz-adv-x="305"/>
<glyph unicode=" " horiz-adv-x="305"/>
<glyph unicode=" " horiz-adv-x="229"/>
<glyph unicode=" " horiz-adv-x="366"/>
<glyph unicode=" " horiz-adv-x="101"/>
<glyph unicode="‐" horiz-adv-x="737" d="M61 444v166h615v-166h-615z"/>
<glyph unicode="‑" horiz-adv-x="737" d="M61 444v166h615v-166h-615z"/>
<glyph unicode="‒" horiz-adv-x="737" d="M61 444v166h615v-166h-615z"/>
<glyph unicode="–" horiz-adv-x="1644" d="M41 469v162h1563v-162h-1563z"/>
<glyph unicode="—" horiz-adv-x="2859" d="M41 469v162h2777v-162h-2777z"/>
<glyph unicode="‘" horiz-adv-x="428" d="M82 965v129q0 214 55 329h158q-27 -61 -34 -113t-7 -147q0 -12 3.5 -18.5t6 -7t8.5 -0.5h74v-172h-264z"/>
<glyph unicode="’" horiz-adv-x="428" d="M82 1251v172h264v-129q0 -214 -55 -329h-158q27 61 34 113t7 147q0 12 -3.5 18.5t-6 7t-8.5 0.5h-74z"/>
<glyph unicode="‚" horiz-adv-x="428" d="M82 0v172h264v-127q0 -205 -61 -332h-156q27 62 36 117.5t9 142.5q0 13 -3 19t-6 7t-9 1h-74z"/>
<glyph unicode="“" horiz-adv-x="792" d="M82 965v129q0 171 76 329h137q-27 -61 -34 -113t-7 -147q0 -12 3.5 -18.5t6 -7t8.5 -0.5h74v-172h-264zM446 965v129q0 171 76 329h137q-27 -61 -34 -113t-7 -147q0 -12 3.5 -18.5t6.5 -7t9 -0.5h74v-172h-265z"/>
<glyph unicode="”" horiz-adv-x="792" d="M82 1251v172h264v-129q0 -196 -61 -329h-156q27 62 36 117.5t9 142.5q0 12 -3.5 18.5t-6 7t-8.5 0.5h-74zM446 1251v172h265v-129q0 -200 -62 -329h-155q27 62 36 117.5t9 142.5q0 12 -3.5 18.5t-6.5 7t-9 0.5h-74z"/>
<glyph unicode="„" horiz-adv-x="792" d="M82 0v172h264v-127q0 -199 -61 -332h-156q27 62 36 117.5t9 142.5q0 13 -3 19t-6 7t-9 1h-74zM446 0v172h265v-127q0 -203 -62 -332h-155q27 62 36 117.5t9 142.5q0 12 -3.5 18.5t-6.5 7.5t-9 1h-74z"/>
<glyph unicode="•" horiz-adv-x="655" d="M123 737q0 87 60 145t145 58q86 0 145 -57t59 -146q0 -87 -59.5 -146t-144.5 -59t-145 58.5t-60 146.5z"/>
<glyph unicode="…" horiz-adv-x="1566" d="M123 0v201h276v-201h-276zM645 0v201h277v-201h-277zM1167 0v201h277v-201h-277z"/>
<glyph unicode=" " horiz-adv-x="366"/>
<glyph unicode="‹" horiz-adv-x="722" d="M82 395v191l559 311v-213l-348 -195l348 -194v-213z"/>
<glyph unicode="›" horiz-adv-x="722" d="M82 82v213l348 194l-348 195v213l559 -311v-191z"/>
<glyph unicode=" " horiz-adv-x="458"/>
<glyph unicode="€" horiz-adv-x="1841" d="M31 500l108 159h127q-2 18 -2 58v49h-233l108 160h152q38 139 122 246t195.5 170.5t237.5 95.5t262 32q422 0 682 -270l-141 -211q-171 289 -537 289q-447 0 -580 -352h1070l-109 -160h-993q-2 -16 -2 -49q0 -40 2 -58h919l-108 -159h-770q70 -164 211 -254t354 -90 q338 0 543 290v-319q-121 -82 -242.5 -123t-292.5 -41q-334 0 -540.5 144.5t-278.5 392.5h-264z"/>
<glyph unicode="™" horiz-adv-x="2430" d="M82 1288v146h973v-146h-402v-786h-170v786h-401zM1214 502v932h166l406 -727l399 727h164v-932h-170v604l-43 -84l-291 -520h-127l-313 559l-19 33v-592h-172z"/>
<glyph unicode="◼" horiz-adv-x="952" d="M0 0v952h952v-952h-952z"/>
</font>
</defs>
</svg>
