<?xml version="1.0" encoding="UTF-8"?>
<!-- Generator: Adobe Illustrator 17.0.0, SVG Export Plug-In . SVG Version: 6.00 Build 0)  -->
<!DOCTYPE svg PUBLIC "-//W3C//DTD SVG 1.1//EN" "http://www.w3.org/Graphics/SVG/1.1/DTD/svg11.dtd">
<svg version="1.1" id="Layer_1" xmlns="http://www.w3.org/2000/svg" xmlns:xlink="http://www.w3.org/1999/xlink" x="0px" y="0px" width="667.756px" height="475.096px" viewBox="0 0 667.756 475.096" enable-background="new 0 0 667.756 475.096" xml:space="preserve">
<g>
	<path fill="#231F20" d="M399.543,504.229c0.181,1.561,0.841,3.541,2.761,3.541c1.86,0,3.239-1.92,3.239-5.67   c0-4.051-1.379-5.311-2.969-5.311c-1.23,0-2.371,0.931-2.73,2.101l-1.68-0.3l0.72-10.981h7.62l-0.181,1.801h-5.7l-0.42,6.6   c0.75-0.631,1.771-1.02,2.881-1.02c2.52,0,4.619,2.34,4.619,7.049c0,4.95-2.4,7.529-5.279,7.529c-3.12,0-4.68-2.34-4.86-5.159   L399.543,504.229z"/>
	<path fill="#231F20" d="M426.723,494.151c-0.301-3.42-1.381-4.86-3.21-4.86c-2.729,0-3.931,2.399-3.931,9.149   s1.201,9.15,3.931,9.15c2.19,0,3.45-1.5,3.51-5.521h2.34c-0.06,4.8-2.16,7.499-5.85,7.499c-3.87,0-6.271-2.939-6.271-11.129   c0-8.189,2.4-11.129,6.271-11.129c3.21,0,5.19,2.219,5.55,6.84H426.723z"/>
	<path fill="#231F20" d="M438.363,509.569c-3.659,0-6.12-3.059-6.12-11.129c0-8.07,2.461-11.129,6.12-11.129   c3.66,0,6.12,3.059,6.12,11.129C444.483,506.51,442.023,509.569,438.363,509.569z M438.363,489.29c-2.1,0-3.78,1.8-3.78,9.149   c0,7.35,1.681,9.15,3.78,9.15c2.101,0,3.78-1.801,3.78-9.15C442.143,491.09,440.463,489.29,438.363,489.29z"/>
	<path fill="#231F20" d="M450.183,487.61v19.68h7.02v1.98h-9.359v-21.66H450.183z"/>
	<path fill="#231F20" d="M465.033,509.569c-3.659,0-6.12-3.059-6.12-11.129c0-8.07,2.461-11.129,6.12-11.129   c3.66,0,6.12,3.059,6.12,11.129C471.153,506.51,468.693,509.569,465.033,509.569z M465.033,489.29c-2.1,0-3.78,1.8-3.78,9.149   c0,7.35,1.681,9.15,3.78,9.15c2.101,0,3.78-1.801,3.78-9.15C468.813,491.09,467.133,489.29,465.033,489.29z"/>
	<path fill="#231F20" d="M474.513,487.61h5.22c3.48,0,5.94,2.041,5.94,5.61c0,2.43-1.08,4.47-3.48,5.31l3.659,10.74h-2.459   l-3.48-10.26l-3.06,0.119v10.141h-2.34V487.61z M476.853,497.09h2.04c3.359,0,4.439-1.32,4.439-3.75c0-2.43-1.08-3.75-4.439-3.75   h-2.04V497.09z"/>
	<path fill="#231F20" d="M496.172,487.61h5.221c3.479,0,5.939,2.041,5.939,5.61c0,2.43-1.08,4.47-3.48,5.31l3.66,10.74h-2.46   l-3.479-10.26l-3.061,0.119v10.141h-2.34V487.61z M498.512,497.09h2.041c3.359,0,4.439-1.32,4.439-3.75   c0-2.43-1.08-3.75-4.439-3.75h-2.041V497.09z"/>
	<path fill="#231F20" d="M520.172,494.27c-0.18-2.82-1.019-4.979-3.39-4.979c-2.61,0-3.87,2.34-3.87,9.149   c0,6.81,1.26,9.15,3.87,9.15c2.19,0,3.39-1.201,3.39-3.42v-3.061h-2.939v-1.98h5.279v10.141h-1.5l-0.3-1.621   c-0.899,1.201-2.16,1.92-3.93,1.92c-3.81,0-6.21-2.939-6.21-11.129c0-8.189,2.4-11.129,6.21-11.129c3.989,0,5.43,3.479,5.729,6.959   H520.172z"/>
	<path fill="#231F20" d="M526.172,487.61h5.76c3.24,0,5.1,2.16,5.1,5.34c0,2.16-0.959,4.11-3.299,4.801v0.06   c2.609,0.69,3.779,2.76,3.779,5.46c0,4.02-2.22,6-6.959,6h-4.381V487.61z M528.512,496.911h1.32c3.359,0,4.859-1.021,4.859-3.961   c0-2.459-1.08-3.359-3.84-3.359h-2.34V496.911z M528.512,507.289h2.34c2.82,0,4.32-1.23,4.32-4.02c0-2.85-1.26-4.38-4.32-4.38   h-2.34V507.289z"/>
</g>
<path fill="#95D1EC" d="M668.669,509.342l-16.394-0.001c-2.939,0-5.325-2.432-5.325-5.432l-0.001-16.3h16.397  c2.94,0,5.322,2.43,5.322,5.432V509.342z"/>
<path fill="#BE1E2D" d="M643.582,509.342l-16.392-0.001c-2.94,0-5.326-2.432-5.326-5.432v-16.3h16.396  c2.941,0,5.322,2.43,5.322,5.432V509.342z"/>
<path fill="#EF4136" d="M618.497,509.342l-16.393-0.001c-2.94,0-5.325-2.432-5.325-5.432l-0.001-16.3h16.397  c2.941,0,5.322,2.43,5.322,5.432V509.342z"/>
<path fill="#81C5E2" d="M593.411,509.342l-16.395-0.001c-2.939,0-5.324-2.432-5.324-5.432l-0.002-16.3h16.398  c2.94,0,5.322,2.43,5.322,5.432V509.342z"/>
<g>
	<path fill="#231F20" d="M648.022,483.288c0.08,0.576,0.399,0.672,0.623,0.672c0.512,0,0.832-0.703,0.848-2.311   c-0.232,0.248-0.543,0.439-0.887,0.439c-0.649,0-1.24-0.463-1.24-1.775c0-1.119,0.48-1.807,1.24-1.807   c0.999,0,1.478,0.576,1.478,2.654c0,2.319-0.544,3.279-1.455,3.279c-0.744,0-1.023-0.448-1.136-1.12L648.022,483.288z    M649.508,480.569c0-1.166-0.303-1.582-0.814-1.582c-0.448,0-0.752,0.336-0.752,1.335c0,1.031,0.352,1.287,0.719,1.287   c0.368,0,0.656-0.239,0.848-0.495V480.569z"/>
	<path fill="#231F20" d="M651.477,483.016c0.049,0.416,0.225,0.943,0.736,0.943c0.495,0,0.863-0.512,0.863-1.512   c0-1.078-0.368-1.414-0.791-1.414c-0.328,0-0.633,0.248-0.729,0.559l-0.447-0.08l0.191-2.926h2.031l-0.048,0.48h-1.519   l-0.112,1.758c0.2-0.168,0.473-0.271,0.768-0.271c0.672,0,1.232,0.624,1.232,1.879c0,1.32-0.641,2.008-1.408,2.008   c-0.831,0-1.247-0.625-1.295-1.376L651.477,483.016z"/>
	<path fill="#231F20" d="M656.508,483.959h-0.016c-0.2,0.296-0.488,0.48-0.855,0.48c-0.656,0-1.199-0.56-1.199-2.16   c0-1.598,0.543-2.158,1.199-2.158c0.312,0,0.575,0.191,0.768,0.384v-1.919h0.575v4.654c0,0.543,0.032,0.879,0.097,1.119h-0.545   L656.508,483.959z M656.405,480.969c-0.168-0.168-0.368-0.367-0.624-0.367c-0.487,0-0.768,0.398-0.768,1.678s0.304,1.68,0.784,1.68   c0.176,0,0.432-0.16,0.607-0.4V480.969z"/>
	<path fill="#231F20" d="M658.454,484.36v-0.48h0.703v-4.637l-0.72,0.063v-0.353c0.327-0.079,0.647-0.223,0.911-0.447h0.385v5.373   h0.671v0.48H658.454z"/>
	<path fill="#231F20" d="M662.012,482.376v0.232c0,1.016,0.232,1.352,0.776,1.352c0.44,0,0.624-0.408,0.695-0.783l0.544,0.065   c-0.088,0.623-0.561,1.199-1.319,1.199c-0.872,0-1.271-0.656-1.271-2.16c0-1.502,0.399-2.158,1.271-2.158   c0.88,0,1.271,0.783,1.271,1.982v0.272H662.012z M663.404,481.897c-0.016-0.896-0.176-1.295-0.695-1.295   c-0.416,0-0.688,0.303-0.696,1.295H663.404z"/>
	<path fill="#231F20" d="M666.476,481.433c-0.056-0.624-0.304-0.831-0.655-0.831c-0.488,0-0.696,0.303-0.696,1.678   c0,1.376,0.208,1.68,0.696,1.68c0.367,0,0.575-0.191,0.671-0.912h0.56c-0.096,0.816-0.479,1.393-1.23,1.393   c-0.872,0-1.272-0.656-1.272-2.16c0-1.502,0.4-2.158,1.272-2.158c0.751,0,1.103,0.496,1.215,1.311H666.476z"/>
</g>
<g>
	<path fill="#231F20" d="M622.985,484.36h-0.447c0.065-0.24,0.096-0.576,0.096-1.119v-4.654h0.576v1.919   c0.191-0.192,0.455-0.384,0.768-0.384c0.655,0,1.199,0.561,1.199,2.158c0,1.6-0.544,2.16-1.199,2.16   c-0.368,0-0.656-0.184-0.863-0.48L622.985,484.36z M623.209,483.559c0.176,0.24,0.432,0.4,0.607,0.4c0.479,0,0.783-0.4,0.783-1.68   s-0.279-1.678-0.768-1.678c-0.256,0-0.455,0.199-0.623,0.367V483.559z"/>
	<path fill="#231F20" d="M626.417,482.376v0.232c0,1.016,0.232,1.352,0.776,1.352c0.44,0,0.624-0.408,0.695-0.783l0.544,0.065   c-0.088,0.623-0.561,1.199-1.319,1.199c-0.872,0-1.271-0.656-1.271-2.16c0-1.502,0.399-2.158,1.271-2.158   c0.88,0,1.271,0.783,1.271,1.982v0.272H626.417z M627.808,481.897c-0.016-0.896-0.176-1.295-0.695-1.295   c-0.416,0-0.688,0.303-0.696,1.295H627.808z"/>
	<path fill="#231F20" d="M629.521,484.36v-0.48h0.704v-4.637l-0.721,0.063v-0.353c0.328-0.079,0.648-0.223,0.912-0.447h0.384v5.373   h0.671v0.48H629.521z"/>
	<path fill="#231F20" d="M633.081,482.376v0.232c0,1.016,0.232,1.352,0.775,1.352c0.439,0,0.624-0.408,0.695-0.783l0.545,0.065   c-0.089,0.623-0.56,1.199-1.32,1.199c-0.871,0-1.271-0.656-1.271-2.16c0-1.502,0.4-2.158,1.271-2.158   c0.88,0,1.271,0.783,1.271,1.982v0.272H633.081z M634.471,481.897c-0.016-0.896-0.176-1.295-0.695-1.295   c-0.416,0-0.688,0.303-0.695,1.295H634.471z"/>
	<path fill="#231F20" d="M635.721,484.36v-0.48c0.512-1.711,2.11-2.67,2.11-3.982c0-0.608-0.304-0.911-0.696-0.911   c-0.455,0-0.791,0.352-0.839,1.215h-0.528c0.064-1.311,0.656-1.695,1.352-1.695c0.76,0,1.287,0.512,1.287,1.471   c0,1.439-1.295,1.888-2.158,3.902h2.19v0.48H635.721z"/>
	<path fill="#231F20" d="M641.343,483.959h-0.017c-0.199,0.296-0.487,0.48-0.855,0.48c-0.655,0-1.199-0.56-1.199-2.16   c0-1.598,0.544-2.158,1.199-2.158c0.312,0,0.576,0.191,0.768,0.384v-1.919h0.576v4.654c0,0.543,0.032,0.879,0.096,1.119h-0.543   L641.343,483.959z M641.239,480.969c-0.168-0.168-0.367-0.367-0.623-0.367c-0.488,0-0.768,0.398-0.768,1.678s0.304,1.68,0.783,1.68   c0.176,0,0.432-0.16,0.607-0.4V480.969z"/>
</g>
<g>
	<path fill="#231F20" d="M597.241,482.376v0.232c0,1.016,0.231,1.352,0.775,1.352c0.439,0,0.623-0.408,0.695-0.783l0.544,0.065   c-0.088,0.623-0.56,1.199-1.319,1.199c-0.871,0-1.271-0.656-1.271-2.16c0-1.502,0.4-2.158,1.271-2.158   c0.879,0,1.271,0.783,1.271,1.982v0.272H597.241z M598.631,481.897c-0.016-0.896-0.176-1.295-0.695-1.295   c-0.416,0-0.688,0.303-0.695,1.295H598.631z"/>
	<path fill="#231F20" d="M599.641,480.202h0.639v-0.848c0-0.56,0.225-0.848,0.848-0.848c0.152,0,0.312,0.024,0.448,0.049v0.447   c-0.104-0.049-0.208-0.064-0.312-0.064c-0.28,0-0.408,0.176-0.408,0.439v0.824h0.672v0.48h-0.672v3.678h-0.576v-3.678h-0.639   V480.202z"/>
	<path fill="#231F20" d="M604.336,478.586v3.982h0.6v0.478h-0.6v1.312h-0.575v-1.312h-1.848v-0.271l1.583-4.189H604.336z    M602.457,482.569h1.304v-3.455h-0.017L602.457,482.569z"/>
	<path fill="#231F20" d="M606.12,484.36v-0.48h0.704v-4.637l-0.72,0.063v-0.353c0.328-0.079,0.647-0.223,0.912-0.447h0.383v5.373   h0.672v0.48H606.12z"/>
	<path fill="#231F20" d="M609.304,479.738c0.063-0.68,0.432-1.232,1.175-1.232c0.648,0,1.287,0.447,1.287,1.408   c0,0.814-0.336,1.279-0.751,1.358v0.017c0.647,0.215,0.848,0.823,0.848,1.439c0,1.183-0.689,1.711-1.407,1.711   c-0.768,0-1.287-0.616-1.295-1.455h0.527c0.048,0.623,0.319,0.975,0.831,0.975c0.384,0,0.767-0.416,0.767-1.207   c0-0.951-0.399-1.224-1.311-1.224v-0.479c0.864,0,1.216-0.208,1.216-1.103c0-0.688-0.272-0.959-0.672-0.959   c-0.495,0-0.671,0.416-0.688,0.814L609.304,479.738z"/>
	<path fill="#231F20" d="M614.854,479.659c-0.079-0.576-0.399-0.672-0.623-0.672c-0.512,0-0.832,0.703-0.848,2.31   c0.232-0.248,0.544-0.439,0.888-0.439c0.647,0,1.239,0.463,1.239,1.774c0,1.12-0.479,1.808-1.239,1.808   c-0.999,0-1.479-0.576-1.479-2.655c0-2.319,0.544-3.278,1.455-3.278c0.744,0,1.023,0.447,1.136,1.119L614.854,479.659z    M613.368,482.376c0,1.167,0.304,1.583,0.815,1.583c0.448,0,0.751-0.336,0.751-1.335c0-1.032-0.352-1.288-0.719-1.288   c-0.368,0-0.656,0.24-0.848,0.496V482.376z"/>
</g>
<g>
	<path fill="#231F20" d="M573.648,484.44c-0.896,0-1.423-0.704-1.423-1.535c0-0.713,0.375-1.225,0.928-1.615   c-0.512-0.408-0.8-0.809-0.8-1.488c0-0.759,0.575-1.295,1.295-1.295c0.72,0,1.296,0.536,1.296,1.295c0,0.68-0.288,1.08-0.8,1.488   c0.552,0.391,0.927,0.902,0.927,1.615C575.071,483.736,574.543,484.44,573.648,484.44z M573.648,481.592   c-0.464,0.344-0.848,0.713-0.848,1.336c0,0.472,0.256,1.031,0.848,1.031s0.848-0.56,0.848-1.031   C574.496,482.305,574.112,481.936,573.648,481.592z M573.648,478.987c-0.495,0-0.72,0.383-0.72,0.751   c0,0.584,0.288,1.016,0.72,1.279c0.432-0.264,0.72-0.695,0.72-1.279C574.368,479.37,574.144,478.987,573.648,478.987z"/>
	<path fill="#231F20" d="M576.272,484.36v-0.48h0.704v-4.637l-0.72,0.063v-0.353c0.328-0.079,0.647-0.223,0.912-0.447h0.383v5.373   h0.672v0.48H576.272z"/>
	<path fill="#231F20" d="M581.183,481.433c-0.056-0.624-0.304-0.831-0.655-0.831c-0.488,0-0.695,0.303-0.695,1.678   c0,1.376,0.207,1.68,0.695,1.68c0.367,0,0.576-0.191,0.672-0.912h0.56c-0.097,0.816-0.479,1.393-1.231,1.393   c-0.871,0-1.271-0.656-1.271-2.16c0-1.502,0.4-2.158,1.271-2.158c0.752,0,1.104,0.496,1.215,1.311H581.183z"/>
	<path fill="#231F20" d="M583.064,483.016c0.048,0.416,0.224,0.943,0.735,0.943c0.496,0,0.863-0.512,0.863-1.512   c0-1.078-0.367-1.414-0.791-1.414c-0.328,0-0.632,0.248-0.727,0.559l-0.448-0.08l0.192-2.926h2.03l-0.048,0.48h-1.518l-0.112,1.758   c0.2-0.168,0.472-0.271,0.768-0.271c0.672,0,1.231,0.624,1.231,1.879c0,1.32-0.64,2.008-1.407,2.008   c-0.831,0-1.247-0.625-1.296-1.376L583.064,483.016z"/>
	<path fill="#231F20" d="M586.496,482.376v0.232c0,1.016,0.232,1.352,0.775,1.352c0.44,0,0.624-0.408,0.696-0.783l0.543,0.065   c-0.088,0.623-0.56,1.199-1.318,1.199c-0.872,0-1.271-0.656-1.271-2.16c0-1.502,0.399-2.158,1.271-2.158   c0.879,0,1.271,0.783,1.271,1.982v0.272H586.496z M587.887,481.897c-0.016-0.896-0.176-1.295-0.695-1.295   c-0.416,0-0.689,0.303-0.696,1.295H587.887z"/>
	<path fill="#231F20" d="M589.135,484.36v-0.48c0.512-1.711,2.111-2.67,2.111-3.982c0-0.608-0.304-0.911-0.695-0.911   c-0.456,0-0.792,0.352-0.84,1.215h-0.527c0.063-1.311,0.655-1.695,1.352-1.695c0.759,0,1.287,0.512,1.287,1.471   c0,1.439-1.296,1.888-2.159,3.902h2.19v0.48H589.135z"/>
</g>
<path fill="#B0DAEE" d="M568.324,509.342l-16.394-0.001c-2.939,0-5.325-2.432-5.325-5.432l-0.001-16.3h16.397  c2.94,0,5.322,2.43,5.322,5.432V509.342z"/>
<g>
	<path fill="#231F20" d="M547.891,484.36h-0.447c0.064-0.24,0.096-0.576,0.096-1.119v-4.654h0.576v1.919   c0.191-0.192,0.455-0.384,0.768-0.384c0.655,0,1.199,0.561,1.199,2.158c0,1.6-0.544,2.16-1.199,2.16   c-0.368,0-0.656-0.184-0.863-0.48L547.891,484.36z M548.116,483.559c0.176,0.24,0.432,0.4,0.607,0.4c0.479,0,0.783-0.4,0.783-1.68   s-0.279-1.678-0.768-1.678c-0.256,0-0.455,0.199-0.623,0.367V483.559z"/>
	<path fill="#231F20" d="M552.243,484.44c-0.943,0-1.391-0.881-1.391-2.967c0-2.087,0.447-2.967,1.391-2.967s1.392,0.88,1.392,2.967   C553.634,483.559,553.186,484.44,552.243,484.44z M552.243,478.987c-0.527,0-0.815,0.592-0.815,2.486   c0,1.895,0.288,2.486,0.815,2.486c0.527,0,0.815-0.592,0.815-2.486C553.058,479.579,552.77,478.987,552.243,478.987z"/>
	<path fill="#231F20" d="M556.474,483.959h-0.017c-0.199,0.296-0.487,0.48-0.855,0.48c-0.655,0-1.199-0.56-1.199-2.16   c0-1.598,0.544-2.158,1.199-2.158c0.312,0,0.576,0.191,0.768,0.384v-1.919h0.576v4.654c0,0.543,0.032,0.879,0.096,1.119h-0.543   L556.474,483.959z M556.37,480.969c-0.168-0.168-0.367-0.367-0.623-0.367c-0.488,0-0.768,0.398-0.768,1.678s0.304,1.68,0.783,1.68   c0.176,0,0.432-0.16,0.607-0.4V480.969z"/>
	<path fill="#231F20" d="M558.067,481.336c0.112-0.654,0.496-1.215,1.232-1.215c0.767,0,1.191,0.447,1.191,1.184v2.318   c0,0.368,0.04,0.641,0.104,0.736h-0.6l-0.072-0.351c-0.225,0.223-0.624,0.432-0.888,0.432c-0.647,0-1.079-0.416-1.079-1.072   c0-1.023,1.127-1.543,1.959-1.727v-0.296c0-0.456-0.232-0.743-0.6-0.743c-0.44,0-0.656,0.439-0.721,0.814L558.067,481.336z    M559.915,482.121c-0.528,0.159-1.384,0.544-1.384,1.199c0,0.392,0.176,0.64,0.592,0.64c0.312,0,0.583-0.216,0.792-0.432V482.121z"/>
	<path fill="#231F20" d="M561.979,482.376v0.232c0,1.016,0.232,1.352,0.775,1.352c0.44,0,0.623-0.408,0.695-0.783l0.544,0.065   c-0.088,0.623-0.56,1.199-1.319,1.199c-0.871,0-1.271-0.656-1.271-2.16c0-1.502,0.4-2.158,1.271-2.158   c0.879,0,1.272,0.783,1.272,1.982v0.272H561.979z M563.37,481.897c-0.016-0.896-0.176-1.295-0.695-1.295   c-0.416,0-0.688,0.303-0.695,1.295H563.37z"/>
	<path fill="#231F20" d="M565.09,482.376v0.232c0,1.016,0.232,1.352,0.775,1.352c0.439,0,0.624-0.408,0.695-0.783l0.545,0.065   c-0.089,0.623-0.561,1.199-1.32,1.199c-0.871,0-1.272-0.656-1.272-2.16c0-1.502,0.4-2.158,1.272-2.158   c0.88,0,1.271,0.783,1.271,1.982v0.272H565.09z M566.481,481.897c-0.016-0.896-0.176-1.295-0.695-1.295   c-0.416,0-0.688,0.303-0.695,1.295H566.481z"/>
</g>
<g>
	<g>
		<linearGradient id="SVGID_1_" gradientUnits="userSpaceOnUse" x1="455.2378" y1="192.7983" x2="455.2378" y2="36">
			<stop offset="0.0175" style="stop-color:#85C5E2"/>
			<stop offset="1" style="stop-color:#AED8EC"/>
		</linearGradient>
		<path fill="url(#SVGID_1_)" d="M602.873,99.318h-23.849l21.417,19.712h-39.842c-9.947-32.643-46.418-46.433-69.331-40.788    c-7.718-19.167-30.863-25.953-47.462-20.34C433.986,45.274,412.668,36,393.67,36c-27.392,0-52.74,16.258-63.727,41.039    c-30.861,3.974-51.224,26.09-51.224,52.398c0,29.842,26.396,54.123,60.439,54.123c7.823,0,17.41-1.716,23.985-5.249    c14.265,9.353,34.609,14.487,54.766,14.487c20.931,0,42.005-5.452,57.691-14.997c15.673,10.684,37.547,7.299,50.139-6.9    c6.857-7.732,9.87-17.664,9.87-28.009c0-20.179-16.027-36.252-35.794-36.252c-11.568,0-20.97,4.034-28.354,10.478l11.062,15.738    c3.149-2.995,8.57-6.604,16.298-6.604c7.555,0,16.508,4.646,16.916,16.932c0.358,10.911-9.183,19.421-17.947,19.421    c-8.763,0-15.811-3.394-20.949-9.833c-15.037,13.094-39.632,18.589-58.931,18.589c-26.477,0-44.017-9.434-52.795-15.889    c-6.713,4.218-17.883,6.653-25.956,6.653c-22.217,0-39.004-14.664-39.004-32.687c0-16.98,17.164-33.229,44.022-32.998    c6.108-22.674,26.448-39.042,49.493-39.003c23.244,0.042,34.596,11.842,43.414,24.372c5.552-6.173,19.853-8.968,29.945-2.86    c8.509,5.158,12.462,13.179,12.274,23.053c8.92-4.387,30.586-7.087,44.886,3.378c14.303,10.469,18.114,20.993,19.681,35.088    h56.473l-21.246,19.545h23.852l28.808-30.313L602.873,99.318L602.873,99.318z"/>
		<linearGradient id="SVGID_2_" gradientUnits="userSpaceOnUse" x1="282.4861" y1="410.3012" x2="282.4861" y2="231.5044">
			<stop offset="0" style="stop-color:#BC202E"/>
			<stop offset="1" style="stop-color:#EE4237"/>
		</linearGradient>
		<path fill="url(#SVGID_2_)" d="M470.452,231.504c-40.163,0-58.506,19.975-58.506,49.343c0,7.025,1.695,15.182,3.838,20.479    c-2.96,2.634-7.429,5.966-14.31,9.932v-77.899H367.96l0.468,7.538c-6.468-5.582-15.169-9.393-28.256-9.393    c-14.49,0-26.009,3.593-34.536,9.893c-12.329,2.072-28.898,3.527-45.392,0.834c-9.533-6.842-22.986-10.727-40.676-10.727    c-40.176,0-58.516,19.975-58.516,49.343c0,7.272,1.129,13.966,3.436,19.921c-2.936,2.707-7.562,6.237-14.945,10.49v-77.899    h-33.475l0.434,7.538c-5.519-5.582-15.556-9.393-28.262-9.393C53.878,231.504,36,251.479,36,280.847    c0,29.375,17.878,49.345,52.241,49.345c6.592,0,16.223-1.316,23.684-4.695v4.251c-2.997,1.107-6.018,2.074-12.966,3.676    C82.43,337.242,45.65,342.6,45.65,374.486c0,22.33,21.543,35.815,47.594,35.815c26.039,0,56.299-15.037,56.299-64.85v-4.658    c11.049-5.282,22.695-12.017,31.507-19.95c9.367,5.961,22.087,9.349,38.519,9.349c40.168,0,58.516-19.97,58.516-49.345    c0-3.938-0.344-7.713-1.018-11.294c3.785,0.205,7.752,0.166,11.882-0.139c-0.663,3.623-1.021,7.437-1.021,11.433    c0,29.375,17.873,49.345,52.244,49.345c6.459,0,19.509-2.811,23.683-4.695v4.251c-2.313,1.147-6.538,2.211-12.971,3.676    c-16.536,3.796-53.31,9.177-53.31,41.062c0,22.33,21.55,35.815,47.589,35.815c26.047,0,56.311-15.037,56.311-64.85v-4.658    c10.874-5.195,22.304-11.811,31.071-19.579c9.301,5.721,21.833,8.978,37.906,8.978c40.181,0,58.52-19.97,58.52-49.345    C528.972,249.336,510.018,231.504,470.452,231.504z M93.507,382.467c-9.833,1.055-14.622-2.662-14.622-8.775    c0-11.429,12.725-14.17,25.707-17.046c2.328-0.516,4.693-1.055,7.039-1.618C109.986,375.671,101.777,381.571,93.507,382.467z     M111.925,296.592c-3.938,3.287-9.518,5.406-16.944,5.406c-15.559,0-21.367-9.167-21.367-21.151    c0-11.979,5.809-21.146,21.367-21.146c7.427,0,13.007,1.876,16.944,5.176V296.592z M219.569,301.998    c-15.562,0-20.898-9.167-20.898-21.151c0-11.753,5.336-21.146,20.898-21.146c15.551,0,20.895,9.393,20.895,21.146    C240.463,292.831,235.12,301.998,219.569,301.998z M345.425,382.467c-9.824,1.055-14.616-2.662-14.616-8.775    c0-11.429,12.726-14.17,25.707-17.046c2.323-0.516,4.693-1.055,7.047-1.618C361.915,375.671,353.699,381.571,345.425,382.467z     M363.855,296.592c-3.952,3.287-9.517,5.406-16.95,5.406c-15.564,0-21.362-9.167-21.362-21.151    c0-11.979,5.799-21.146,21.362-21.146c7.434,0,12.998,1.876,16.95,5.176V296.592z M470.452,301.998    c-15.547,0-20.896-9.167-20.896-21.151c0-11.753,5.349-21.146,20.896-21.146c15.569,0,20.909,9.393,20.909,21.146    C491.361,292.831,486.021,301.998,470.452,301.998z"/>
		<polygon fill="#95D1EC" points="446.789,398.057 446.789,371.301 451.814,371.301 451.814,398.057 446.789,398.057   "/>
		<polygon fill="#95D1EC" points="483.957,398.057 466.557,380.138 464.874,378.251 464.874,398.057 459.849,398.057     459.849,371.301 464.667,371.301 481.546,389.173 483.275,391.11 483.275,371.301 488.292,371.301 488.292,398.057     483.957,398.057   "/>
		<path fill="#95D1EC" d="M534.75,398.057l-3.541-6.625h-15.7l-3.421,6.625h-5.303l14.464-26.756h4.181l14.703,26.756H534.75    L534.75,398.057z M523.218,376.522l-5.826,11.248h11.853L523.218,376.522L523.218,376.522z"/>
		<polygon fill="#95D1EC" points="544.878,398.057 544.878,371.301 549.902,371.301 549.902,398.057 544.878,398.057   "/>
		<path fill="#95D1EC" d="M581.003,398.057c-1.366,0-1.971-1.892-2.135-4.302l-0.149-2.728c-0.168-2.652-1.256-3.777-6.273-3.777    h-9.483v10.807h-5.019v-26.756h14.579c8.035,0,11.654,3.214,11.654,7.353c0,2.928-1.491,5.7-6.714,6.667    c5.223,0.399,6.351,2.771,6.39,5.903l0.039,2.209c0.042,1.853,0.363,3.176,1.651,4.504v0.12H581.003L581.003,398.057z     M579.111,379.297c0-1.931-1.567-3.818-5.86-3.818h-10.289v8.032h10.729c3.695,0,5.42-1.765,5.42-3.893V379.297L579.111,379.297z"/>
		<polygon fill="#95D1EC" points="591.249,398.057 591.249,393.52 595.911,393.52 595.911,398.057 591.249,398.057   "/>
		<path fill="#95D1EC" d="M459.186,440.141c-9.48,0-15.629-6.827-15.629-13.939v-0.885c0-7.232,6.149-13.944,15.629-13.944    c9.527,0,15.674,6.713,15.674,13.944v0.885C474.86,433.314,468.713,440.141,459.186,440.141L459.186,440.141z M469.793,425.395    c0-5.18-3.776-9.803-10.607-9.803c-6.825,0-10.565,4.623-10.565,9.803v0.644c0,5.181,3.739,9.89,10.565,9.89    c6.831,0,10.607-4.709,10.607-9.89V425.395L469.793,425.395z"/>
		<polygon fill="#95D1EC" points="505.396,439.096 488.003,421.172 486.314,419.293 486.314,439.096 481.295,439.096     481.295,412.338 486.115,412.338 502.99,430.214 504.721,432.149 504.721,412.338 509.74,412.338 509.74,439.096 505.396,439.096       "/>
		<polygon fill="#95D1EC" points="517.776,439.096 517.776,412.338 522.804,412.338 522.804,434.914 543.735,434.914     543.735,439.096 517.776,439.096   "/>
		<polygon fill="#95D1EC" points="549.365,439.096 549.365,412.338 554.385,412.338 554.385,439.096 549.365,439.096   "/>
		<polygon fill="#95D1EC" points="586.528,439.096 569.134,421.172 567.443,419.293 567.443,439.096 562.419,439.096     562.419,412.338 567.248,412.338 584.115,430.214 585.844,432.149 585.844,412.338 590.862,412.338 590.862,439.096     586.528,439.096   "/>
		<polygon fill="#95D1EC" points="598.909,439.096 598.909,412.338 623.216,412.338 623.216,416.516 603.927,416.516     603.927,423.387 618.753,423.387 618.753,427.45 603.927,427.45 603.927,434.914 623.216,434.914 623.216,439.096     598.909,439.096   "/>
		<linearGradient id="SVGID_3_" gradientUnits="userSpaceOnUse" x1="536.5557" y1="249.6177" x2="536.5557" y2="235.7114">
			<stop offset="0" style="stop-color:#BC202E"/>
			<stop offset="1" style="stop-color:#EE4237"/>
		</linearGradient>
		<path fill="url(#SVGID_3_)" d="M543.521,242.655c0-3.828-3.119-6.943-6.965-6.943c-3.846,0-6.966,3.115-6.966,6.943    c0,3.849,3.12,6.963,6.966,6.963C540.402,249.618,543.521,246.503,543.521,242.655L543.521,242.655z M542.132,242.655    c0,3.135-2.498,5.674-5.576,5.674c-3.08,0-5.581-2.539-5.581-5.674c0-3.115,2.501-5.658,5.581-5.658    C539.634,236.997,542.132,239.539,542.132,242.655L542.132,242.655z M538.442,243.485c0.957-0.35,1.595-1.238,1.595-2.33    c0-1.52-1.018-2.5-2.636-2.5h-3.674v7.658h1.443v-2.661h1.868l1.381,2.676h1.655L538.442,243.485L538.442,243.485z     M535.17,242.332v-2.352h2.246c0.738,0,1.2,0.307,1.2,1.174c0,0.865-0.598,1.178-1.2,1.178    C537.417,242.332,535.98,242.332,535.17,242.332L535.17,242.332z"/>
	</g>
	<polygon fill="#95D1EC" points="629.394,439.096 629.394,434.554 634.06,434.554 634.06,439.096 629.394,439.096  "/>
</g>
</svg>